<?xml version="1.0" standalone="no"?>
<!DOCTYPE svg PUBLIC "-//W3C//DTD SVG 20010904//EN"
 "http://www.w3.org/TR/2001/REC-SVG-20010904/DTD/svg10.dtd">
<svg version="1.0" xmlns="http://www.w3.org/2000/svg"
 width="500.000000pt" height="500.000000pt" viewBox="0 0 500.000000 500.000000"
 preserveAspectRatio="xMidYMid meet">

<g transform="translate(0.000000,500.000000) scale(0.100000,-0.100000)"
fill="#000000" stroke="none">
<path d="M1070 3404 c-19 -8 -43 -13 -52 -11 -10 3 -22 -1 -28 -8 -9 -11 -6
-13 14 -11 15 2 26 -1 26 -7 0 -6 9 -2 20 8 11 10 20 13 20 7 0 -6 7 -9 16 -5
11 4 12 8 4 13 -8 5 -7 9 4 13 19 8 22 -23 5 -40 -9 -9 -7 -11 8 -7 25 7 40
-13 23 -29 -10 -9 -11 -9 -6 1 9 15 -10 16 -20 1 -3 -6 -15 -8 -26 -6 -14 4
-18 1 -14 -8 3 -8 0 -17 -6 -21 -7 -5 -8 -2 -3 6 6 10 4 12 -8 7 -16 -6 -22 4
-17 28 1 6 -11 -1 -26 -15 -15 -14 -24 -18 -19 -10 4 8 -2 5 -14 -8 -12 -12
-28 -19 -34 -16 -7 4 -9 4 -5 -1 8 -9 -52 -61 -66 -57 -5 2 -4 -3 2 -11 16
-19 -58 -93 -76 -75 -7 7 -13 9 -13 5 -1 -4 -2 -10 -3 -14 -3 -17 -18 -33 -26
-28 -5 3 -28 -21 -53 -52 -53 -70 -64 -89 -49 -79 7 4 12 2 12 -5 0 -8 5 -7
17 2 9 8 4 -5 -12 -28 -15 -24 -30 -43 -32 -43 -3 0 2 12 12 26 9 14 14 28 12
31 -3 2 -10 -5 -17 -16 -6 -12 -15 -19 -20 -16 -6 3 -7 0 -4 -8 3 -8 1 -18 -5
-22 -6 -3 -14 1 -17 9 -8 22 -26 9 -19 -14 3 -10 1 -21 -5 -25 -5 -3 -10 -14
-10 -23 1 -12 6 -8 16 11 8 15 17 27 20 27 2 0 0 -9 -6 -20 -15 -28 -19 -89
-6 -84 6 2 11 -7 11 -21 0 -30 1 -30 -25 -3 -11 12 -20 18 -20 12 0 -5 -4 -3
-9 4 -7 11 -9 10 -14 -3 -5 -11 -3 -14 5 -9 8 5 9 2 5 -9 -4 -10 -10 -25 -13
-34 -5 -15 -4 -16 5 -3 9 13 11 13 11 0 1 -9 5 -6 14 8 12 22 13 22 27 6 8
-10 9 -15 3 -11 -7 4 -17 1 -23 -7 -19 -22 -46 -12 -44 15 3 23 2 23 -12 5
-12 -16 -12 -20 1 -33 9 -10 12 -23 8 -37 -17 -54 -17 -52 -4 -36 9 12 11 9 7
-17 -2 -18 0 -33 5 -33 4 0 8 -7 8 -16 0 -8 -4 -12 -10 -9 -13 8 -13 -1 1 -27
7 -13 7 -18 1 -14 -12 7 -26 -29 -18 -43 3 -5 3 -23 0 -41 -5 -22 -9 -28 -15
-18 -7 10 -9 11 -9 0 0 -8 -5 -10 -12 -6 -8 5 -9 2 -5 -10 4 -10 7 -21 8 -24
0 -4 5 2 10 13 6 14 8 8 4 -25 -3 -34 -2 -39 4 -20 8 21 9 18 7 -17 0 -24 -2
-43 -3 -43 -1 0 -9 12 -17 28 l-15 27 -1 -32 c0 -18 4 -33 9 -33 4 0 6 -11 3
-25 -3 -18 0 -25 12 -25 9 0 16 5 16 12 0 6 3 8 7 4 5 -4 -1 -14 -11 -22 -11
-8 -15 -14 -9 -14 7 0 14 -8 16 -17 4 -15 5 -15 6 2 1 17 3 18 11 5 9 -13 10
-13 10 0 0 13 1 13 10 0 6 -10 10 -11 10 -2 0 6 9 12 20 12 11 0 23 7 27 16 5
13 7 13 14 2 5 -7 9 -17 9 -23 0 -5 -5 -3 -10 5 -7 11 -10 7 -10 -17 0 -17 5
-35 10 -38 6 -4 10 -3 9 2 -3 19 2 30 16 30 17 0 31 -30 16 -35 -6 -2 -11 -8
-11 -13 0 -5 16 -3 35 6 22 8 33 10 29 3 -4 -6 -3 -8 4 -4 6 3 14 21 18 39 6
28 8 29 15 12 11 -29 10 -42 -2 -25 -9 12 -10 11 -6 -5 5 -27 -15 -46 -36 -34
-11 7 -17 4 -22 -11 -4 -11 -10 -18 -15 -15 -5 3 -7 -9 -6 -27 2 -18 1 -24 -1
-13 -9 36 -22 44 -54 33 -16 -5 -29 -15 -30 -21 0 -7 -4 -3 -9 8 -8 16 -9 14
-7 -13 2 -32 5 -34 112 -79 139 -57 593 -176 648 -169 74 9 136 80 173 199 20
65 13 62 112 41 19 -4 32 -3 32 4 0 10 -32 18 -105 27 -22 3 -49 7 -60 10 -11
2 -24 4 -29 4 -5 -1 -12 5 -17 12 -6 10 -13 10 -32 2 -14 -7 -28 -9 -32 -5 -3
4 -25 11 -48 17 -39 9 -42 13 -45 47 -2 20 6 85 17 145 12 59 23 122 25 138 4
28 46 199 95 388 55 215 105 327 182 407 l48 50 63 -5 c35 -3 57 -3 51 1 -7 3
-13 11 -13 19 0 25 -26 33 -145 43 -66 6 -131 13 -145 16 -14 3 -38 7 -55 10
-16 2 -50 9 -75 15 -25 5 -71 12 -102 15 -32 3 -68 8 -80 11 -13 2 -39 -2 -58
-11z m85 -14 c-3 -5 -14 -10 -23 -10 -15 0 -15 2 -2 10 20 13 33 13 25 0z
m155 -30 c-8 -5 -19 -10 -25 -10 -5 0 -3 5 5 10 8 5 20 10 25 10 6 0 3 -5 -5
-10z m165 -30 c-3 -5 -12 -10 -18 -10 -7 0 -6 4 3 10 19 12 23 12 15 0z m235
-34 c-4 -4 -16 -4 -26 2 -16 9 -14 10 8 9 15 -1 23 -6 18 -11z m-740 -20 c0
-3 -15 -14 -32 -26 l-33 -22 28 26 c27 25 37 31 37 22z m0 -40 c0 -2 -8 -10
-17 -17 -16 -13 -17 -12 -4 4 13 16 21 21 21 13z m30 0 c0 -2 -8 -10 -17 -17
-16 -13 -17 -12 -4 4 13 16 21 21 21 13z m23 -13 c-6 -16 -3 -15 17 2 l23 20
-11 -20 c-5 -11 -21 -29 -33 -40 -18 -16 -21 -16 -10 -2 8 9 11 20 8 23 -3 3
-15 -8 -28 -25 -13 -17 -27 -31 -31 -31 -5 0 8 20 29 45 41 50 45 53 36 28z
m-149 -85 c-6 -21 -6 -22 12 -8 10 8 2 -9 -19 -38 -41 -57 -46 -72 -19 -51 9
8 6 -1 -9 -20 -14 -19 -33 -35 -43 -37 -10 -1 -16 0 -13 3 3 2 9 5 14 5 12 0
33 19 33 30 0 5 -6 6 -12 1 -23 -14 -37 -12 -31 5 5 11 3 13 -8 7 -8 -5 -11
-5 -6 1 5 5 13 10 18 10 5 1 11 3 14 4 3 1 10 3 17 4 6 0 13 6 15 13 3 9 -24
11 -34 3 -2 -2 -6 -3 -10 -4 -5 -1 -15 -5 -23 -11 -13 -8 -13 -7 -1 8 7 9 17
15 21 12 5 -3 11 -1 15 4 3 5 14 8 25 6 12 -2 17 1 14 10 -4 10 -19 13 -41 6
-2 -1 -6 -1 -10 -2 -5 0 -17 -8 -28 -17 -20 -17 -20 -17 -1 5 10 13 22 20 26
18 4 -2 15 4 25 15 10 11 21 17 25 15 4 -3 13 2 20 10 18 21 22 19 14 -7z m56
-2 c0 -2 -8 -10 -17 -17 -16 -13 -17 -12 -4 4 13 16 21 21 21 13z m-13 -44
c-20 -22 -53 -27 -36 -5 6 7 15 11 19 8 5 -3 11 -1 15 5 3 5 9 10 12 10 3 0
-1 -8 -10 -18z m-176 -10 c-5 -10 -18 -25 -27 -33 -11 -9 -9 -2 6 19 26 35 36
42 21 14z m249 -5 c0 -2 -10 -12 -22 -23 l-23 -19 19 23 c18 21 26 27 26 19z
m-49 -25 c-5 -9 -19 -26 -32 -37 -17 -15 -15 -10 7 17 32 41 40 48 25 20z
m-217 -27 c-14 -19 -29 -35 -31 -35 -5 0 7 18 36 53 26 31 23 18 -5 -18z m240
-10 c-14 -19 -29 -35 -31 -35 -3 0 0 7 7 15 7 9 10 18 8 21 -3 3 -22 -18 -43
-46 -20 -27 -39 -50 -42 -50 -3 0 -1 6 4 13 54 72 76 96 83 92 4 -3 13 2 20
10 25 30 20 14 -6 -20z m-223 -11 c-26 -43 -26 -44 -1 -39 11 2 18 0 15 -5 -3
-5 -14 -7 -25 -5 -11 2 -20 0 -20 -4 0 -4 -7 -8 -15 -8 -14 0 -7 13 48 85 19
25 18 11 -2 -24z m-57 1 c-9 -14 -18 -25 -21 -25 -5 0 5 18 20 38 17 22 18 13
1 -13z m206 21 c0 -2 -8 -10 -17 -17 -16 -13 -17 -12 -4 4 13 16 21 21 21 13z
m0 -40 c0 -2 -8 -10 -17 -17 -16 -13 -17 -12 -4 4 13 16 21 21 21 13z m80 -10
c0 -2 -8 -10 -17 -17 -16 -13 -17 -12 -4 4 13 16 21 21 21 13z m-190 -31 c-19
-20 -21 -27 -10 -40 9 -11 9 -15 1 -15 -7 0 -9 -5 -6 -11 4 -6 -7 -28 -24 -49
-17 -21 -31 -44 -31 -51 0 -7 -3 -9 -7 -5 -4 3 -13 -4 -20 -16 -7 -13 -12 -18
-13 -11 0 6 11 25 25 41 33 39 32 52 -2 21 -14 -13 -5 2 20 34 53 66 64 92 14
33 -25 -29 -36 -36 -42 -26 -5 8 -4 11 3 6 6 -3 18 4 26 16 19 26 21 42 5 32
-8 -4 -8 0 0 15 14 25 23 28 15 4 -4 -12 1 -9 15 7 11 14 21 28 21 33 0 4 8 7
17 7 14 0 13 -4 -7 -25z m60 -25 c-12 -16 -24 -30 -26 -30 -3 0 4 14 16 30 12
17 24 30 26 30 3 0 -4 -13 -16 -30z m-149 -7 c12 -16 12 -17 -2 -6 -9 7 -20 9
-24 5 -5 -4 -5 -1 -1 6 9 16 11 15 27 -5z m-14 -28 c0 -8 -4 -12 -9 -9 -5 3
-6 10 -3 15 9 13 12 11 12 -6z m139 -43 c-17 -16 -18 -16 -5 5 7 12 15 20 18
17 3 -2 -3 -12 -13 -22z m29 -2 c-9 -16 -18 -30 -21 -30 -2 0 2 14 11 30 9 17
18 30 21 30 2 0 -2 -13 -11 -30z m-204 -7 c13 -17 12 -17 -4 -3 -17 13 -19 12
-17 -5 4 -32 0 -41 -9 -26 -6 9 -6 22 0 33 12 22 13 22 30 1z m742 -18 c-3 -9
-8 -14 -10 -11 -3 3 -2 9 2 15 9 16 15 13 8 -4z m-533 -15 c-6 -11 -13 -20
-16 -20 -2 0 0 9 6 20 6 11 13 20 16 20 2 0 0 -9 -6 -20z m-207 -24 c-10 -13
-20 -22 -22 -20 -4 4 29 44 36 44 2 0 -4 -11 -14 -24z m180 -21 c-3 -9 -8 -14
-10 -11 -3 3 -2 9 2 15 9 16 15 13 8 -4z m-272 -22 c-12 -20 -14 -14 -5 12 4
9 9 14 11 11 3 -2 0 -13 -6 -23z m132 -38 c-9 -19 -18 -33 -20 -32 -5 6 21 67
29 67 4 0 0 -16 -9 -35z m-39 -11 c3 -8 2 -12 -4 -9 -6 3 -10 1 -10 -6 0 -7
-2 -10 -5 -7 -5 5 4 38 10 38 2 0 6 -7 9 -16z m87 -7 c-10 -9 -11 -8 -5 6 3
10 9 15 12 12 3 -3 0 -11 -7 -18z m39 15 c0 -5 -7 -17 -15 -28 -14 -18 -14
-17 -4 9 12 27 19 34 19 19z m-182 -27 c-3 -3 -9 2 -12 12 -6 14 -5 15 5 6 7
-7 10 -15 7 -18z m-40 -21 c10 6 26 -23 17 -32 -3 -3 -5 1 -6 9 0 8 -7 1 -14
-16 l-14 -30 -1 27 c0 14 -3 35 -6 45 -4 14 -4 15 4 4 5 -7 14 -11 20 -7z m62
-4 c0 13 1 13 10 0 8 -12 10 -12 10 -1 0 8 2 12 5 9 3 -3 2 -13 -1 -22 -5 -14
-9 -15 -16 -4 -7 9 -8 3 -4 -17 5 -24 4 -27 -5 -15 -9 12 -10 11 -6 -8 3 -12
1 -20 -3 -17 -5 3 -11 -1 -14 -7 -3 -7 -3 -2 1 12 4 14 7 38 7 53 -1 19 2 24
7 15 7 -10 9 -10 9 2z m-39 -127 c-12 -20 -14 -14 -5 12 4 9 9 14 11 11 3 -2
0 -13 -6 -23z m13 -25 c-14 -20 -15 -20 -9 -3 4 11 10 29 13 40 5 17 7 18 10
3 2 -10 -4 -28 -14 -40z m-54 -49 c-14 -49 -11 -60 6 -19 14 35 14 16 -1 -40
-4 -16 -4 -21 2 -12 7 9 13 5 21 -15 11 -26 11 -27 -3 -9 -11 15 -15 16 -15 5
-1 -8 -7 -3 -16 11 -8 14 -13 18 -11 10 17 -59 17 -65 1 -34 -15 29 -15 35 0
89 10 31 19 55 21 53 3 -2 0 -20 -5 -39z m74 -5 c3 -8 2 -12 -4 -9 -6 3 -10
10 -10 16 0 14 7 11 14 -7z m-87 -156 c-3 -8 -6 -5 -6 6 -1 11 2 17 5 13 3 -3
4 -12 1 -19z m44 -31 c-5 -5 -18 -7 -28 -3 -17 7 -17 8 0 17 9 6 17 18 18 27
0 12 3 9 10 -7 6 -16 6 -28 0 -34z m56 1 c-3 -7 -5 -2 -5 12 0 14 2 19 5 13 2
-7 2 -19 0 -25z m174 9 c-10 -9 -11 -8 -5 6 3 10 9 15 12 12 3 -3 0 -11 -7
-18z m-264 -49 c-3 -8 -6 -5 -6 6 -1 11 2 17 5 13 3 -3 4 -12 1 -19z m20 0
c-3 -8 -6 -5 -6 6 -1 11 2 17 5 13 3 -3 4 -12 1 -19z m169 -10 c-2 -18 -4 -36
-5 -40 -2 -12 -39 -9 -47 4 -5 7 -2 9 9 5 12 -4 14 -2 10 10 -4 10 -2 14 4 10
6 -4 14 4 17 18 9 35 15 31 12 -7z m17 -113 c-3 -9 -8 -14 -10 -11 -3 3 -2 9
2 15 9 16 15 13 8 -4z m61 -11 c3 -8 2 -12 -4 -9 -6 3 -10 10 -10 16 0 14 7
11 14 -7z m-187 -36 c-3 -8 -6 -5 -6 6 -1 11 2 17 5 13 3 -3 4 -12 1 -19z m70
0 c-3 -8 -6 -5 -6 6 -1 11 2 17 5 13 3 -3 4 -12 1 -19z m40 -30 c-2 -13 -4 -5
-4 17 -1 22 1 32 4 23 2 -10 2 -28 0 -40z m20 -5 c-3 -10 -5 -2 -5 17 0 19 2
27 5 18 2 -10 2 -26 0 -35z m20 10 c-3 -10 -5 -4 -5 12 0 17 2 24 5 18 2 -7 2
-21 0 -30z m-60 -10 c-3 -10 -5 -4 -5 12 0 17 2 24 5 18 2 -7 2 -21 0 -30z
m87 21 c3 -8 2 -12 -4 -9 -6 3 -10 10 -10 16 0 14 7 11 14 -7z m517 -21 c13
-16 12 -17 -3 -4 -10 7 -18 15 -18 17 0 8 8 3 21 -13z m11 -28 c3 0 10 -4 15
-9 5 -6 2 -6 -6 -1 -11 6 -13 4 -8 -9 5 -11 3 -15 -5 -10 -8 5 -9 2 -5 -9 9
-25 2 -21 -19 11 -15 23 -15 25 -1 13 20 -16 23 -1 5 18 -11 11 -10 12 2 5 8
-5 18 -9 22 -9z m71 -40 c-3 -8 -9 -15 -15 -15 -5 0 -7 -4 -4 -8 2 -4 -4 -8
-14 -9 -19 -2 -19 -1 0 20 11 11 20 25 20 29 0 5 4 7 10 3 5 -3 7 -12 3 -20z"/>
<path d="M823 3118 c-3 -6 -1 -8 5 -4 6 3 13 2 17 -4 9 -14 28 -13 23 2 -5 15
-36 19 -45 6z"/>
<path d="M807 3043 c-4 -3 -7 -11 -7 -17 0 -6 5 -5 12 2 6 6 9 14 7 17 -3 3
-9 2 -12 -2z"/>
<path d="M1775 3280 c-3 -5 1 -10 9 -10 9 0 16 5 16 10 0 6 -4 10 -9 10 -6 0
-13 -4 -16 -10z"/>
<path d="M885 3270 c-3 -6 1 -7 9 -4 18 7 21 14 7 14 -6 0 -13 -4 -16 -10z"/>
<path d="M1813 3274 c5 -5 39 -14 74 -19 13 -2 25 1 29 6 3 5 -5 10 -18 10
-13 1 -38 3 -56 5 -19 1 -32 0 -29 -2z"/>
<path d="M1933 3257 c3 -11 20 -15 80 -19 21 -1 40 -5 43 -9 2 -4 13 -6 24 -4
11 2 20 -2 20 -8 0 -8 3 -7 9 2 5 7 13 11 19 7 6 -3 13 -2 16 3 3 5 -24 14
-61 20 -121 18 -154 20 -150 8z"/>
<path d="M2053 3206 c1 -6 -2 -10 -8 -9 -25 4 -131 -166 -175 -278 -27 -70
-73 -232 -83 -291 -2 -13 -7 -30 -10 -38 -31 -76 -61 -283 -54 -365 6 -67 38
-163 59 -177 8 -6 -10 -7 -44 -4 -83 7 -72 -8 16 -23 88 -14 114 -5 165 56 45
54 123 317 107 358 -12 33 22 6 70 -55 59 -74 105 -109 219 -169 54 -28 98
-43 135 -47 51 -5 126 -23 193 -47 18 -6 27 -17 27 -31 0 -50 24 -103 65 -143
37 -38 48 -43 86 -43 28 0 58 8 83 24 21 13 47 21 57 19 48 -13 110 8 169 58
52 43 63 48 81 38 12 -6 36 -8 58 -4 60 11 94 8 142 -9 38 -14 54 -15 86 -7
60 16 93 46 93 84 -1 36 -24 75 -35 58 -3 -6 -2 -11 4 -11 6 0 7 -7 4 -17 -4
-9 -2 -14 3 -10 5 3 9 -7 8 -21 0 -20 -10 -33 -40 -49 -39 -23 -96 -34 -64
-13 13 9 13 10 0 10 -9 1 -5 6 10 15 25 14 25 15 -10 10 -27 -4 -30 -3 -15 4
l20 10 -20 0 c-17 1 -17 3 -5 11 11 7 11 10 2 10 -7 0 -10 5 -7 10 3 6 -4 10
-17 10 -17 1 -12 5 17 15 39 14 65 38 65 59 0 6 -5 4 -10 -4 -6 -9 -10 -10
-10 -3 0 22 23 26 37 8 10 -15 13 -15 13 -4 0 8 -4 19 -9 25 -10 10 -41 102
-41 118 1 6 10 -7 22 -29 41 -78 173 -251 266 -350 52 -55 101 -110 109 -122
17 -25 10 -43 -15 -43 -26 0 -80 -51 -87 -81 -5 -21 0 -35 24 -62 70 -79 227
-111 503 -104 201 5 246 14 291 58 25 25 29 35 24 66 -8 47 -30 78 -75 107
-57 36 -198 75 -298 82 -49 4 -95 11 -102 17 -8 6 -27 38 -44 71 -17 34 -40
75 -53 91 -12 17 -31 51 -43 77 -40 92 -164 298 -174 291 -7 -3 -8 -1 -4 5 9
15 -19 78 -111 246 -63 113 -86 146 -127 178 -55 44 -78 55 -146 69 -25 5 -83
19 -130 30 -47 11 -116 26 -155 34 -38 7 -82 18 -96 23 -47 18 -332 90 -420
106 -47 9 -123 28 -170 42 -97 29 -239 55 -254 46 -5 -4 8 -10 30 -13 22 -3
101 -22 175 -41 74 -20 171 -41 215 -47 44 -6 154 -32 245 -57 91 -24 194 -51
230 -60 36 -8 101 -26 145 -39 44 -13 110 -29 146 -35 84 -13 152 -42 173 -75
9 -14 23 -25 32 -25 8 0 18 -8 21 -17 4 -10 21 -41 39 -69 18 -29 34 -62 36
-75 2 -13 9 -23 15 -22 6 2 11 -5 10 -15 -1 -20 31 -72 45 -72 5 0 6 -4 3 -10
-3 -5 -1 -10 4 -10 6 0 11 -11 11 -24 0 -31 26 -92 55 -130 13 -17 25 -40 27
-50 1 -11 13 -29 25 -41 27 -28 74 -120 66 -129 -4 -3 -1 -6 6 -6 7 0 10 -4 7
-9 -4 -5 -3 -11 1 -13 5 -1 16 -19 25 -40 15 -32 15 -37 2 -42 -8 -3 -13 -2
-10 2 3 4 -4 13 -15 20 -12 8 -19 9 -19 1 0 -5 -4 -7 -10 -4 -5 3 -10 -3 -10
-15 0 -12 -4 -19 -9 -16 -5 4 -8 -2 -7 -11 2 -9 8 -19 14 -21 16 -5 15 -32 -1
-32 -12 0 -67 46 -67 57 0 3 9 3 19 0 13 -3 18 -1 14 9 -3 9 -11 10 -30 3 -13
-5 -25 -9 -27 -9 -1 0 -2 9 -3 20 -1 13 4 20 15 20 15 0 15 -2 2 -11 -12 -9
-11 -9 5 -4 49 17 58 18 50 5 -5 -9 -4 -11 3 -6 9 5 9 13 2 27 -6 10 -13 19
-16 19 -3 0 -3 -4 0 -9 3 -5 -1 -12 -9 -15 -16 -6 -58 28 -47 38 3 3 -1 6 -9
6 -8 1 -2 8 14 16 15 8 27 17 27 20 0 2 -9 0 -20 -6 -15 -8 -20 -8 -20 1 0 6
-9 9 -20 6 -18 -5 -25 3 -21 26 0 4 -5 7 -11 7 -7 0 6 9 30 20 23 10 42 21 42
24 0 3 -6 3 -13 0 -7 -2 -17 9 -25 28 -11 29 -10 35 5 46 16 12 15 12 -11 6
-21 -5 -27 -4 -22 5 4 7 0 11 -11 11 -14 0 -15 2 -5 9 21 13 -25 22 -54 11
-17 -7 -23 -6 -21 3 1 7 7 15 12 19 6 4 -5 8 -22 8 -23 0 -33 5 -33 15 0 8 8
15 18 16 9 1 -3 7 -28 14 -28 8 -38 14 -25 16 11 1 -11 5 -50 9 l-70 6 69 2
c55 2 72 -2 83 -15 8 -10 12 -12 8 -5 -3 6 -2 12 3 12 5 0 9 7 9 15 0 8 -5 11
-10 8 -6 -4 -8 0 -4 10 3 10 2 17 -4 17 -6 0 -8 4 -5 8 2 4 -11 6 -30 4 -26
-3 -34 -1 -34 12 0 10 9 16 23 17 21 1 21 1 -3 9 -16 5 -19 8 -8 9 9 1 20 6
24 13 4 7 3 8 -4 4 -7 -4 -28 -4 -48 0 -27 5 -32 9 -22 16 9 7 8 9 -8 5 -12
-2 -21 1 -21 8 0 7 8 10 18 8 14 -4 17 0 14 16 -2 11 0 23 6 26 14 9 11 27 -3
19 -7 -4 -4 3 7 17 11 13 16 21 11 17 -5 -4 -15 0 -23 10 -8 9 -12 12 -9 6 3
-7 -1 -14 -9 -18 -8 -3 -15 -2 -15 3 0 14 -44 21 -52 8 -5 -8 -8 -5 -9 8 l0
20 -10 -20 c-7 -15 -7 -11 -3 14 4 23 3 31 -5 27 -6 -4 -11 -1 -11 6 0 10 -2
10 -9 -1 -7 -11 -9 -11 -14 0 -4 11 -6 11 -6 1 -1 -7 6 -15 14 -18 8 -4 15
-14 15 -23 1 -9 7 -27 14 -40 18 -33 2 -70 -33 -77 -59 -12 -60 -12 -54 3 10
26 -31 -2 -47 -32 -11 -21 -15 -23 -22 -10 -5 8 -6 21 -3 28 4 6 -1 3 -9 -7
-9 -11 -16 -25 -16 -30 0 -6 -4 -5 -9 3 -7 12 -13 7 -27 -22 -14 -30 -22 -36
-38 -31 -12 3 -16 2 -10 -3 6 -4 9 -15 5 -23 -7 -16 -31 -25 -31 -11 0 12 -73
-14 -78 -28 -2 -6 -8 -9 -13 -5 -5 3 -9 -2 -9 -11 0 -9 4 -13 10 -10 5 3 7 0
4 -8 -2 -7 -11 -14 -18 -14 -8 0 -12 7 -8 15 3 10 1 13 -6 8 -7 -4 -10 4 -8
26 2 18 1 24 -1 14 -4 -16 -7 -17 -14 -5 -7 11 -9 11 -9 -3 0 -10 -5 -18 -11
-18 -5 0 -8 -4 -4 -9 3 -5 -5 -17 -17 -25 -12 -9 -19 -16 -15 -16 5 0 2 -7 -7
-15 -8 -8 -22 -15 -31 -15 -15 0 -15 -1 0 -16 9 -9 13 -19 9 -23 -4 -3 -9 0
-11 7 -3 6 -18 12 -33 12 -26 0 -29 -3 -27 -30 2 -32 6 -36 25 -20 8 7 9 7 3
-1 -5 -6 -8 -17 -7 -23 2 -6 1 -8 -1 -3 -3 4 -12 7 -20 7 -9 0 -13 6 -9 15 3
8 1 15 -5 15 -6 0 -9 -15 -8 -33 3 -36 -6 -57 -24 -56 -9 0 -9 2 1 6 14 6 17
63 2 63 -5 0 -10 5 -10 11 0 5 5 7 10 4 6 -3 10 -2 10 3 0 6 -7 13 -16 16 -9
4 -14 9 -11 13 3 3 0 18 -9 34 -8 16 -11 29 -6 29 4 0 14 -16 21 -36 10 -27
16 -33 22 -23 7 11 9 9 10 -6 0 -11 3 -15 5 -9 7 17 -15 66 -26 59 -5 -3 -10
-1 -10 4 0 6 -9 20 -20 31 l-20 20 0 -27 c0 -33 -7 -27 -14 11 -7 38 -16 45
-17 15 -1 -21 -2 -21 -9 6 -4 17 -8 22 -9 11 -1 -11 -6 -16 -15 -13 -10 4 -12
0 -8 -15 4 -15 7 -17 13 -6 7 10 9 9 9 -4 0 -11 5 -15 15 -12 8 4 15 2 15 -4
0 -6 3 -19 6 -29 3 -10 -2 -7 -10 7 -10 16 -15 19 -16 10 0 -13 -1 -13 -10 0
-9 13 -10 13 -11 0 0 -8 -5 -3 -11 13 -12 34 -49 39 -40 5 5 -20 6 -21 12 -3
6 18 7 17 12 -3 4 -12 2 -22 -4 -22 -6 0 -8 -6 -5 -13 4 -10 -3 -12 -24 -9
-16 2 -31 8 -34 12 -2 4 7 5 22 2 22 -4 25 -2 20 12 -4 10 -7 21 -7 24 0 4 -5
0 -10 -8 -6 -10 -10 -11 -10 -2 0 6 -8 12 -17 12 -13 0 -15 2 -5 8 7 5 10 17
6 28 -3 11 -2 14 3 8 15 -21 43 -12 43 13 0 15 -4 22 -11 17 -6 -3 -15 0 -20
7 -7 11 -9 10 -9 -4 0 -10 -4 -15 -10 -12 -5 3 -10 -3 -10 -14 0 -12 -4 -21
-9 -21 -5 0 -7 -10 -5 -22 3 -17 0 -15 -10 7 l-14 30 -5 -25 -5 -25 1 25 c2
18 7 24 20 22 13 -2 17 4 17 30 0 18 -4 29 -8 23 -4 -5 -13 -10 -19 -11 -28
-2 -32 -5 -36 -26 -4 -19 -5 -18 -7 7 l-2 30 -8 -30 -8 -30 -1 28 c0 16 -5 26
-10 23 -5 -4 -12 0 -14 6 -4 10 -6 10 -6 1 -1 -7 -6 -13 -12 -13 -5 0 -7 5 -4
10 3 6 -1 11 -9 11 -9 1 -22 2 -28 3 -7 1 -16 -5 -20 -14 -5 -11 -7 -9 -7 8
-1 13 -5 20 -11 17 -5 -3 -10 3 -10 14 0 12 -4 21 -10 21 -5 0 -10 12 -10 28
0 21 -2 24 -10 12 -7 -12 -10 -8 -10 15 0 23 -3 27 -10 15 -8 -13 -10 -12 -10
3 0 9 5 17 10 17 6 0 10 5 10 11 0 5 -4 8 -9 4 -5 -3 -12 -1 -16 5 -3 5 0 10
7 10 9 0 9 3 -2 10 -11 7 -17 5 -22 -8 -6 -15 -7 -14 -8 3 -1 14 -5 10 -15
-15 -7 -19 -14 -28 -14 -20 -1 12 -3 12 -10 2 -7 -11 -9 -11 -14 2 -7 18 -27
22 -27 5 0 -5 5 -7 10 -4 6 3 10 -3 10 -14 0 -10 6 -22 13 -24 7 -3 5 -6 -5
-6 -10 -1 -18 5 -18 13 0 17 -18 31 -28 21 -3 -3 0 -11 8 -16 12 -8 10 -10 -8
-6 -27 6 -43 -20 -21 -34 10 -6 10 -9 2 -9 -7 0 -13 -7 -13 -15 0 -9 -6 -12
-15 -9 -8 4 -15 16 -14 28 0 20 1 20 9 1 8 -16 9 -13 7 14 -1 21 -8 36 -17 38
-13 4 -13 3 0 -6 9 -6 10 -11 3 -11 -6 0 -14 -8 -16 -17 -3 -11 -5 -5 -6 11
-1 23 -4 27 -13 18 -15 -15 -28 -15 -28 -1 0 5 5 7 11 3 7 -4 10 -1 7 7 -3 8
-13 13 -22 13 -9 -1 -16 5 -16 13 0 8 5 11 11 7 6 -4 26 -10 43 -14 27 -6 32
-4 32 11 0 10 -7 21 -14 24 -10 3 -12 0 -8 -10 3 -9 0 -15 -9 -15 -18 0 -31
20 -13 21 7 0 3 5 -9 11 -13 6 -23 17 -23 24 0 7 -6 15 -12 17 -8 3 -6 6 5 6
9 1 17 -5 17 -13 0 -8 7 -16 15 -20 8 -3 15 -1 15 4 0 6 -5 10 -11 10 -6 0 -9
7 -5 15 3 9 0 15 -9 15 -8 0 -19 8 -24 18 -6 9 -11 13 -11 9 0 -14 -30 20 -30
35 0 10 -3 9 -10 -2 -7 -10 -8 -3 -5 25 4 30 3 35 -4 20 -9 -19 -10 -18 -10 5
-1 20 -3 22 -12 10 -8 -11 -9 -8 -4 13 4 21 3 27 -6 21 -9 -5 -10 1 -5 22 5
21 4 25 -4 14 -22 -33 -2 47 29 115 18 39 33 74 34 78 1 4 19 26 40 48 40 43
45 56 23 56 -8 0 -14 -5 -13 -11z m-36 -498 c-3 -8 -6 -5 -6 6 -1 11 2 17 5
13 3 -3 4 -12 1 -19z m-117 -62 c0 -3 -4 -8 -10 -11 -5 -3 -10 -1 -10 4 0 6 5
11 10 11 6 0 10 -2 10 -4z m357 -78 c-3 -7 -5 -2 -5 12 0 14 2 19 5 13 2 -7 2
-19 0 -25z m20 -5 c-3 -10 -5 -4 -5 12 0 17 2 24 5 18 2 -7 2 -21 0 -30z m-77
3 c0 -2 -9 -2 -20 1 -11 3 -20 9 -20 15 0 5 9 4 20 -2 11 -6 20 -12 20 -14z
m-210 4 c0 -5 -4 -10 -10 -10 -5 0 -10 5 -10 10 0 6 5 10 10 10 6 0 10 -4 10
-10z m1467 -12 c-3 -8 -6 -5 -6 6 -1 11 2 17 5 13 3 -3 4 -12 1 -19z m-127
-17 c-5 -11 -15 -23 -21 -27 -6 -3 -3 5 6 20 20 30 30 35 15 7z m-1443 -13
c-3 -8 -6 -5 -6 6 -1 11 2 17 5 13 3 -3 4 -12 1 -19z m338 12 c13 -5 14 -9 5
-9 -8 0 -24 4 -35 9 -13 5 -14 9 -5 9 8 0 24 -4 35 -9z m32 -12 c-3 -8 -6 -5
-6 6 -1 11 2 17 5 13 3 -3 4 -12 1 -19z m-340 -10 c-3 -8 -6 -5 -6 6 -1 11 2
17 5 13 3 -3 4 -12 1 -19z m31 -24 c-3 -14 -5 -12 -10 9 -3 19 -2 25 4 19 6
-6 8 -18 6 -28z m276 23 c3 3 6 -3 6 -15 0 -12 -4 -22 -9 -22 -5 0 -12 -8 -14
-17 -3 -11 -5 -7 -6 10 -1 19 3 26 11 21 7 -4 8 -3 4 4 -4 7 -14 12 -22 12 -8
0 -14 5 -14 10 0 7 6 7 19 1 10 -6 21 -7 25 -4z m83 -24 c-3 -10 -5 -4 -5 12
0 17 2 24 5 18 2 -7 2 -21 0 -30z m-340 -5 c-3 -7 -5 -2 -5 12 0 14 2 19 5 13
2 -7 2 -19 0 -25z m1304 -2 c-14 -36 -22 -33 -9 5 6 16 12 28 14 26 3 -2 0
-16 -5 -31z m-1361 -12 c0 -7 -7 -15 -16 -18 -10 -4 -13 -2 -7 7 4 6 6 21 5
32 -2 17 -1 17 7 5 6 -8 11 -20 11 -26z m95 19 c-3 -8 -5 -22 -5 -30 0 -22 -6
-14 -13 18 -5 19 -3 26 9 26 9 0 13 -6 9 -14z m1303 -28 c-12 -24 -23 -43 -26
-41 -4 5 36 86 43 86 3 0 -5 -20 -17 -45z m139 10 c0 -8 -4 -15 -9 -15 -10 0
-11 14 -1 23 9 10 10 9 10 -8z m200 -1 c-3 -3 -12 -4 -19 -1 -8 3 -5 6 6 6 11
1 17 -2 13 -5z m-1690 -26 c-3 -8 -6 -5 -6 6 -1 11 2 17 5 13 3 -3 4 -12 1
-19z m20 0 c-3 -8 -6 -5 -6 6 -1 11 2 17 5 13 3 -3 4 -12 1 -19z m213 18 c0
-3 -4 -8 -10 -11 -5 -3 -10 -1 -10 4 0 6 5 11 10 11 6 0 10 -2 10 -4z m1363
-3 c-7 -2 -21 -2 -30 0 -10 3 -4 5 12 5 17 0 24 -2 18 -5z m104 -9 c-3 -3 -12
-4 -19 -1 -8 3 -5 6 6 6 11 1 17 -2 13 -5z m-1720 -26 c-3 -8 -6 -5 -6 6 -1
11 2 17 5 13 3 -3 4 -12 1 -19z m429 -3 c-14 -14 -16 -14 -16 -2 0 9 6 17 13
20 19 7 21 -1 3 -18z m121 3 c-3 -8 -6 -5 -6 6 -1 11 2 17 5 13 3 -3 4 -12 1
-19z m-590 -20 c-3 -8 -6 -5 -6 6 -1 11 2 17 5 13 3 -3 4 -12 1 -19z m90 0
c-3 -8 -6 -5 -6 6 -1 11 2 17 5 13 3 -3 4 -12 1 -19z m280 0 c-3 -8 -6 -5 -6
6 -1 11 2 17 5 13 3 -3 4 -12 1 -19z m-268 -98 c-2 -12 -38 77 -38 95 0 11 9
-5 19 -35 11 -30 20 -57 19 -60z m1111 106 c0 -3 -4 -8 -10 -11 -5 -3 -10 -1
-10 4 0 6 5 11 10 11 6 0 10 -2 10 -4z m437 -2 c-3 -3 -12 -4 -19 -1 -8 3 -5
6 6 6 11 1 17 -2 13 -5z m-1100 -36 c-3 -7 -5 -2 -5 12 0 14 2 19 5 13 2 -7 2
-19 0 -25z m864 23 c5 8 9 9 9 3 0 -5 -6 -18 -12 -27 -12 -15 -13 -14 -14 10
-1 16 1 22 3 14 5 -11 7 -11 14 0z m-177 -31 c-10 -16 -20 -28 -22 -26 -4 5
28 56 35 56 2 0 -4 -13 -13 -30z m197 7 c-10 -9 -11 -8 -5 6 3 10 9 15 12 12
3 -3 0 -11 -7 -18z m212 16 c-7 -2 -19 -2 -25 0 -7 3 -2 5 12 5 14 0 19 -2 13
-5z m80 0 c-7 -2 -19 -2 -25 0 -7 3 -2 5 12 5 14 0 19 -2 13 -5z m-1619 -19
c3 -8 2 -12 -4 -9 -6 3 -10 10 -10 16 0 14 7 11 14 -7z m393 -16 c-3 -8 -6 -5
-6 6 -1 11 2 17 5 13 3 -3 4 -12 1 -19z m656 4 c4 9 6 9 6 1 2 -23 -18 -23
-29 -1 -10 21 -10 22 3 5 11 -14 16 -15 20 -5z m510 11 c-7 -2 -21 -2 -30 0
-10 3 -4 5 12 5 17 0 24 -2 18 -5z m75 0 c-10 -2 -26 -2 -35 0 -10 3 -2 5 17
5 19 0 27 -2 18 -5z m-1701 -25 c-3 -8 -6 -5 -6 6 -1 11 2 17 5 13 3 -3 4 -12
1 -19z m610 0 c-3 -8 -6 -5 -6 6 -1 11 2 17 5 13 3 -3 4 -12 1 -19z m655 -2
c6 4 6 -2 -1 -15 -13 -24 -23 -29 -15 -7 3 8 1 17 -5 21 -6 3 -11 12 -11 18 0
7 5 4 11 -6 6 -9 15 -15 21 -11z m161 11 c7 3 10 4 7 0 -3 -3 -8 -5 -11 -4 -3
1 -14 -5 -24 -13 -17 -14 -17 -14 -4 8 8 12 15 18 17 12 2 -6 9 -7 15 -3z
m-1466 -19 c-3 -8 -6 -5 -6 6 -1 11 2 17 5 13 3 -3 4 -12 1 -19z m1415 5 c-12
-21 -39 -26 -39 -7 0 17 17 19 17 2 0 -7 5 -5 11 5 5 9 12 17 15 17 3 0 1 -8
-4 -17z m338 8 c0 -5 8 -12 18 -14 9 -3 -1 -5 -23 -5 -22 0 -31 3 -20 6 l20 5
-20 8 c-19 7 -19 8 3 8 12 1 22 -3 22 -8z m-249 -10 c5 8 9 9 9 3 0 -5 -7 -19
-16 -30 -8 -10 -13 -13 -9 -6 10 19 -13 14 -24 -5 -8 -14 -11 -15 -11 -3 0 10
-7 7 -21 -10 l-21 -25 18 32 c11 20 21 28 25 21 4 -7 12 -2 20 13 8 16 14 20
17 10 4 -11 6 -11 13 0z m167 2 c-10 -2 -28 -2 -40 0 -13 2 -5 4 17 4 22 1 32
-1 23 -4z m-1678 -38 c0 -5 -5 -3 -10 5 -5 8 -10 20 -10 25 0 6 5 3 10 -5 5
-8 10 -19 10 -25z m743 -6 c3 -12 1 -17 -6 -12 -7 4 -8 0 -4 -11 4 -10 3 -15
-4 -11 -5 4 -7 15 -4 26 4 13 2 19 -9 19 -9 0 -16 4 -16 9 0 17 38 -1 43 -20z
m476 -24 c-43 -58 -53 -66 -42 -38 5 11 3 14 -6 8 -10 -6 -11 -3 -2 14 14 25
22 28 15 4 -3 -10 11 1 32 25 51 59 53 53 3 -13z m481 51 c0 -8 -51 -13 -56
-5 -3 5 9 9 25 9 17 0 31 -2 31 -4z m-420 -9 c0 -2 -10 -12 -22 -23 l-23 -19
19 23 c18 21 26 27 26 19z m303 -11 c3 -8 0 -17 -8 -19 -11 -5 -13 6 -6 31 2
6 9 0 14 -12z m226 10 c-2 -2 -33 -6 -69 -9 -39 -3 -55 -2 -40 3 25 8 117 13
109 6z m-1869 -41 c0 -5 -5 -3 -10 5 -5 8 -10 20 -10 25 0 6 5 3 10 -5 5 -8
10 -19 10 -25z m160 0 c0 -5 -5 -3 -10 5 -5 8 -10 20 -10 25 0 6 5 3 10 -5 5
-8 10 -19 10 -25z m667 13 c-3 -8 -6 -5 -6 6 -1 11 2 17 5 13 3 -3 4 -12 1
-19z m246 15 c-7 -2 -19 -2 -25 0 -7 3 -2 5 12 5 14 0 19 -2 13 -5z m380 -10
c-3 -7 -6 -13 -8 -13 -2 0 -5 6 -8 13 -3 8 1 14 8 14 7 0 11 -6 8 -14z m15
-18 c-6 -14 -13 -23 -15 -21 -5 5 15 46 22 46 3 0 -1 -11 -7 -25z m-701 -7
c-3 -8 -6 -5 -6 6 -1 11 2 17 5 13 3 -3 4 -12 1 -19z m553 -8 c-12 -17 -26
-28 -31 -24 -5 3 -8 2 -7 -3 2 -4 0 -8 -3 -8 -4 0 -17 -9 -30 -20 -16 -13 -12
-6 10 23 36 46 43 51 35 25 -3 -10 4 -6 16 10 29 37 37 35 10 -3z m480 26 c0
-2 -13 -6 -30 -8 -16 -3 -30 -1 -30 4 0 4 14 8 30 8 17 0 30 -2 30 -4z m-1716
-56 c5 -17 4 -20 -2 -10 -5 8 -13 26 -16 40 -5 17 -4 20 2 10 5 -8 13 -26 16
-40z m853 28 c-3 -8 -6 -5 -6 6 -1 11 2 17 5 13 3 -3 4 -12 1 -19z m-814 -8
c3 -13 1 -18 -6 -13 -10 6 -8 -5 8 -52 4 -12 1 -11 -8 5 -18 32 -33 82 -18 60
9 -13 11 -13 11 3 0 23 6 22 13 -3z m1532 11 c3 -5 0 -13 -7 -17 -6 -4 -14 -2
-16 4 -2 7 -9 9 -14 6 -7 -4 -8 -2 -4 4 9 14 33 16 41 3z m148 2 c-7 -2 -21
-2 -30 0 -10 3 -4 5 12 5 17 0 24 -2 18 -5z m-1823 -48 c0 -5 -5 -3 -10 5 -5
8 -10 20 -10 25 0 6 5 3 10 -5 5 -8 10 -19 10 -25z m896 8 c-9 -9 -66 -11 -71
-2 -3 4 4 6 15 4 11 -2 20 0 20 5 0 4 9 6 20 3 12 -3 19 -8 16 -10z m463 -4
c-5 -10 -15 -21 -22 -25 -9 -5 -9 -4 1 7 6 7 12 18 12 24 -1 5 -15 -6 -32 -25
-17 -19 -27 -28 -23 -20 14 27 45 57 60 57 10 0 11 -5 4 -18z m316 2 c-3 -6
-14 -11 -23 -11 -15 1 -15 2 2 15 21 16 32 13 21 -4z m-1595 -36 c0 -5 -5 -3
-10 5 -5 8 -10 20 -10 25 0 6 5 3 10 -5 5 -8 10 -19 10 -25z m-42 0 c-3 -3 -9
2 -12 12 -6 14 -5 15 5 6 7 -7 10 -15 7 -18z m1989 19 c-3 -3 -12 -4 -19 -1
-8 3 -5 6 6 6 11 1 17 -2 13 -5z m-1997 -52 c0 -17 23 -10 28 9 3 11 2 11 -7
-1 -13 -18 -15 -1 -2 18 7 11 9 11 14 -1 3 -9 14 -14 24 -12 10 2 21 4 25 4 4
1 5 9 2 19 -5 13 -4 14 4 3 7 -9 5 -25 -5 -48 -9 -23 -10 -32 -3 -28 20 12 -5
-27 -34 -54 -14 -13 -39 -25 -56 -26 -17 -1 -28 0 -25 3 2 3 -1 14 -7 26 -15
26 -23 68 -9 47 7 -11 13 -8 27 14 14 22 15 31 6 46 -17 27 -15 37 3 13 8 -10
15 -25 15 -32z m67 26 c-3 -8 -6 -5 -6 6 -1 11 2 17 5 13 3 -3 4 -12 1 -19z
m790 16 c-3 -3 -12 -4 -19 -1 -8 3 -5 6 6 6 11 1 17 -2 13 -5z m403 3 c0 -2
-12 -14 -27 -28 l-28 -24 24 28 c23 25 31 32 31 24z m386 -8 c3 -6 0 -15 -7
-20 -24 -15 -34 -10 -13 7 18 14 18 15 -6 9 -19 -5 -22 -4 -10 4 19 14 27 14
36 0z m271 -5 c-3 -3 -12 -4 -19 -1 -8 3 -5 6 6 6 11 1 17 -2 13 -5z m-1963
-30 c3 -8 2 -12 -4 -9 -6 3 -10 10 -10 16 0 14 7 11 14 -7z m1036 -10 c-8 -8
-23 -20 -34 -25 -13 -7 -9 -1 9 15 34 29 43 33 25 10z m20 -8 c0 -2 -8 -10
-17 -17 -16 -13 -17 -12 -4 4 13 16 21 21 21 13z m857 -2 c-3 -3 -12 -4 -19
-1 -8 3 -5 6 6 6 11 1 17 -2 13 -5z m-537 -18 c0 -2 -8 -10 -17 -17 -16 -13
-17 -12 -4 4 13 16 21 21 21 13z m647 -2 c-3 -3 -12 -4 -19 -1 -8 3 -5 6 6 6
11 1 17 -2 13 -5z m-937 -8 c0 -2 -19 -19 -42 -36 l-43 -32 40 36 c40 36 45
39 45 32z m-50 -10 c0 -2 -8 -10 -17 -17 -16 -13 -17 -12 -4 4 13 16 21 21 21
13z m913 -3 c-7 -2 -21 -2 -30 0 -10 3 -4 5 12 5 17 0 24 -2 18 -5z m75 0
c-10 -2 -26 -2 -35 0 -10 3 -2 5 17 5 19 0 27 -2 18 -5z m-391 -9 c-3 -3 -12
-4 -19 -1 -8 3 -5 6 6 6 11 1 17 -2 13 -5z m386 -11 c-18 -2 -48 -2 -65 0 -18
2 -4 4 32 4 36 0 50 -2 33 -4z m-968 -29 c-26 -20 -55 -36 -55 -30 0 5 63 46
70 46 3 -1 -4 -8 -15 -16z m928 9 c-7 -2 -21 -2 -30 0 -10 3 -4 5 12 5 17 0
24 -2 18 -5z m-863 -7 c0 -2 -8 -10 -17 -17 -16 -13 -17 -12 -4 4 13 16 21 21
21 13z m533 -3 c-7 -2 -21 -2 -30 0 -10 3 -4 5 12 5 17 0 24 -2 18 -5z m377
-12 c0 -5 -9 -7 -20 -4 -11 3 -20 7 -20 9 0 2 9 4 20 4 11 0 20 -4 20 -9z
m-980 -16 c0 -2 -10 -9 -22 -15 -22 -11 -22 -10 -4 4 21 17 26 19 26 11z m70
2 c0 -2 -10 -12 -22 -23 l-23 -19 19 23 c18 21 26 27 26 19z m210 -1 c0 -3 -4
-8 -10 -11 -5 -3 -10 -1 -10 4 0 6 5 11 10 11 6 0 10 -2 10 -4z m-265 -16 c-3
-5 -16 -15 -28 -21 -19 -9 -19 -8 3 10 28 23 34 26 25 11z m1215 -11 c7 -11 9
-27 6 -35 -3 -8 -2 -12 3 -9 5 3 12 1 16 -5 3 -5 0 -10 -7 -10 -11 0 -10 -2 0
-9 10 -6 4 -10 -20 -15 -23 -5 -29 -9 -20 -15 10 -6 5 -11 -17 -19 -18 -7 -29
-7 -26 -2 4 6 -2 10 -12 11 -12 0 -14 2 -4 6 11 5 11 7 0 14 -9 6 -3 7 16 3
20 -3 37 0 50 11 17 14 17 16 3 11 -10 -3 -25 -3 -34 1 -13 5 -13 8 -2 15 9 7
6 8 -10 5 -18 -4 -21 -3 -12 8 8 10 8 15 -1 21 -9 5 -7 11 6 21 27 19 53 16
65 -8z m-1301 -23 c11 -14 6 -15 -27 -7 -4 1 8 21 12 21 2 0 9 -6 15 -14z
m1138 -22 c-3 -3 -12 -4 -19 -1 -8 3 -5 6 6 6 11 1 17 -2 13 -5z m73 -13 c0
-5 -6 -11 -13 -14 -8 -3 -14 1 -14 9 0 8 6 14 14 14 7 0 13 -4 13 -9z m-1147
-8 c-7 -2 -19 -2 -25 0 -7 3 -2 5 12 5 14 0 19 -2 13 -5z m1076 -13 c-8 -6 -5
-9 12 -12 24 -4 24 -4 -3 -9 -16 -4 -26 -2 -25 5 1 5 -3 10 -10 11 -7 0 -17 5
-22 10 -8 8 0 10 25 7 23 -3 32 -7 23 -12z m59 -47 c-10 -2 -28 -2 -40 0 -13
2 -5 4 17 4 22 1 32 -1 23 -4z m206 -26 c29 -38 32 -59 12 -76 -11 -9 -20 -9
-35 -2 -27 15 -36 14 -23 -2 15 -17 -30 -21 -75 -6 -43 14 -32 33 15 25 33 -5
35 6 2 17 -8 2 -4 3 10 1 14 -1 34 -6 45 -9 11 -4 16 -3 10 2 -34 28 -40 81
-8 69 8 -3 11 -1 8 4 -16 26 17 6 39 -23z m-211 6 c-7 -2 -19 -2 -25 0 -7 3
-2 5 12 5 14 0 19 -2 13 -5z m57 -57 c0 -3 -4 -8 -10 -11 -5 -3 -10 -1 -10 4
0 6 5 11 10 11 6 0 10 -2 10 -4z"/>
<path d="M1846 2122 c-3 -5 1 -9 9 -9 8 0 12 4 9 9 -3 4 -7 8 -9 8 -2 0 -6 -4
-9 -8z"/>
<path d="M4018 1883 c7 -3 16 -2 19 1 4 3 -2 6 -13 5 -11 0 -14 -3 -6 -6z"/>
<path d="M855 3200 c-3 -5 -12 -7 -19 -4 -8 3 -17 0 -21 -5 -3 -6 -10 -9 -15
-6 -5 3 -12 0 -16 -6 -4 -8 -3 -9 4 -5 8 5 12 -1 12 -14 0 -12 5 -18 10 -15 6
4 7 11 4 17 -4 6 -3 8 3 5 6 -4 21 5 33 18 13 14 21 25 17 25 -3 0 -8 -4 -12
-10z"/>
<path d="M2100 3194 c36 -8 100 -9 100 -2 0 5 -26 7 -57 7 -32 -1 -51 -3 -43
-5z"/>
<path d="M2000 2821 c0 -6 4 -13 10 -16 6 -3 7 1 4 9 -7 18 -14 21 -14 7z"/>
<path d="M506 2775 c-9 -26 -7 -32 5 -12 6 10 9 21 6 23 -2 3 -7 -2 -11 -11z"/>
<path d="M3492 2745 c0 -16 2 -22 5 -12 2 9 2 23 0 30 -3 6 -5 -1 -5 -18z"/>
<path d="M2290 2752 c0 -7 -4 -11 -9 -8 -4 3 -6 -6 -3 -19 2 -14 0 -25 -7 -25
-6 0 -8 8 -4 18 4 10 -4 6 -19 -11 -18 -19 -28 -24 -31 -15 -4 11 -6 11 -6 0
-1 -10 -6 -10 -21 -2 -11 6 -20 7 -20 1 0 -5 11 -12 25 -15 14 -4 25 -13 25
-21 0 -27 20 -15 21 13 l1 27 8 -30 c6 -24 8 -26 9 -7 1 14 7 22 19 22 9 0 23
4 30 9 11 7 11 11 -2 24 -9 8 -12 17 -6 19 6 2 6 8 0 18 -7 11 -10 11 -10 2z"/>
<path d="M3512 2735 c0 -16 2 -22 5 -12 2 9 2 23 0 30 -3 6 -5 -1 -5 -18z"/>
<path d="M2097 2699 c4 -13 9 -17 15 -11 11 11 3 32 -12 32 -4 0 -6 -9 -3 -21z"/>
<path d="M2128 2673 c7 -3 16 -2 19 1 4 3 -2 6 -13 5 -11 0 -14 -3 -6 -6z"/>
<path d="M2141 2632 c1 -17 3 -20 6 -9 2 9 9 15 14 12 5 -4 9 -2 9 3 0 6 -7
12 -15 16 -11 4 -15 -2 -14 -22z"/>
<path d="M3210 2590 c-23 -24 -21 -58 3 -52 12 3 15 7 7 12 -15 9 -15 21 0 30
7 4 11 12 9 17 -2 5 -11 2 -19 -7z"/>
<path d="M3306 2573 c-6 -14 -5 -15 5 -6 7 7 10 15 7 18 -3 3 -9 -2 -12 -12z"/>
<path d="M3153 2547 c-3 -6 -1 -7 5 -3 5 3 12 1 14 -6 3 -8 6 -7 10 3 7 17
-19 22 -29 6z"/>
<path d="M3051 2454 c0 -11 3 -14 6 -6 3 7 2 16 -1 19 -3 4 -6 -2 -5 -13z"/>
<path d="M2672 2435 c0 -16 2 -22 5 -12 2 9 2 23 0 30 -3 6 -5 -1 -5 -18z"/>
<path d="M3688 2373 c6 -2 18 -2 25 0 6 3 1 5 -13 5 -14 0 -19 -2 -12 -5z"/>
<path d="M1604 2280 c-6 -42 -10 -50 -28 -50 -11 0 -27 -4 -35 -9 -16 -10 -17
-74 -2 -79 6 -2 9 -8 5 -13 -3 -5 2 -9 10 -9 9 0 16 -3 16 -7 0 -14 53 -33 89
-33 24 0 32 3 22 9 -11 7 -11 9 0 14 10 4 10 6 2 6 -7 1 -13 12 -13 25 0 13
-11 31 -24 42 -14 10 -23 21 -20 26 3 4 0 8 -6 8 -8 0 -9 19 -4 60 8 72 -3 81
-12 10z m-24 -64 c0 -2 -7 -7 -16 -10 -8 -3 -12 -2 -9 4 6 10 25 14 25 6z m55
-46 c18 -19 17 -20 -7 -20 -14 0 -33 9 -43 20 -18 19 -17 20 7 20 14 0 33 -9
43 -20z m2 -35 c13 3 23 1 23 -5 0 -20 -49 -10 -77 16 l-28 26 30 -22 c19 -14
37 -19 52 -15z"/>
<path d="M3835 2177 c-15 -12 -16 -15 -4 -22 8 -5 10 -4 6 0 -4 5 3 15 15 22
13 7 18 12 12 13 -5 0 -18 -6 -29 -13z"/>
<path d="M3863 2155 c0 -7 6 -11 14 -8 7 3 13 6 13 8 0 2 -6 5 -13 8 -8 3 -14
-1 -14 -8z"/>
<path d="M610 2110 c0 -5 5 -10 10 -10 6 0 10 5 10 10 0 6 -4 10 -10 10 -5 0
-10 -4 -10 -10z"/>
<path d="M3494 2104 c-18 -14 -18 -15 4 -4 12 6 22 13 22 15 0 8 -5 6 -26 -11z"/>
<path d="M3944 2094 c-18 -14 -18 -15 4 -4 12 6 22 13 22 15 0 8 -5 6 -26 -11z"/>
<path d="M385 2080 c3 -5 8 -10 11 -10 2 0 4 5 4 10 0 6 -5 10 -11 10 -5 0 -7
-4 -4 -10z"/>
<path d="M3954 2074 c-18 -14 -18 -15 4 -4 12 6 22 13 22 15 0 8 -5 6 -26 -11z"/>
<path d="M3510 2065 c-14 -8 -20 -14 -14 -15 5 0 19 7 30 15 24 18 16 19 -16
0z"/>
<path d="M440 2060 c0 -6 7 -10 15 -10 8 0 15 2 15 4 0 2 -7 6 -15 10 -8 3
-15 1 -15 -4z"/>
<path d="M1640 2051 c0 -5 7 -11 15 -15 9 -3 15 0 15 9 0 8 -7 15 -15 15 -8 0
-15 -4 -15 -9z"/>
</g>
</svg>
