<?xml version="1.0" standalone="no"?>
<!DOCTYPE svg PUBLIC "-//W3C//DTD SVG 20010904//EN"
 "http://www.w3.org/TR/2001/REC-SVG-20010904/DTD/svg10.dtd">
<svg version="1.0" xmlns="http://www.w3.org/2000/svg"
 width="500.000000pt" height="500.000000pt" viewBox="0 0 500.000000 500.000000"
 preserveAspectRatio="xMidYMid meet">

<g transform="translate(0.000000,500.000000) scale(0.100000,-0.100000)"
fill="#000000" stroke="none">
<path d="M2338 4173 c-9 -10 -18 -26 -19 -36 -2 -10 -8 -17 -14 -17 -5 1 -9 6
-7 11 4 17 -13 9 -26 -12 -8 -12 -19 -18 -28 -15 -8 3 -14 0 -13 -7 3 -24 -1
-38 -10 -32 -5 3 -12 1 -16 -5 -3 -6 4 -10 17 -10 22 -1 22 -1 4 -15 -11 -8
-16 -15 -12 -15 5 0 3 -6 -3 -14 -10 -12 -5 -14 29 -12 44 2 47 -1 24 -30 -15
-18 -15 -18 -10 0 5 13 2 17 -9 12 -8 -3 -15 -1 -15 3 0 5 -13 4 -30 -2 -32
-12 -41 -30 -12 -25 10 2 16 -2 14 -11 -2 -9 5 -12 23 -9 14 3 25 1 25 -6 0
-6 10 2 23 17 20 26 23 27 42 12 19 -15 19 -15 -7 -9 -22 5 -28 2 -28 -10 0
-9 3 -15 8 -15 39 6 47 -2 49 -49 2 -26 8 -73 15 -104 11 -52 15 -58 38 -59
14 -1 -9 -8 -50 -15 -179 -34 -270 -57 -270 -71 0 -7 -4 -13 -10 -13 -5 0 -10
-5 -10 -11 0 -7 12 -8 33 -4 25 5 29 4 17 -5 -12 -9 -6 -10 25 -5 22 4 54 9
70 11 l30 3 -31 -8 c-17 -4 -51 -17 -75 -29 -24 -12 -86 -35 -137 -52 -51 -17
-101 -34 -110 -37 -15 -6 -15 -4 1 14 18 20 18 21 -14 18 -27 -2 -35 -8 -46
-36 -8 -21 -11 -25 -8 -9 2 14 5 30 5 37 0 6 20 18 45 26 l45 16 1 -27 c0 -15
3 -21 6 -14 2 6 16 12 29 12 18 0 24 5 24 21 0 15 -5 19 -16 15 -8 -3 -12 -2
-9 4 3 5 20 12 38 15 18 4 39 16 46 27 12 19 11 20 -28 16 -23 -2 -41 0 -41 5
0 5 -6 7 -12 4 -7 -2 -12 -10 -11 -18 2 -9 -21 -25 -62 -43 -54 -23 -67 -33
-74 -60 -5 -17 -10 -25 -10 -18 -2 21 -21 13 -21 -9 0 -12 -4 -17 -11 -14 -6
4 -8 13 -5 21 3 8 0 14 -6 14 -6 0 -3 9 7 20 14 15 15 20 4 20 -9 0 -10 3 -3
8 13 8 25 44 53 152 11 41 23 85 26 98 6 17 3 22 -10 22 -9 0 -19 -8 -22 -19
-3 -12 -14 -18 -29 -18 -28 0 -56 -21 -48 -35 3 -5 12 -1 20 9 7 10 14 13 14
6 0 -7 9 -9 23 -5 21 5 21 5 5 -12 -10 -10 -18 -25 -18 -34 0 -15 2 -15 10 -2
9 13 10 13 10 0 0 -8 -5 -22 -10 -30 -7 -11 -10 -11 -10 -2 0 7 -4 11 -9 7 -5
-3 -11 3 -13 12 -2 10 -4 -4 -4 -30 -1 -26 -6 -53 -13 -60 -11 -10 -12 -6 -6
21 11 53 -2 36 -25 -33 -12 -36 -24 -65 -27 -65 -3 0 -3 9 0 21 4 16 3 18 -8
9 -19 -16 -27 -53 -9 -46 9 4 14 -2 14 -15 0 -16 4 -19 18 -14 50 20 48 20 33
1 -8 -10 -31 -26 -50 -37 -20 -10 -56 -37 -81 -60 -43 -39 -44 -41 -16 -34 16
3 38 17 48 31 11 13 24 22 28 19 5 -3 17 6 26 20 9 14 19 23 22 21 2 -3 13 5
23 17 21 25 23 20 9 -17 -5 -14 -16 -26 -24 -26 -8 0 -19 -15 -25 -32 -8 -23
-14 -29 -20 -20 -5 9 -17 5 -47 -16 -41 -31 -82 -72 -84 -84 -2 -17 -19 -52
-21 -43 -6 36 5 152 22 219 20 82 15 126 -7 62 -28 -81 -39 -239 -26 -397 14
-166 31 -233 99 -384 95 -210 159 -326 177 -319 15 6 62 -53 52 -63 -8 -8 -35
27 -36 45 0 11 -20 18 -20 7 0 -17 43 -70 57 -70 16 0 112 -129 113 -152 0 -6
-6 -14 -12 -16 -7 -3 -3 -6 10 -6 20 -1 22 3 16 22 -3 12 -10 27 -15 33 -5 6
-6 13 -3 17 9 9 34 -4 34 -18 0 -7 7 -19 17 -26 15 -13 15 -12 5 7 -6 12 -8
24 -5 28 3 3 2 6 -4 6 -5 0 -15 11 -21 25 -12 26 -35 36 -26 10 10 -25 -13
-17 -34 12 -38 55 -37 97 1 58 9 -9 13 -24 10 -37 -6 -22 -5 -22 14 -6 18 17
21 16 60 -25 22 -23 54 -72 72 -109 35 -75 44 -84 61 -63 10 12 10 15 -2 15
-13 0 -55 66 -47 74 2 2 26 -24 53 -57 28 -36 46 -52 41 -38 l-7 24 26 -19
c25 -19 35 -44 16 -44 -5 0 -10 -8 -10 -17 0 -15 2 -15 14 2 13 18 17 16 67
-33 30 -28 60 -52 67 -52 6 0 12 -4 12 -9 0 -5 19 -30 43 -54 23 -25 48 -54
55 -64 26 -37 73 -145 70 -161 -3 -17 -28 -29 -28 -14 0 15 -82 164 -87 159
-2 -3 14 -41 36 -86 44 -87 46 -91 32 -91 -5 0 -30 39 -55 87 -25 49 -62 115
-81 148 -19 33 -40 72 -46 87 -12 31 -34 42 -57 28 -16 -9 -16 -9 0 -10 10 0
15 -5 12 -13 -5 -14 64 -153 98 -196 10 -13 18 -29 18 -35 0 -6 16 -35 35 -65
38 -60 37 -84 0 -36 -13 16 -27 27 -30 23 -3 -3 1 -13 10 -21 19 -19 19 -31 1
-46 -12 -10 -17 -8 -25 8 -14 26 -14 34 2 25 7 -4 9 -3 4 2 -5 5 -13 9 -17 9
-16 0 -92 116 -86 131 3 8 1 12 -4 9 -5 -3 -22 15 -37 41 -16 27 -38 59 -50
71 -13 13 -23 28 -23 32 0 5 -7 15 -17 22 -9 8 -25 33 -35 56 -10 23 -25 49
-34 58 -14 13 -13 15 5 15 25 0 27 13 6 30 -8 6 -14 15 -13 18 2 21 -4 32 -17
32 -8 0 -15 8 -16 18 0 10 -3 12 -6 4 -2 -7 5 -29 17 -48 35 -60 15 -52 -41
16 -12 14 -18 18 -16 9 3 -9 1 -21 -5 -27 -6 -6 -6 -12 1 -16 6 -4 11 -1 11 6
1 19 23 -23 26 -48 2 -18 42 -93 61 -114 2 -2 9 2 14 10 8 12 9 9 7 -10 -2
-17 1 -24 11 -22 14 3 31 -16 53 -58 7 -14 30 -49 51 -77 24 -32 37 -59 33
-68 -3 -9 -2 -14 3 -11 5 3 15 -2 22 -11 10 -12 10 -14 2 -9 -7 4 -13 2 -13
-3 0 -6 6 -11 14 -11 21 0 87 -110 80 -133 -3 -10 -1 -24 6 -32 13 -15 50
-164 50 -201 0 -26 -18 -31 -40 -11 -8 6 -5 0 8 -14 12 -14 22 -28 22 -32 0
-4 -19 -16 -42 -28 -44 -22 -78 -51 -78 -67 0 -4 18 -24 40 -43 30 -26 40 -41
40 -66 0 -40 21 -134 33 -150 5 -7 34 -24 65 -38 45 -20 71 -26 122 -25 36 1
70 1 75 0 21 -4 60 2 69 11 6 5 21 9 33 9 13 0 36 6 51 14 24 12 30 26 50 117
38 170 44 193 58 209 10 12 9 19 -5 37 -10 12 -30 25 -45 29 -14 3 -26 9 -26
13 0 4 18 24 39 45 47 46 69 44 94 -6 16 -33 23 -38 53 -38 39 0 42 7 14 43
-11 14 -20 30 -20 36 0 23 -24 61 -40 61 -9 0 -47 -29 -85 -65 -38 -36 -72
-65 -74 -65 -7 0 10 224 21 268 13 53 6 63 -68 88 -30 10 -60 24 -65 30 -5 7
5 64 27 155 30 116 43 151 67 179 16 19 27 28 24 20 -22 -55 -67 -205 -64
-213 2 -6 20 39 40 99 45 131 64 169 95 197 14 12 42 40 63 62 l40 40 -51
-109 c-27 -59 -50 -114 -50 -122 0 -7 -10 -32 -21 -54 -12 -23 -19 -43 -16
-46 3 -4 16 15 29 40 80 159 127 258 143 301 17 45 59 105 75 105 6 0 -35 -88
-59 -130 -13 -21 -161 -328 -211 -434 -22 -49 -39 -91 -36 -93 2 -3 19 28 38
69 47 104 184 371 229 450 22 36 39 71 39 77 0 18 33 81 43 81 13 0 -1 -38
-46 -120 -72 -134 -77 -144 -77 -163 0 -10 5 -15 10 -12 6 3 10 17 10 30 0 12
6 25 14 28 7 3 26 29 41 59 73 143 85 168 85 176 0 14 29 36 37 28 4 -3 -3
-19 -14 -35 -28 -36 -135 -252 -129 -258 4 -4 21 21 63 92 7 11 54 103 104
205 50 102 101 199 113 215 12 17 28 49 36 73 7 23 17 42 22 42 4 0 8 5 8 10
0 6 9 30 20 52 11 23 20 50 20 60 0 10 6 29 14 41 12 19 33 134 49 267 6 48
-18 271 -37 350 -9 36 -27 92 -40 125 -14 33 -30 77 -36 97 -6 21 -16 40 -21
44 -5 3 -18 23 -29 44 -11 21 -37 60 -59 87 -22 26 -53 63 -68 82 -54 65 -194
148 -314 186 -46 14 -92 31 -101 36 -10 5 -29 9 -42 9 -14 0 -28 5 -31 10 -5
8 -11 7 -21 -1 -8 -6 -14 -8 -14 -4 0 4 -6 2 -14 -4 -11 -10 -21 -9 -45 3 -42
22 -61 19 -32 -4 24 -21 14 -27 -17 -11 -64 32 -70 34 -101 20 -22 -10 -29
-19 -25 -29 3 -8 8 -22 11 -32 3 -9 15 -19 26 -23 14 -4 17 -8 9 -12 -22 -9
-40 5 -47 36 -13 60 -93 93 -127 54z m40 -22 c3 -8 -1 -12 -9 -9 -7 2 -15 10
-17 17 -3 8 1 12 9 9 7 -2 15 -10 17 -17z m168 -12 c5 -9 -1 -10 -20 -5 -17 4
-26 2 -26 -5 0 -7 -3 -10 -6 -6 -10 10 6 27 26 27 10 0 22 -5 26 -11z m-256
-29 c0 -5 -5 -10 -11 -10 -5 0 -7 5 -4 10 3 6 8 10 11 10 2 0 4 -4 4 -10z m53
-31 c7 0 3 -4 -8 -8 -22 -9 -35 -5 -35 11 0 5 7 7 16 4 9 -3 21 -6 27 -7z
m-53 -19 c8 -5 11 -10 5 -10 -5 0 -17 5 -25 10 -8 5 -10 10 -5 10 6 0 17 -5
25 -10z m236 -17 c4 3 13 0 21 -8 9 -10 24 -12 45 -8 22 4 29 3 24 -5 -4 -7
-23 -12 -42 -12 -19 0 -34 -4 -34 -9 0 -5 14 -8 30 -7 17 1 31 -3 31 -8 1 -6
2 -15 4 -21 1 -5 3 -16 3 -22 1 -7 12 -12 23 -10 12 1 24 -4 26 -10 3 -9 -7
-13 -31 -13 -20 0 -36 -5 -36 -11 0 -20 45 -48 78 -49 20 0 31 -4 27 -10 -3
-5 -16 -10 -28 -10 -12 0 -28 -9 -35 -20 -11 -18 -9 -20 16 -26 43 -9 49 -12
22 -13 -52 0 -105 14 -106 29 -1 24 -15 73 -29 105 -13 30 -45 137 -45 150 0
4 7 2 15 -5 9 -7 18 -10 21 -7z m281 1 c-3 -3 -12 -4 -19 -1 -8 3 -5 6 6 6 11
1 17 -2 13 -5z m50 -10 c-3 -3 -12 -4 -19 -1 -8 3 -5 6 6 6 11 1 17 -2 13 -5z
m-537 -35 c0 -11 -7 -19 -16 -19 -11 0 -14 5 -10 16 3 9 6 20 6 25 0 6 5 7 10
4 6 -3 10 -15 10 -26z m387 -25 c-3 -3 -12 -4 -19 -1 -8 3 -5 6 6 6 11 1 17
-2 13 -5z m46 -51 c-7 -2 -21 -2 -30 0 -10 3 -4 5 12 5 17 0 24 -2 18 -5z
m-103 -33 c-20 -13 -43 -13 -35 0 3 6 16 10 28 10 18 0 19 -2 7 -10z m-223 -6
c-3 -3 -12 -4 -19 -1 -8 3 -5 6 6 6 11 1 17 -2 13 -5z m300 -10 c-3 -3 -12 -4
-19 -1 -8 3 -5 6 6 6 11 1 17 -2 13 -5z m33 -34 c0 -5 -5 -10 -11 -10 -5 0 -7
5 -4 10 3 6 8 10 11 10 2 0 4 -4 4 -10z m-30 -54 c0 -3 -4 -8 -10 -11 -5 -3
-10 -1 -10 4 0 6 5 11 10 11 6 0 10 -2 10 -4z m-43 -58 c-9 -13 -24 -18 -61
-18 -27 0 -46 3 -43 6 3 4 2 14 -3 24 -14 25 -7 27 59 16 54 -9 58 -11 48 -28z
m368 32 c3 -5 1 -10 -4 -10 -6 0 -11 5 -11 10 0 6 2 10 4 10 3 0 8 -4 11 -10z
m-636 -14 c7 -8 8 -17 3 -20 -6 -3 -12 3 -15 14 -6 24 -4 25 12 6z m59 -43
c-10 -2 -28 -2 -40 0 -13 2 -5 4 17 4 22 1 32 -1 23 -4z m27 -28 c-24 -8 -164
-11 -159 -3 3 4 42 8 87 7 45 0 78 -2 72 -4z m-228 -21 c-3 -3 -12 -4 -19 -1
-8 3 -5 6 6 6 11 1 17 -2 13 -5z m-54 -11 c-7 -2 -19 -2 -25 0 -7 3 -2 5 12 5
14 0 19 -2 13 -5z m515 0 c-21 -2 -57 -2 -80 0 -24 2 -7 4 37 4 44 0 63 -2 43
-4z m-583 -33 c-3 -5 -11 -10 -16 -10 -6 0 -7 5 -4 10 3 6 11 10 16 10 6 0 7
-4 4 -10z m-425 -57 c-11 -17 -11 -17 -6 0 3 10 6 24 7 30 0 9 2 9 5 0 3 -7 0
-20 -6 -30z m1190 28 l55 -7 -60 -14 -59 -14 44 -12 45 -12 -45 -1 c-35 -1
-42 -4 -30 -12 11 -8 12 -12 3 -16 -23 -9 -14 -23 14 -23 25 0 26 0 8 -20 -10
-11 -29 -20 -42 -20 -12 0 -23 -4 -23 -9 0 -10 -48 -2 -55 9 -3 4 9 32 25 61
16 30 30 59 30 65 0 8 -21 11 -60 10 -67 -1 -84 -16 -19 -16 l42 0 -26 -26
c-20 -20 -33 -25 -52 -20 -36 9 -31 26 8 27 24 1 18 4 -26 13 -46 9 -56 13
-46 24 11 10 8 12 -13 12 -14 0 -28 -7 -32 -15 -3 -8 -2 -15 3 -15 14 0 20
-37 7 -50 -6 -6 -7 -11 -1 -10 26 5 41 -2 50 -22 7 -17 17 -22 35 -20 22 2 23
1 8 -11 -11 -9 -14 -18 -7 -28 15 -24 11 -79 -6 -79 -8 0 -15 -5 -15 -12 0 -6
3 -8 7 -5 3 4 12 2 20 -4 8 -7 29 -9 54 -5 27 4 38 3 34 -4 -4 -6 8 -10 30
-10 22 0 34 4 30 10 -9 14 63 12 98 -3 24 -10 10 -12 -103 -14 -73 -2 -137 0
-143 4 -15 9 -155 5 -272 -8 -102 -11 -287 -54 -325 -75 -25 -14 -116 -47
-175 -63 -103 -29 -267 -124 -338 -197 l-54 -55 -17 68 c-9 37 -16 104 -16
147 l0 80 70 68 c39 38 98 86 133 108 34 22 67 44 74 50 7 5 18 10 26 10 8 0
43 13 79 29 88 40 324 108 433 125 96 15 496 20 595 7z m-1217 -33 c-3 -16 -9
-28 -14 -28 -4 0 -3 14 3 31 12 36 18 35 11 -3z m1567 -38 c13 -9 13 -10 0
-10 -8 0 -22 5 -30 10 -13 9 -13 10 0 10 8 0 22 -5 30 -10z m-520 -35 c-7 -8
-18 -15 -25 -15 -7 0 -18 7 -25 15 -11 13 -7 15 25 15 32 0 36 -2 25 -15z
m-973 -47 c-3 -7 -5 -2 -5 12 0 14 2 19 5 13 2 -7 2 -19 0 -25z m1098 -38 c29
-7 29 -8 -10 -10 -39 -2 -39 -3 -10 -10 17 -4 24 -8 17 -9 -7 0 -10 -6 -6 -12
3 -6 17 -8 29 -5 13 3 27 2 30 -4 4 -6 -16 -10 -52 -10 -32 0 -68 -3 -79 -6
-17 -5 -22 0 -27 22 -3 15 -3 34 0 41 6 14 58 16 108 3z m105 -54 c0 -11 -19
-15 -25 -6 -3 5 1 10 9 10 9 0 16 -2 16 -4z m345 -16 c3 -5 -1 -10 -10 -10 -9
0 -13 5 -10 10 3 6 8 10 10 10 2 0 7 -4 10 -10z m-300 -10 c-3 -5 -14 -10 -23
-10 -15 0 -15 2 -2 10 20 13 33 13 25 0z m295 -30 c0 -5 -5 -10 -11 -10 -5 0
-7 5 -4 10 3 6 8 10 11 10 2 0 4 -4 4 -10z m-407 -7 c-7 -2 -19 -2 -25 0 -7 3
-2 5 12 5 14 0 19 -2 13 -5z m-150 -30 c-7 -2 -21 -2 -30 0 -10 3 -4 5 12 5
17 0 24 -2 18 -5z m572 -3 c8 -13 -5 -13 -25 0 -13 8 -13 10 2 10 9 0 20 -4
23 -10z m85 0 c0 -5 -4 -10 -10 -10 -5 0 -10 5 -10 10 0 6 5 10 10 10 6 0 10
-4 10 -10z m-963 -16 c-3 -3 -12 -4 -19 -1 -8 3 -5 6 6 6 11 1 17 -2 13 -5z
m-91 -33 c-4 -5 -29 -12 -57 -16 -36 -5 -47 -10 -38 -16 9 -7 5 -7 -13 -3 -23
5 -28 3 -28 -14 0 -12 -8 -22 -22 -25 -13 -3 -34 -9 -47 -13 -19 -6 -22 -4
-16 7 6 11 5 12 -6 2 -7 -7 -23 -13 -35 -13 -13 0 -26 -4 -29 -10 -3 -5 -15
-10 -26 -10 -10 0 -19 -4 -19 -10 0 -5 -11 -10 -24 -10 -25 0 -169 -60 -174
-72 -7 -16 -22 -7 -23 15 -1 13 -4 9 -8 -13 -5 -26 -11 -34 -24 -32 -9 2 -17
-2 -17 -7 0 -6 -18 -14 -40 -17 -22 -4 -40 -12 -40 -18 0 -6 -5 -4 -10 4 -9
13 -12 12 -25 -4 -11 -15 -15 -16 -15 -5 0 12 54 69 66 69 2 0 4 -9 4 -21 0
-11 5 -17 10 -14 6 3 10 17 10 31 0 13 4 24 9 24 5 0 17 3 27 7 12 4 15 3 10
-5 -4 -7 -3 -12 2 -12 16 0 23 32 11 47 -9 11 -8 17 7 27 27 20 47 8 42 -25
-3 -16 -2 -29 1 -29 3 0 41 17 83 38 42 21 74 34 72 30 -3 -4 0 -8 6 -8 6 0
10 8 8 17 -2 13 10 21 50 32 28 7 52 17 52 22 0 11 -94 -18 -135 -42 -19 -11
-39 -18 -45 -14 -5 3 -10 2 -10 -2 0 -5 -16 -16 -35 -25 -36 -16 -45 -10 -21
15 15 14 96 45 174 67 24 6 46 18 49 26 5 14 33 20 33 6 0 -4 20 -6 45 -4 25
2 45 8 45 14 0 5 20 7 48 4 37 -5 82 0 120 13 2 1 1 -3 -2 -8z m221 -47 c-3
-3 -12 -4 -19 -1 -8 3 -5 6 6 6 11 1 17 -2 13 -5z m166 -11 c-24 -2 -43 -8
-43 -14 0 -5 5 -9 11 -9 8 0 8 -5 -1 -15 -11 -13 -8 -15 16 -16 l29 -1 -30 -7
c-25 -6 -27 -8 -11 -14 15 -6 16 -10 6 -22 -11 -14 -7 -19 13 -16 4 0 7 -6 7
-14 0 -11 -11 -15 -37 -15 -21 0 -33 4 -27 8 8 4 11 31 8 75 l-3 67 52 -2 c50
-1 50 -2 10 -5z m-350 -11 c-14 -9 -10 -105 5 -110 6 -2 6 -14 -1 -37 -7 -24
-6 -46 2 -77 19 -69 19 -98 2 -98 -13 -1 -12 -3 3 -11 15 -9 16 -13 5 -20 -12
-8 -12 -10 0 -18 11 -7 8 -11 -10 -17 -22 -8 -20 -9 15 -14 42 -5 63 -30 27
-30 -12 0 -21 5 -21 11 0 5 -4 7 -10 4 -20 -12 -9 -25 23 -26 17 -1 24 -3 15
-6 -33 -8 -20 -30 15 -26 30 3 31 3 7 -7 -20 -9 -22 -13 -10 -20 12 -8 10 -10
-7 -10 -13 0 -23 5 -23 10 0 15 -23 12 -46 -5 -16 -13 -16 -14 -1 -9 27 10 61
-3 76 -28 13 -22 13 -22 -5 -7 -20 17 -49 15 -37 -4 4 -7 0 -8 -12 -3 -15 5
-16 4 -6 -8 7 -8 19 -12 27 -9 8 3 14 -1 14 -11 0 -9 8 -16 19 -16 11 0 23 -4
26 -10 3 -6 -5 -10 -19 -10 -35 0 -43 -20 -18 -41 25 -20 29 -31 7 -23 -9 4
-15 0 -15 -10 0 -9 7 -16 15 -16 21 0 19 -30 -2 -31 -10 -1 -3 -4 16 -8 40 -7
53 -30 22 -38 -20 -5 -20 -6 -4 -19 17 -13 17 -13 -2 -14 -15 0 -17 -2 -7 -9
8 -4 12 -17 10 -28 -1 -10 5 -31 14 -46 11 -16 14 -28 8 -32 -13 -8 -13 -45 1
-45 5 0 7 -4 4 -10 -3 -5 -2 -10 4 -10 6 0 8 -7 5 -15 -12 -29 -21 -14 -48 78
-15 50 -43 139 -63 197 -20 58 -41 123 -47 145 -6 23 -18 52 -27 65 -8 14 -21
45 -29 69 -8 24 -20 45 -27 48 -7 3 -12 15 -11 26 1 12 -6 38 -15 57 -9 19
-32 86 -53 148 -22 70 -41 111 -48 108 -30 -13 -118 -37 -122 -34 -2 3 22 12
54 22 31 10 65 26 74 36 16 17 45 25 173 49 66 12 72 12 58 3z m377 -72 c-8
-5 -19 -10 -25 -10 -5 0 -3 5 5 10 8 5 20 10 25 10 6 0 3 -5 -5 -10z m-728
-16 c-18 -8 -30 -19 -27 -24 4 -6 1 -9 -6 -8 -24 6 -20 -22 5 -32 14 -5 26
-15 26 -21 0 -8 -4 -8 -15 1 -13 10 -15 9 -15 -12 0 -13 7 -33 15 -45 13 -19
20 -20 47 -12 46 13 55 11 32 -6 -10 -8 -29 -15 -41 -15 -25 0 -26 -1 -17 -24
3 -9 17 -16 29 -16 13 0 27 -5 31 -11 4 -7 0 -9 -14 -5 -24 8 -41 -11 -18 -20
9 -3 16 -14 16 -25 0 -10 5 -29 12 -43 9 -21 16 -24 37 -19 25 6 25 6 8 -11
-38 -39 -19 -48 56 -25 70 21 80 23 73 10 -3 -5 -26 -12 -51 -15 -25 -4 -45
-11 -45 -16 0 -5 -7 -10 -15 -12 -12 -3 -12 -8 3 -38 9 -19 22 -39 28 -45 14
-12 25 -55 14 -55 -4 0 -10 -11 -12 -25 -3 -13 -2 -22 3 -20 4 3 11 0 14 -6 4
-5 13 -8 21 -5 16 6 44 -30 44 -57 0 -9 -7 -20 -15 -23 -8 -4 -12 -10 -9 -16
3 -5 12 -4 21 4 15 12 15 11 2 -9 -7 -12 -10 -26 -5 -30 4 -4 12 1 18 11 8 15
12 16 19 5 11 -18 11 -32 0 -25 -5 3 -12 -1 -15 -10 -6 -16 18 -43 39 -44 6 0
3 -5 -5 -10 -13 -8 -12 -11 4 -23 18 -13 18 -14 0 -21 -12 -5 -23 -1 -31 11
-13 18 -94 117 -143 175 -24 29 -26 29 -55 14 -34 -18 -59 -21 -50 -6 3 6 13
10 21 10 9 0 21 6 28 13 11 10 6 25 -26 77 -57 95 -60 97 -103 77 -20 -9 -37
-17 -40 -17 -10 0 4 55 15 58 7 3 10 0 6 -6 -3 -5 2 -13 11 -16 26 -11 34 16
11 36 -14 12 -24 15 -28 8 -4 -6 -14 -8 -22 -5 -9 4 -28 -1 -42 -10 -14 -9
-31 -15 -38 -13 -7 3 14 17 46 31 33 15 57 30 54 33 -3 2 -31 -7 -63 -21 -68
-30 -66 -29 -58 -8 4 10 2 14 -4 10 -6 -4 -10 -18 -10 -32 0 -13 3 -22 7 -20
5 3 6 -3 3 -14 -3 -12 3 -24 17 -34 15 -11 18 -16 8 -20 -9 -4 -8 -6 3 -6 9
-1 21 10 26 22 10 22 43 34 43 15 0 -4 -7 -8 -15 -8 -17 0 -39 -46 -29 -61 3
-5 11 -6 17 -2 7 4 6 0 -2 -10 -11 -13 -11 -17 -1 -17 8 0 11 -3 7 -6 -10 -10
20 -34 43 -34 16 0 20 -4 16 -15 -7 -20 10 -19 62 5 23 10 42 15 42 11 0 -5
-15 -14 -32 -21 -67 -24 -76 -31 -41 -27 18 2 30 0 27 -5 -3 -4 -14 -8 -25 -8
-16 0 -17 -2 -7 -13 7 -8 22 -12 33 -10 11 2 14 1 8 -3 -18 -8 -16 -27 2 -20
8 3 14 2 14 -2 -3 -20 2 -25 12 -12 8 11 9 7 4 -16 -5 -24 -2 -33 10 -38 9 -3
22 -3 27 1 7 4 8 1 3 -6 -11 -19 63 -81 99 -81 25 0 27 -2 15 -17 -13 -15 -11
-16 16 -9 29 7 29 7 11 -13 -24 -26 -42 -27 -49 -1 -3 11 -14 23 -25 27 -30
11 -212 172 -312 275 -100 103 -227 279 -252 348 -9 28 -8 34 17 60 16 16 32
27 37 24 5 -3 18 2 29 12 10 9 19 13 19 9 0 -5 10 1 23 13 12 11 24 20 27 20
19 -3 51 17 56 37 4 17 25 31 82 57 43 18 86 34 97 35 11 1 31 6 45 12 39 15
49 11 12 -5z m501 9 c-7 -2 -19 -2 -25 0 -7 3 -2 5 12 5 14 0 19 -2 13 -5z
m-803 -12 c0 -5 -7 -11 -14 -14 -10 -4 -13 -1 -9 9 6 15 23 19 23 5z m-50 -31
c0 -5 -5 -10 -11 -10 -5 0 -7 5 -4 10 3 6 8 10 11 10 2 0 4 -4 4 -10z m840 1
c0 -6 -4 -12 -8 -15 -5 -3 -9 1 -9 9 0 8 4 15 9 15 4 0 8 -4 8 -9z m-410 -11
c0 -5 -7 -10 -15 -10 -8 0 -15 -4 -15 -10 0 -5 -9 -10 -20 -10 -27 0 -25 14 3
28 28 14 47 15 47 2z m-465 -20 c-3 -5 -11 -10 -16 -10 -6 0 -7 5 -4 10 3 6
11 10 16 10 6 0 7 -4 4 -10z m1098 3 c-23 -3 -30 -8 -26 -19 3 -8 11 -14 19
-14 19 0 18 -16 -2 -24 -37 -14 -50 -7 -52 29 l-3 35 48 -2 c36 -1 40 -2 16
-5z m-580 -10 c-7 -2 -21 -2 -30 0 -10 3 -4 5 12 5 17 0 24 -2 18 -5z m474 -9
c-3 -3 -12 -4 -19 -1 -8 3 -5 6 6 6 11 1 17 -2 13 -5z m-480 -10 c-3 -3 -12
-4 -19 -1 -8 3 -5 6 6 6 11 1 17 -2 13 -5z m343 -4 c-14 -4 -38 -8 -53 -9 -18
-1 -26 -5 -21 -12 4 -7 2 -10 -5 -8 -38 13 14 35 84 37 15 0 14 -2 -5 -8z
m-344 -49 c-4 -6 -14 -7 -23 -4 -15 6 -14 7 3 13 22 9 29 6 20 -9z m431 13
c-3 -3 -12 -4 -19 -1 -8 3 -5 6 6 6 11 1 17 -2 13 -5z m-1022 -24 c-10 -11
-15 -23 -11 -28 4 -4 16 4 27 17 17 21 19 21 19 4 0 -10 -9 -35 -19 -56 l-19
-37 -21 45 c-23 49 -25 59 -12 51 5 -3 14 1 21 9 7 8 17 15 23 15 5 0 2 -9 -8
-20z m90 9 c8 -13 6 -15 -23 -24 -22 -6 -23 -5 -13 14 13 23 26 27 36 10z
m1073 0 c11 0 9 -4 -7 -10 -28 -11 -55 -4 -46 12 4 6 14 8 22 5 8 -3 22 -6 31
-7z m-85 -6 c-7 -2 -21 -2 -30 0 -10 3 -4 5 12 5 17 0 24 -2 18 -5z m426 -52
c-7 -28 -17 -51 -22 -51 -10 0 -2 40 16 82 17 41 21 25 6 -31z m-561 42 c-10
-2 -28 -2 -40 0 -13 2 -5 4 17 4 22 1 32 -1 23 -4z m-368 -13 c0 -5 -10 -10
-22 -9 -22 0 -22 1 -3 9 11 5 21 9 23 9 1 1 2 -3 2 -9z m54 -15 c-4 -8 -10
-12 -15 -9 -11 6 -2 24 11 24 5 0 7 -7 4 -15z m524 -16 c15 0 21 -3 14 -6 -6
-2 -10 -9 -6 -14 3 -5 -10 -9 -28 -8 -18 0 -27 3 -20 6 10 4 10 8 2 19 -7 7
-8 19 -4 26 7 10 9 9 12 -4 2 -12 13 -18 30 -19z m-145 4 c-7 -2 -21 -2 -30 0
-10 3 -4 5 12 5 17 0 24 -2 18 -5z m-135 -64 c-3 -8 -7 -3 -11 10 -4 17 -3 21
5 13 5 -5 8 -16 6 -23z m258 6 c14 -13 13 -15 -5 -15 -12 0 -21 6 -21 15 0 8
3 15 6 15 3 0 12 -7 20 -15z m67 8 c-13 -2 -33 -2 -45 0 -13 2 -3 4 22 4 25 0
35 -2 23 -4z m-533 -13 c0 -5 -8 -10 -17 -10 -15 0 -16 2 -3 10 19 12 20 12
20 0z m343 3 c-7 -2 -19 -2 -25 0 -7 3 -2 5 12 5 14 0 19 -2 13 -5z m-86 -9
c-3 -3 -12 -4 -19 -1 -8 3 -5 6 6 6 11 1 17 -2 13 -5z m-321 -19 c-11 -8 -27
-15 -35 -15 -10 0 -7 6 9 14 33 19 50 19 26 1z m477 8 c-7 -2 -21 -2 -30 0
-10 3 -4 5 12 5 17 0 24 -2 18 -5z m-86 -9 c-3 -3 -12 -4 -19 -1 -8 3 -5 6 6
6 11 1 17 -2 13 -5z m233 -19 c0 -8 -9 -15 -20 -15 -11 0 -20 5 -20 10 0 6
-12 10 -26 10 -14 0 -23 -4 -19 -10 3 -5 -4 -11 -17 -12 -13 0 -3 -4 22 -8
l45 -7 -40 -2 c-32 -2 -36 -4 -20 -11 18 -8 17 -9 -7 -9 -25 -1 -28 2 -28 34
l0 35 65 0 c51 0 65 -3 65 -15z m-217 -2 c-7 -2 -19 -2 -25 0 -7 3 -2 5 12 5
14 0 19 -2 13 -5z m-343 -32 c-20 -12 -87 -25 -78 -16 4 4 22 11 40 15 45 11
56 11 38 1z m722 -16 c-2 -14 -8 -28 -13 -31 -5 -3 -7 2 -4 10 3 9 7 23 10 31
7 24 13 17 7 -10z m-177 5 c-3 -5 -14 -10 -23 -10 -15 0 -15 2 -2 10 20 13 33
13 25 0z m381 -62 c-18 -26 -22 -17 -5 14 6 11 13 17 16 15 3 -3 -2 -16 -11
-29z m-482 0 c-8 -30 -10 -31 -24 -23 -8 5 -8 10 0 20 9 11 5 14 -17 18 -23 3
-21 4 10 6 35 1 38 -1 31 -21z m-424 -28 c-8 -5 -24 -9 -35 -9 -16 1 -16 2 5
9 35 11 48 11 30 0z m247 4 c-3 -3 -12 -4 -19 -1 -8 3 -5 6 6 6 11 1 17 -2 13
-5z m-202 -24 c3 -5 1 -10 -4 -10 -6 0 -11 5 -11 10 0 6 2 10 4 10 3 0 8 -4
11 -10z m-2 -37 c-7 -2 -21 -2 -30 0 -10 3 -4 5 12 5 17 0 24 -2 18 -5z m-313
-17 c0 -3 -4 -8 -10 -11 -5 -3 -10 -1 -10 4 0 6 5 11 10 11 6 0 10 -2 10 -4z
m70 -46 c0 -5 -10 -10 -22 -10 -19 0 -20 2 -8 10 19 13 30 13 30 0z m440 -42
c0 -32 -15 -19 -17 15 -2 23 0 28 7 17 5 -8 10 -23 10 -32z m-200 12 c0 -5 -5
-10 -11 -10 -5 0 -7 5 -4 10 3 6 8 10 11 10 2 0 4 -4 4 -10z m-458 -78 c10 -8
15 -19 12 -23 -9 -16 -19 -10 -38 22 -19 33 -11 33 26 1z m812 3 c-4 -8 -8
-15 -10 -15 -2 0 -4 7 -4 15 0 8 4 15 10 15 5 0 7 -7 4 -15z m516 12 c0 -2
-10 -12 -22 -23 l-23 -19 19 23 c18 21 26 27 26 19z m-783 -43 c-3 -3 -12 -4
-19 -1 -8 3 -5 6 6 6 11 1 17 -2 13 -5z m530 -100 c-3 -3 -12 -4 -19 -1 -8 3
-5 6 6 6 11 1 17 -2 13 -5z m-285 -29 c3 -14 1 -25 -3 -25 -5 0 -9 11 -9 25 0
14 2 25 4 25 2 0 6 -11 8 -25z m248 -15 c0 -5 -2 -10 -4 -10 -3 0 -8 5 -11 10
-3 6 -1 10 4 10 6 0 11 -4 11 -10z m-474 -77 c9 -24 14 -46 11 -49 -10 -10
-46 20 -66 57 -26 45 -26 56 -3 62 21 5 37 -14 58 -70z m338 44 c-9 -5 -18 -6
-21 -3 -4 3 -1 6 5 6 7 0 12 8 12 18 0 14 2 15 10 2 6 -10 4 -17 -6 -23z
m-489 13 c-3 -5 -10 -10 -16 -10 -5 0 -9 5 -9 10 0 6 7 10 16 10 8 0 12 -4 9
-10z m379 -45 c-4 -8 -10 -12 -15 -9 -11 6 -2 24 11 24 5 0 7 -7 4 -15z m-349
-65 c10 -11 24 -20 30 -20 7 0 15 -10 18 -22 8 -28 1 -36 -7 -10 -4 13 -19 22
-41 26 -20 4 -35 13 -35 21 0 7 -8 16 -17 18 -12 3 -9 5 8 6 14 0 34 -8 44
-19z m140 -30 c-3 -5 -10 -10 -16 -10 -5 0 -9 5 -9 10 0 6 7 10 16 10 8 0 12
-4 9 -10z m-385 -50 c12 -16 17 -30 11 -30 -6 0 -17 14 -26 30 -9 17 -13 30
-11 30 3 0 14 -13 26 -30z m246 -107 c20 -38 50 -93 67 -123 16 -30 40 -74 53
-97 26 -45 30 -63 14 -63 -5 0 -10 4 -10 9 0 5 -25 54 -57 108 -83 145 -113
202 -113 219 0 24 7 16 46 -53z m420 -18 c-7 -28 -21 -85 -31 -128 -21 -88
-40 -91 -39 -4 1 49 21 102 62 165 21 32 23 24 8 -33z m-236 -19 c0 -2 -9 -6
-20 -9 -11 -3 -18 -1 -14 4 5 9 34 13 34 5z m219 -253 c10 -17 10 -17 11 0 0
31 49 16 51 -17 1 -16 2 -17 6 -4 4 14 8 16 24 8 27 -15 24 -46 -7 -66 -26
-18 -146 -54 -176 -54 -30 0 -20 16 22 35 38 17 51 37 32 49 -13 8 -1 66 14
66 7 0 18 -8 23 -17z m-179 -9 c0 -14 -3 -14 -16 -3 -13 11 -14 9 -8 -17 4
-16 13 -46 20 -66 11 -33 11 -38 -1 -38 -8 0 -16 8 -16 18 -1 16 -2 16 -6 0
-9 -35 -68 -16 -89 29 -9 18 -19 31 -22 28 -3 -3 0 -11 6 -17 15 -15 16 -38 2
-38 -5 0 -10 7 -10 16 0 14 -3 14 -15 4 -12 -10 -15 -10 -15 1 0 23 79 88 113
92 18 2 38 5 45 5 6 1 12 -5 12 -14z m271 -146 l-9 -33 -1 36 c-1 20 2 39 6
43 13 12 15 -10 4 -46z m-213 31 c-2 -6 -8 -10 -13 -10 -5 0 -11 4 -13 10 -2
6 4 11 13 11 9 0 15 -5 13 -11z m190 -45 c-2 -19 0 -34 4 -34 4 0 8 -9 8 -20
0 -11 -6 -20 -14 -20 -9 0 -16 18 -21 53 l-7 52 -12 -57 c-17 -80 -26 -83 -26
-7 0 65 0 65 33 74 37 11 41 7 35 -41z m-369 14 c1 8 10 12 23 10 16 -2 25
-12 29 -33 l7 -30 1 28 c1 25 4 28 32 25 34 -3 43 -14 55 -63 l8 -30 6 40 5
40 8 -43 c8 -45 2 -67 -14 -56 -5 3 -9 2 -8 -3 1 -4 1 -17 0 -28 -1 -17 -3
-18 -11 -5 -8 13 -10 12 -10 -2 0 -33 -20 -19 -21 15 l-1 32 -7 -30 -7 -30 -7
28 c-8 30 -22 35 -31 12 -8 -21 -26 -19 -27 3 -1 11 -4 9 -9 -8 l-8 -25 -1 26
c-1 14 -5 29 -10 35 -5 5 -11 34 -14 64 -4 36 -3 48 3 35 5 -11 9 -14 9 -7z
m292 -73 c1 -53 -2 -80 -9 -83 -13 -4 -18 149 -5 161 10 11 11 6 14 -78z m-79
35 c-5 -48 -22 -43 -22 6 0 21 5 34 13 34 9 0 11 -12 9 -40z m25 8 c-3 -7 -5
-2 -5 12 0 14 2 19 5 13 2 -7 2 -19 0 -25z m43 -170 c0 -3 -8 -8 -17 -10 -24
-5 -64 3 -59 11 5 8 76 8 76 -1z m-150 -8 c0 -5 -7 -7 -15 -4 -8 4 -15 8 -15
10 0 2 7 4 15 4 8 0 15 -4 15 -10z m50 6 c0 -11 -19 -15 -25 -6 -3 5 1 10 9
10 9 0 16 -2 16 -4z m-90 -10 c0 -3 -4 -8 -10 -11 -5 -3 -10 -1 -10 4 0 6 5
11 10 11 6 0 10 -2 10 -4z m-40 -10 c0 -2 -7 -9 -15 -16 -13 -11 -14 -10 -9 4
5 14 24 23 24 12z m-40 -26 c0 -5 -9 -10 -19 -10 -11 0 -28 -3 -38 -6 -16 -5
-16 -4 1 10 22 18 56 21 56 6z m117 -1 c-23 -13 -13 -29 19 -29 21 0 23 -2 12
-13 -7 -7 -22 -18 -33 -24 -16 -9 -17 -13 -5 -16 49 -16 55 -19 40 -25 -8 -3
-20 -11 -27 -18 -10 -9 -8 -13 10 -18 21 -6 21 -7 -8 -21 l-30 -14 30 5 30 5
-32 -18 c-18 -9 -33 -20 -33 -25 0 -4 -7 -4 -17 -1 -11 4 -14 3 -9 -5 4 -7 28
-13 54 -13 l47 -1 -55 -9 c-37 -6 -56 -6 -58 1 -2 5 -12 10 -23 10 -14 0 -19
7 -19 25 0 14 -6 25 -12 25 -7 1 -2 9 11 20 12 11 27 17 32 14 5 -3 9 -1 9 5
0 6 -12 8 -30 5 -40 -9 -38 1 6 22 26 12 32 19 22 25 -7 5 -20 9 -28 9 -12 0
-12 -2 -1 -9 10 -6 10 -10 1 -16 -14 -9 -17 -6 -25 26 -6 23 -3 27 21 33 15 4
41 18 57 32 16 13 36 24 45 24 15 -1 15 -2 -1 -11z m83 -23 c0 -3 -4 -8 -10
-11 -5 -3 -10 -1 -10 4 0 6 5 11 10 11 6 0 10 -2 10 -4z m140 -6 c0 -5 -2 -10
-4 -10 -3 0 -8 5 -11 10 -3 6 -1 10 4 10 6 0 11 -4 11 -10z m-83 -126 c-3 -3
-12 -4 -19 -1 -8 3 -5 6 6 6 11 1 17 -2 13 -5z m-260 -66 c-3 -7 -5 -2 -5 12
0 14 2 19 5 13 2 -7 2 -19 0 -25z m230 -14 c-3 -3 -12 -4 -19 -1 -8 3 -5 6 6
6 11 1 17 -2 13 -5z"/>
<path d="M2633 3723 c9 -2 23 -2 30 0 6 3 -1 5 -18 5 -16 0 -22 -2 -12 -5z"/>
<path d="M2525 3560 c3 -5 8 -10 11 -10 2 0 4 5 4 10 0 6 -5 10 -11 10 -5 0
-7 -4 -4 -10z"/>
<path d="M2560 3555 c0 -8 4 -15 8 -15 5 0 9 7 9 15 0 8 -4 15 -9 15 -4 0 -8
-7 -8 -15z"/>
<path d="M2372 3538 c-21 -11 -22 -15 -16 -92 4 -45 11 -92 17 -106 6 -14 9
-29 8 -33 -1 -5 6 -7 16 -5 13 2 19 14 21 46 4 55 25 54 65 -6 24 -36 33 -42
63 -42 19 0 34 3 34 6 0 9 -53 78 -73 95 -18 15 -18 17 -2 48 31 61 -6 103
-89 100 -11 0 -31 -5 -44 -11z m96 -52 c6 -27 -27 -56 -62 -55 -17 0 -25 3
-18 6 6 2 12 20 12 38 0 18 6 35 13 38 20 7 52 -9 55 -27z"/>
<path d="M2173 3523 c-19 -7 -16 -62 3 -70 10 -4 12 -8 5 -13 -14 -8 12 -120
30 -131 8 -4 7 -8 -2 -11 -20 -7 7 -38 33 -38 22 0 20 19 -13 149 -10 41 -19
82 -19 92 0 18 -18 29 -37 22z"/>
<path d="M2583 3503 c-3 -10 -8 -21 -10 -25 -2 -5 2 -8 10 -8 8 0 17 11 19 25
6 28 -9 34 -19 8z"/>
<path d="M1940 3431 c-13 -25 -13 -91 0 -91 6 0 10 17 10 37 0 43 16 35 26
-14 6 -29 4 -32 -22 -35 -16 -2 -29 -8 -29 -15 0 -6 -3 -15 -7 -19 -12 -11 -9
-44 3 -44 8 0 8 -4 0 -14 -7 -9 -8 -17 -2 -20 5 -3 7 -15 4 -26 -6 -24 12 -27
21 -4 3 9 6 28 6 42 0 37 10 48 46 55 28 5 32 2 47 -29 14 -28 22 -34 47 -34
16 0 30 3 30 6 0 6 -39 65 -50 74 -12 11 -90 134 -90 142 0 16 -29 8 -40 -11z"/>
<path d="M2648 3433 c7 -3 16 -2 19 1 4 3 -2 6 -13 5 -11 0 -14 -3 -6 -6z"/>
<path d="M2590 3411 c0 -13 29 -35 37 -27 3 3 1 6 -5 6 -7 0 -12 5 -12 11 0 6
7 9 15 5 8 -3 15 -1 15 4 0 6 -11 10 -25 10 -14 0 -25 -4 -25 -9z"/>
<path d="M1763 3362 c-48 -24 -53 -29 -53 -59 0 -18 3 -33 8 -33 4 0 7 -15 8
-32 1 -79 10 -158 16 -158 18 0 39 34 33 54 -18 59 -18 65 9 77 15 7 26 20 26
32 0 16 -5 19 -30 13 -19 -3 -29 -2 -25 4 3 6 1 10 -5 10 -25 0 13 40 55 59
32 14 45 26 45 40 0 28 -23 26 -87 -7z"/>
<path d="M2663 3383 c9 -2 23 -2 30 0 6 3 -1 5 -18 5 -16 0 -22 -2 -12 -5z"/>
<path d="M2578 3369 c-8 -5 12 -9 51 -9 35 0 62 2 60 4 -10 8 -98 13 -111 5z"/>
<path d="M2638 3343 c6 -2 18 -2 25 0 6 3 1 5 -13 5 -14 0 -19 -2 -12 -5z"/>
<path d="M2613 3323 c9 -2 23 -2 30 0 6 3 -1 5 -18 5 -16 0 -22 -2 -12 -5z"/>
<path d="M1539 3178 c0 -13 -2 -43 -5 -67 -5 -39 -2 -47 26 -74 17 -16 33 -28
35 -25 3 3 6 22 7 42 1 28 8 43 31 60 33 26 29 46 -10 46 -13 0 -38 9 -54 21
l-29 20 -1 -23z"/>
<path d="M2830 3350 c-13 -8 -12 -10 3 -10 9 0 17 5 17 10 0 12 -1 12 -20 0z"/>
<path d="M2198 3143 c7 -3 16 -2 19 1 4 3 -2 6 -13 5 -11 0 -14 -3 -6 -6z"/>
<path d="M1735 2840 c3 -5 8 -10 11 -10 2 0 4 5 4 10 0 6 -5 10 -11 10 -5 0
-7 -4 -4 -10z"/>
<path d="M1777 2824 c-15 -8 -33 -12 -39 -8 -6 4 -8 3 -5 -3 4 -6 0 -14 -9
-17 -12 -4 -14 -1 -9 14 7 21 -1 25 -21 12 -9 -5 -9 -16 0 -42 10 -32 15 -35
46 -33 32 2 33 1 12 -9 -23 -11 -23 -37 1 -66 8 -11 12 -11 18 0 7 11 9 11 9
0 0 -7 5 -10 11 -7 15 10 1 67 -22 87 -20 17 -11 32 14 22 9 -3 16 3 20 15 5
22 -8 30 -15 9 -3 -9 -6 -9 -11 0 -5 6 4 17 20 26 15 8 24 15 18 15 -5 0 -22
-7 -38 -15z"/>
<path d="M1852 2796 c13 -14 28 -12 28 5 0 5 -9 9 -20 9 -17 0 -19 -2 -8 -14z"/>
<path d="M1820 2760 c12 -8 12 -10 -3 -16 -9 -3 -17 -14 -17 -23 1 -14 2 -14
11 2 5 9 17 17 24 17 20 0 19 16 -1 24 -23 9 -31 7 -14 -4z"/>
<path d="M1858 2734 c-19 -37 -25 -70 -8 -44 5 8 14 15 20 15 6 0 15 7 21 15
7 11 8 7 4 -15 -6 -29 -6 -29 9 -11 16 19 16 19 16 -2 0 -16 -10 -26 -37 -37
-20 -8 -34 -18 -31 -21 4 -3 28 6 55 20 26 14 43 25 38 26 -6 0 -16 14 -24 31
-9 21 -19 29 -31 26 -13 -3 -16 0 -13 14 8 29 0 22 -19 -17z"/>
<path d="M1817 2693 c-4 -3 -7 -18 -6 -32 1 -26 1 -25 10 3 9 31 7 41 -4 29z"/>
<path d="M1780 2643 c0 -15 29 -49 30 -35 0 7 -7 20 -15 28 -8 9 -15 11 -15 7z"/>
<path d="M2147 2513 c-3 -5 6 -16 19 -26 13 -10 24 -13 24 -7 0 6 -7 13 -15
16 -8 4 -12 10 -9 15 3 5 1 9 -5 9 -5 0 -12 -3 -14 -7z"/>
<path d="M2248 2410 c-5 -17 19 -46 30 -36 3 4 2 10 -4 14 -6 4 -13 14 -16 22
-4 13 -5 13 -10 0z"/>
<path d="M2693 1525 c0 -22 2 -30 4 -17 2 12 2 30 0 40 -3 9 -5 -1 -4 -23z"/>
<path d="M2732 1525 c0 -16 2 -22 5 -12 2 9 2 23 0 30 -3 6 -5 -1 -5 -18z"/>
<path d="M2440 1526 c0 -8 4 -17 9 -20 5 -4 7 3 4 14 -6 23 -13 26 -13 6z"/>
<path d="M2470 1528 c0 -9 5 -20 10 -23 13 -8 13 5 0 25 -8 13 -10 13 -10 -2z"/>
<path d="M2511 1394 c0 -11 3 -14 6 -6 3 7 2 16 -1 19 -3 4 -6 -2 -5 -13z"/>
<path d="M2522 1345 c0 -16 2 -22 5 -12 2 9 2 23 0 30 -3 6 -5 -1 -5 -18z"/>
<path d="M2430 990 c0 -5 5 -10 10 -10 6 0 10 5 10 10 0 6 -4 10 -10 10 -5 0
-10 -4 -10 -10z"/>
<path d="M2170 4140 c-54 -28 -125 -90 -102 -90 6 0 9 -7 6 -15 -4 -8 -1 -15
5 -15 24 0 9 -18 -19 -23 -21 -5 -28 -11 -24 -22 7 -18 40 -20 47 -2 3 6 6 2
6 -10 1 -13 -4 -23 -10 -23 -17 0 -121 -31 -117 -35 2 -2 19 0 38 5 79 20 83
19 32 -5 -30 -14 -57 -23 -62 -20 -9 5 -25 -13 -18 -20 2 -2 35 4 73 14 73 19
79 25 90 93 6 37 76 138 116 166 12 8 36 18 53 23 28 6 27 7 -14 7 -29 0 -64
-10 -100 -28z"/>
<path d="M1922 3992 c-13 -15 -27 -34 -32 -42 -6 -10 -10 -11 -10 -3 0 7 -7
10 -16 6 -13 -5 -13 -7 -2 -14 7 -5 10 -9 6 -10 -5 -1 -12 -3 -18 -4 -5 -1
-15 -3 -21 -4 -5 0 -7 -6 -3 -12 3 -6 -9 -24 -27 -39 -19 -16 -29 -29 -22 -30
6 0 15 5 18 10 3 6 15 10 26 10 16 0 19 -4 13 -22 -7 -23 -6 -23 15 -4 11 11
21 22 21 26 0 4 19 40 41 79 44 75 49 99 11 53z m-72 -97 c0 -8 -4 -15 -10
-15 -5 0 -7 7 -4 15 4 8 8 15 10 15 2 0 4 -7 4 -15z"/>
<path d="M2010 3970 c0 -5 5 -10 11 -10 5 0 7 5 4 10 -3 6 -8 10 -11 10 -2 0
-4 -4 -4 -10z"/>
<path d="M2005 3862 c-43 -12 -61 -22 -63 -36 -4 -18 -3 -19 13 -3 9 9 28 20
43 23 15 3 33 8 40 10 8 2 12 -1 9 -8 -2 -7 -10 -12 -16 -10 -6 1 -11 -2 -11
-8 0 -5 -7 -10 -15 -10 -9 0 -29 -7 -45 -15 -24 -12 -30 -22 -30 -48 l1 -32
22 26 c23 27 46 39 86 46 21 4 23 2 11 -11 -7 -9 -9 -16 -4 -16 17 0 -21 -20
-58 -30 -21 -6 -38 -15 -38 -21 0 -6 -4 -8 -8 -5 -5 3 -9 0 -9 -7 0 -7 -4 -24
-8 -39 -8 -32 -8 -33 36 -13 l34 14 -28 1 c-42 0 -29 21 24 36 53 16 60 17 37
3 -18 -10 -25 -30 -10 -28 27 5 35 -2 16 -15 -18 -14 -18 -15 -2 -21 10 -4 15
-12 11 -19 -3 -6 3 -2 14 9 16 17 21 39 26 133 4 83 3 112 -6 111 -7 0 -39 -8
-72 -17z m-5 -136 c0 -3 -4 -8 -10 -11 -5 -3 -10 -1 -10 4 0 6 5 11 10 11 6 0
10 -2 10 -4z"/>
<path d="M1806 3841 c-4 -7 -5 -15 -2 -18 9 -9 19 4 14 18 -4 11 -6 11 -12 0z"/>
<path d="M1647 3774 c-57 -89 -119 -212 -114 -227 2 -7 23 29 47 78 23 50 60
116 82 149 21 32 37 61 34 63 -3 3 -25 -26 -49 -63z"/>
<path d="M1685 3670 c-16 -7 -17 -9 -3 -9 9 -1 20 4 23 9 7 11 7 11 -20 0z"/>
<path d="M1665 3610 c-16 -7 -17 -9 -3 -9 9 -1 20 4 23 9 7 11 7 11 -20 0z"/>
<path d="M1993 3558 c-25 -12 -32 -34 -9 -25 8 3 31 9 50 13 20 3 39 10 42 15
7 13 -56 10 -83 -3z"/>
<path d="M1620 3483 c0 -5 5 -15 10 -23 8 -12 10 -11 10 8 0 12 -4 22 -10 22
-5 0 -10 -3 -10 -7z"/>
<path d="M1819 2283 c17 -31 40 -58 41 -47 0 20 -25 64 -38 64 -9 0 -10 -5 -3
-17z"/>
<path d="M1870 2213 c0 -5 10 -19 21 -33 l20 -25 -16 33 c-15 30 -25 41 -25
25z"/>
<path d="M2871 2024 c-12 -32 -20 -59 -18 -61 4 -4 32 59 42 95 12 42 -2 22
-24 -34z"/>
<path d="M2110 2030 c9 -17 8 -20 -9 -20 -11 0 -22 6 -24 13 -4 9 -6 9 -6 0
-1 -7 11 -32 26 -57 21 -34 32 -44 51 -43 14 1 27 -4 30 -12 3 -10 0 -12 -12
-8 -10 4 -16 1 -16 -7 0 -8 11 -13 29 -12 28 1 29 2 17 31 -10 25 -18 30 -42
28 -19 -1 -22 0 -9 4 34 9 35 25 3 65 -32 40 -56 52 -38 18z m29 -69 c-16 -5
-33 15 -24 30 6 9 12 7 22 -7 9 -13 10 -20 2 -23z"/>
<path d="M2946 1903 c-26 -54 -43 -93 -38 -88 17 18 93 167 90 177 -2 4 -25
-35 -52 -89z"/>
<path d="M2835 1929 c-4 -6 -5 -12 -2 -15 2 -3 7 2 10 11 7 17 1 20 -8 4z"/>
<path d="M2926 1800 c-21 -39 -35 -77 -33 -83 2 -7 20 23 41 67 20 43 35 80
33 83 -3 2 -21 -28 -41 -67z"/>
<path d="M2220 1853 c0 -13 82 -145 87 -139 6 6 -69 146 -79 146 -5 0 -8 -3
-8 -7z"/>
<path d="M2784 1813 c-25 -61 -54 -146 -50 -150 3 -3 58 124 70 165 12 36 -2
25 -20 -15z"/>
<path d="M2193 1822 c10 -10 17 -23 17 -29 0 -6 8 -17 17 -24 12 -10 10 -2 -7
29 -13 23 -28 42 -33 42 -6 0 -3 -8 6 -18z"/>
<path d="M2859 1738 c-40 -82 -59 -128 -54 -128 6 0 55 94 77 148 26 63 12 51
-23 -20z"/>
<path d="M2801 1772 c-18 -34 -51 -126 -46 -130 2 -3 9 8 15 24 6 16 17 42 25
59 18 41 25 65 20 65 -2 0 -9 -8 -14 -18z"/>
<path d="M2197 1719 c7 -7 15 -10 18 -7 3 3 -2 9 -12 12 -14 6 -15 5 -6 -5z"/>
<path d="M2162 1395 c-7 -8 -12 -18 -11 -22 4 -24 -2 -53 -11 -53 -6 0 -24
-12 -41 -27 l-30 -27 23 -18 c36 -27 54 -24 34 7 -9 14 -13 24 -9 23 4 -1 18
4 31 11 18 9 27 10 37 1 12 -10 17 -7 26 13 6 14 23 28 37 32 l26 6 -39 34
c-44 38 -54 41 -73 20z m32 -38 c2 -15 -4 -29 -16 -36 -21 -13 -22 -9 -6 36
13 36 18 36 22 0z"/>
<path d="M2140 1265 c0 -8 9 -15 20 -15 11 0 20 7 20 15 0 8 -9 15 -20 15 -11
0 -20 -7 -20 -15z"/>
<path d="M3005 1230 c-8 -13 13 -40 31 -40 17 0 18 22 2 38 -15 15 -25 15 -33
2z"/>
</g>
</svg>
