<?xml version="1.0" standalone="no"?>
<!DOCTYPE svg PUBLIC "-//W3C//DTD SVG 20010904//EN"
 "http://www.w3.org/TR/2001/REC-SVG-20010904/DTD/svg10.dtd">
<svg version="1.0" xmlns="http://www.w3.org/2000/svg"
 width="500.000000pt" height="500.000000pt" viewBox="0 0 500.000000 500.000000"
 preserveAspectRatio="xMidYMid meet">

<g transform="translate(0.000000,500.000000) scale(0.100000,-0.100000)"
fill="#000000" stroke="none">
<path d="M1561 4123 c-18 -64 -11 -95 7 -34 l17 54 85 -6 c233 -17 285 -19
280 -15 -3 3 -47 9 -98 12 -51 4 -101 9 -110 10 -9 2 -52 7 -94 11 l-77 7 -10
-39z"/>
<path d="M1972 4115 c10 -10 612 -58 661 -53 18 2 -15 7 -73 12 -58 4 -206 16
-330 27 -245 21 -266 22 -258 14z"/>
<path d="M2745 4050 c201 -19 346 -32 420 -36 44 -2 89 -6 101 -9 11 -2 63 -7
115 -10 52 -3 109 -8 127 -11 l33 -5 -7 -113 c-7 -111 -6 -113 17 -129 l23
-17 -22 0 c-20 0 -22 -5 -23 -52 -3 -114 3 -288 10 -313 3 -15 5 -42 3 -61
l-4 -33 -62 6 c-33 3 -64 11 -68 17 -5 8 -8 7 -8 -1 0 -7 -4 -13 -10 -13 -5 0
-10 9 -10 20 0 23 -10 26 -28 8 -7 -7 -12 -8 -12 -3 0 6 -5 3 -10 -5 -18 -26
-42 16 -34 60 9 49 10 50 60 50 32 0 44 4 44 15 0 8 -10 16 -22 19 -40 7 -78
4 -78 -5 0 -5 -5 -9 -11 -9 -5 0 -8 4 -5 8 7 12 -57 31 -86 25 -15 -3 -39 6
-68 26 -47 32 -74 38 -100 21 -12 -8 -11 -10 6 -10 12 0 29 -11 37 -24 15 -22
15 -25 1 -37 -14 -12 -14 -14 3 -20 16 -6 17 -7 1 -14 -9 -4 -29 0 -45 7 -21
11 -28 20 -26 41 1 16 -3 26 -10 24 -8 -1 -13 15 -15 43 -2 25 -7 49 -12 54
-10 11 -100 14 -93 4 2 -5 15 -8 29 -8 13 0 24 -5 24 -10 0 -6 -21 -8 -57 -4
-67 8 -94 23 -43 25 23 1 13 5 -29 11 -65 9 -87 4 -61 -12 11 -7 0 -10 -34
-10 -42 0 -47 2 -36 15 11 13 6 15 -32 15 -25 0 -47 3 -50 6 -3 3 -53 7 -109
8 -57 2 -130 7 -161 11 -54 7 -58 6 -67 -16 -6 -13 -23 -40 -40 -59 -29 -34
-30 -34 -50 -16 -11 10 -25 15 -31 11 -6 -3 -9 -1 -8 7 2 9 -7 12 -29 10 -28
-3 -32 1 -43 32 -6 20 -18 36 -25 36 -16 0 -29 -17 -16 -22 5 -1 11 -32 14
-68 4 -42 3 -56 -2 -40 -5 14 -10 43 -11 65 -1 22 -4 32 -7 23 -2 -10 -10 -18
-16 -19 -7 0 -39 -2 -72 -3 -94 -4 -129 -17 -133 -48 -2 -20 2 -27 22 -32 28
-7 31 -13 17 -34 -5 -9 -17 -11 -37 -6 -26 7 -26 8 -9 16 14 6 9 7 -17 4 -23
-3 -39 0 -42 7 -3 9 -5 9 -5 1 -1 -11 -13 -11 -126 -1 -24 2 -32 53 -38 266
-2 77 -7 144 -10 148 -4 3 -7 -3 -7 -15 0 -12 -4 -22 -10 -22 -5 0 -10 7 -10
16 0 8 -4 12 -10 9 -18 -11 -10 -45 13 -55 22 -9 22 -9 -3 -10 -72 -5 -153 7
-144 21 3 5 20 9 39 9 19 0 36 3 38 8 3 4 7 39 8 77 l4 70 -70 8 c-77 9 -121
-1 -132 -30 -3 -10 -15 -25 -27 -35 -20 -16 -20 -17 21 -56 27 -26 48 -39 60
-36 20 5 51 -11 41 -21 -8 -8 -182 19 -221 34 -40 15 -33 22 16 16 36 -5 38
-4 17 5 -60 26 -141 -12 -96 -45 14 -11 19 -28 20 -67 1 -51 2 -53 30 -56 16
-2 32 2 37 10 6 9 10 3 15 -20 8 -38 24 -49 78 -50 22 -1 43 -7 47 -14 11 -17
-9 -24 -24 -9 -18 18 -27 13 -27 -18 0 -16 -7 -34 -15 -41 -8 -7 -15 -22 -15
-34 0 -11 -4 -27 -9 -35 -11 -17 9 -41 33 -41 9 0 16 -4 16 -10 0 -5 -4 -10
-9 -10 -5 0 -17 -3 -27 -7 -11 -4 -15 -3 -11 4 5 8 -16 14 -60 19 -38 4 -71 9
-75 10 -5 1 -16 2 -25 3 -15 1 -15 3 3 16 23 17 58 19 83 4 12 -8 23 -9 35 -2
28 16 -46 46 -125 51 -73 4 -108 -8 -167 -59 -18 -16 -37 -29 -42 -29 -6 0
-10 -9 -10 -20 0 -26 54 -54 91 -46 39 8 53 -13 47 -74 -5 -53 -27 -86 -65
-101 -29 -11 -29 -30 -2 -55 15 -13 37 -19 77 -19 32 -1 74 -7 95 -15 30 -11
42 -12 57 -2 22 13 213 5 204 -9 -3 -5 -14 -9 -24 -9 -30 0 -67 -41 -73 -82
-5 -35 8 -61 29 -57 25 4 22 -5 -16 -41 -36 -34 -41 -45 -37 -69 5 -23 2 -30
-19 -40 -35 -15 -39 -36 -15 -67 16 -20 21 -41 21 -83 l0 -56 47 55 c27 30 47
58 45 62 -2 9 10 10 30 3 8 -3 -17 -36 -72 -93 l-85 -87 -58 3 c-51 3 -59 7
-68 29 -5 13 -9 39 -9 56 0 42 -25 77 -55 77 -31 0 -55 -35 -55 -82 0 -30 -4
-38 -19 -38 -10 0 -31 -10 -45 -21 -27 -21 -28 -30 -11 -71 5 -13 2 -18 -9
-18 -25 0 -38 -37 -34 -98 l3 -57 -35 -3 c-47 -5 -70 -27 -70 -69 0 -26 6 -36
25 -45 14 -6 25 -15 25 -19 0 -5 7 -6 15 -3 11 4 15 0 15 -16 0 -19 -2 -20
-15 -10 -12 10 -15 10 -15 -3 0 -37 43 -42 82 -10 14 13 17 10 22 -24 3 -21 4
-58 3 -83 -2 -38 -6 -45 -25 -48 -16 -2 -22 2 -22 15 -1 17 -2 17 -16 -2 -14
-18 -17 -19 -42 -5 -16 10 -30 28 -33 45 l-7 30 -1 -31 c-1 -35 9 -47 54 -61
22 -7 31 -17 36 -43 4 -18 13 -36 20 -41 17 -10 7 -20 -22 -21 -28 -2 -178
-102 -227 -150 -91 -92 -98 -114 -90 -273 6 -112 28 -159 104 -220 62 -51 135
-73 379 -115 137 -24 479 -85 950 -170 385 -69 611 -100 712 -98 l88 2 -79 5
c-50 4 -81 11 -84 19 -2 6 1 12 7 12 6 0 11 -4 11 -10 0 -18 39 -11 50 9 11
22 -7 43 -19 23 -4 -6 -19 -9 -33 -7 -17 3 -30 0 -35 -9 -11 -18 -53 -31 -53
-16 0 7 -7 10 -15 6 -11 -4 -15 2 -15 24 0 17 -4 30 -9 30 -4 0 -6 -11 -4 -24
3 -13 0 -27 -6 -30 -11 -7 -94 14 -86 22 2 3 0 12 -5 22 -5 10 -5 29 0 46 5
20 9 23 9 10 1 -15 4 -17 12 -9 8 8 7 17 -2 34 -7 15 -14 19 -17 11 -5 -15
-23 -16 -20 0 3 13 -33 26 -79 27 -29 1 -33 -2 -33 -26 0 -25 1 -25 18 -10 10
10 23 17 28 17 5 0 2 -5 -6 -10 -10 -6 -11 -10 -2 -10 6 0 12 -7 12 -15 0 -8
-5 -15 -11 -15 -13 0 -8 -42 6 -52 6 -4 20 -8 33 -8 12 0 22 -4 22 -10 0 -13
1 -13 -99 5 -95 17 -112 26 -87 50 9 9 16 21 16 27 0 6 7 5 16 -3 15 -12 16
-10 10 19 -7 28 -4 33 16 41 l23 10 -26 0 c-25 1 -38 -14 -53 -61 -8 -26 -26
-22 -27 5 l0 22 -10 -23 c-5 -15 -13 -21 -21 -16 -7 4 -2 -5 12 -20 l25 -28
-35 6 c-19 3 -57 8 -85 11 -82 10 -194 38 -188 47 8 14 -7 59 -17 53 -6 -3
-10 1 -10 9 0 18 20 32 21 14 0 -7 4 -3 9 9 5 13 15 23 22 24 14 0 -20 17 -38
18 -6 1 -15 -18 -19 -42 -8 -42 -8 -42 -15 -12 l-8 30 -1 -32 c-1 -42 8 -63
27 -63 8 0 13 -3 10 -6 -9 -8 -128 7 -128 17 0 5 7 9 15 9 8 0 15 8 15 19 0
22 -25 46 -34 32 -4 -5 -2 -12 4 -16 9 -5 -10 -35 -22 -35 -10 0 -1 54 10 58
6 2 12 10 12 18 0 8 5 14 10 14 6 0 10 -4 10 -9 0 -6 11 -22 25 -37 l25 -27 0
28 c0 20 -4 26 -14 22 -14 -6 -33 26 -28 46 1 4 -10 7 -24 7 -19 0 -25 -4 -21
-15 4 -8 2 -17 -3 -20 -5 -3 -12 6 -16 20 -4 17 -10 23 -16 17 -6 -6 -6 -18 2
-32 13 -25 4 -42 -10 -20 -7 11 -10 12 -10 2 0 -7 -4 -11 -9 -8 -5 3 -12 -5
-15 -18 -4 -17 -16 -27 -37 -31 -17 -4 -33 -5 -35 -2 -3 2 9 7 25 10 23 5 28
10 24 25 -3 15 3 22 25 30 24 8 29 15 25 34 -4 21 -13 26 -74 36 -97 17 -133
16 -125 -3 3 -8 0 -15 -5 -15 -11 0 -9 16 6 53 6 14 2 17 -21 16 -17 -1 -22
-3 -12 -6 17 -4 17 -7 2 -35 -13 -24 -18 -28 -26 -17 -7 11 -8 9 -6 -6 3 -17
11 -20 53 -19 28 0 53 -4 57 -10 4 -5 33 -10 65 -9 32 0 50 -1 41 -4 -9 -2
-20 -18 -23 -34 l-7 -29 -30 25 c-16 14 -39 25 -51 25 -39 0 -67 -12 -67 -27
0 -11 -6 -14 -22 -9 -13 4 -41 8 -63 10 -50 5 -276 45 -286 52 -4 2 -29 7 -56
10 -56 6 -114 24 -128 39 -5 5 -33 10 -60 10 -28 0 -64 6 -82 14 -30 12 -31
14 -21 44 11 30 11 30 20 8 4 -13 6 -27 2 -32 -3 -5 2 -9 12 -9 14 0 16 7 11
45 -4 27 -3 45 3 45 29 0 2 20 -60 44 -76 30 -108 62 -130 129 -13 43 -6 116
15 157 17 32 72 90 107 113 31 20 48 23 30 5 -7 -7 -12 -17 -12 -22 0 -6 10 0
22 12 13 13 42 37 66 53 23 17 39 36 35 41 -3 7 -1 8 5 4 6 -4 23 1 37 10 24
16 25 15 26 -5 1 -11 2 -27 3 -33 2 -25 94 -58 159 -58 34 0 68 4 74 8 7 4 38
3 68 -2 41 -8 54 -14 50 -24 -3 -8 -1 -20 5 -27 6 -7 9 -19 8 -26 -5 -22 81
-17 116 6 26 17 27 20 10 27 -15 7 -14 7 6 4 14 -3 52 -8 85 -12 33 -3 63 -8
67 -10 9 -6 194 -37 432 -74 110 -17 203 -33 207 -35 3 -3 37 -7 75 -11 73 -6
86 -11 66 -23 -15 -9 5 -68 27 -76 16 -6 97 48 94 63 -1 4 14 14 33 21 22 8
36 21 40 36 3 13 15 27 27 31 11 3 31 20 45 36 22 26 29 29 63 23 44 -8 52 1
14 15 -16 6 -25 17 -25 30 0 12 5 18 10 15 6 -3 10 -13 10 -21 0 -8 4 -12 10
-9 6 4 5 14 -4 28 -8 13 -12 35 -9 56 3 18 8 28 12 23 4 -6 24 -8 48 -5 24 3
40 9 37 14 -3 5 -1 9 5 9 5 0 13 -4 16 -10 3 -5 15 -10 27 -10 15 0 19 -5 15
-20 -6 -25 -2 -25 25 0 12 11 24 17 27 14 3 -3 -13 -22 -37 -42 -25 -22 -42
-45 -42 -58 0 -18 -17 -34 -35 -34 -12 0 2 40 15 41 9 0 10 2 3 5 -16 7 -55
-15 -48 -27 4 -5 0 -12 -8 -15 -12 -4 -13 -11 -3 -37 20 -56 40 -56 93 0 18
19 47 39 64 45 23 8 27 13 17 19 -9 6 -6 9 10 9 17 0 27 -8 35 -30 9 -25 16
-30 34 -25 12 3 25 0 28 -5 4 -6 14 -9 23 -8 13 3 16 -5 13 -42 -2 -25 -7 -52
-12 -62 -5 -9 -9 -21 -9 -27 0 -19 18 -12 25 9 9 28 25 15 25 -20 0 -25 4 -29
40 -35 23 -4 46 -3 53 3 14 11 105 26 94 16 -4 -4 -24 -10 -44 -14 l-38 -7 29
-12 c24 -10 32 -9 47 5 10 9 25 14 34 10 21 -8 66 11 63 26 -2 7 7 14 19 16
13 2 32 15 43 29 18 23 20 23 20 6 0 -43 -116 -113 -187 -113 -14 0 -32 -8
-39 -17 -13 -17 -13 -17 -14 0 0 12 -9 17 -32 17 -42 1 -103 23 -129 46 -11
10 -19 30 -19 47 0 41 -12 27 -16 -19 -2 -27 2 -41 21 -60 l24 -24 -27 -1
c-37 -2 64 -17 168 -25 66 -5 98 -2 145 11 70 21 131 73 122 105 -3 11 -2 20
2 20 4 0 7 9 7 19 0 14 -9 21 -33 26 -18 3 -33 10 -33 16 0 6 5 7 10 4 6 -3
10 1 10 10 0 23 31 31 44 12 7 -8 28 -19 47 -24 18 -5 34 -14 34 -20 0 -11
-169 -196 -258 -282 -73 -70 -123 -105 -212 -146 -118 -55 -193 -68 -362 -62
-138 4 -222 15 -528 71 -158 29 -316 57 -407 71 -437 69 -946 164 -1001 187
-81 35 -126 113 -114 202 4 28 2 35 -6 27 -6 -6 -11 -39 -11 -73 0 -104 52
-177 151 -212 23 -8 111 -27 195 -41 84 -15 160 -30 168 -33 8 -3 18 -4 23 -4
4 1 40 -4 80 -12 39 -8 142 -26 227 -40 85 -15 189 -33 230 -41 41 -9 131 -24
200 -35 166 -26 302 -51 320 -58 8 -3 37 -7 65 -9 27 -2 52 -7 55 -11 3 -4 19
-8 35 -9 17 0 77 -8 134 -17 279 -43 510 4 690 140 59 45 166 149 199 194 15
19 71 82 127 138 98 102 176 165 202 165 7 0 13 4 13 8 0 14 59 37 80 32 14
-4 19 -1 15 8 -5 14 72 42 260 95 119 34 188 80 260 174 25 32 45 63 45 68 0
5 9 21 20 35 11 13 26 50 34 80 17 64 9 117 -23 151 -12 12 -21 28 -21 34 0 7
-9 12 -19 12 -11 0 -23 5 -26 10 -8 13 3 13 61 -5 70 -21 134 -92 134 -149 0
-63 -73 -200 -171 -318 -55 -66 -74 -83 -122 -109 -21 -11 -35 -24 -32 -29 8
-14 -14 -52 -26 -44 -5 3 -7 14 -4 25 4 10 2 19 -2 19 -15 0 -33 -23 -33 -42
0 -10 -6 -18 -14 -18 -10 0 -12 -7 -9 -21 6 -21 7 -21 20 -4 12 18 13 17 13
-7 0 -24 16 -38 43 -38 8 0 7 3 -2 9 -10 7 -10 10 -1 16 7 4 16 2 20 -5 6 -9
12 -10 26 -1 11 6 13 11 6 11 -7 0 -10 5 -7 10 5 8 11 8 19 1 9 -7 24 -3 52
16 65 43 113 94 174 183 92 137 93 140 86 244 -9 118 -22 165 -54 199 -63 67
-165 95 -474 128 -77 9 -118 17 -118 25 0 25 -33 35 -161 50 -139 16 -200 33
-121 34 35 0 47 6 71 32 l28 32 179 1 c224 1 254 10 254 82 0 22 -6 36 -20 43
-16 8 -20 21 -20 60 l0 49 -80 7 c-44 3 -80 8 -80 11 0 8 77 108 93 122 10 7
17 19 17 27 0 8 16 14 43 16 38 3 44 7 62 43 14 29 20 67 23 136 5 109 -5 129
-62 129 -35 0 -53 -16 -76 -65 -11 -26 -14 -27 -18 -10 -2 10 -10 29 -18 40
-11 17 -11 37 -2 113 l11 92 29 0 c40 0 68 17 68 40 0 19 -8 23 -66 35 -29 6
-32 10 -37 57 -4 28 -8 52 -9 54 -3 3 -208 20 -360 31 -102 7 -96 -4 -74 143
8 47 11 88 7 92 -3 4 -78 12 -166 18 -182 12 -346 25 -520 40 -66 5 -140 9
-165 8 -30 0 -19 -3 35 -8z m-1354 -92 c42 -12 48 -27 23 -52 -20 -20 -22 -20
-20 1 1 20 -52 34 -104 28 -19 -3 -29 -2 -22 1 6 3 12 12 12 20 0 18 57 19
111 2z m-21 -99 c11 -7 7 -9 -18 -5 -19 2 -36 7 -40 10 -10 10 42 6 58 -5z
m-97 -69 c10 -10 5 -12 -25 -7 -43 6 -45 2 -23 -50 19 -45 19 -52 -2 -49 -10
2 -19 12 -19 22 -1 10 -2 27 -3 36 -1 14 -7 16 -31 12 -25 -6 -30 -3 -30 13 0
16 6 19 33 16 l32 -3 -30 10 c-38 12 -55 6 -55 -20 0 -11 -4 -20 -10 -20 -5 0
-10 14 -10 31 l0 32 80 -5 c48 -3 86 -10 93 -18z m75 -20 c3 -9 -2 -11 -17 -7
-25 6 -25 8 -7 -56 9 -33 16 -120 19 -237 3 -141 8 -194 21 -224 20 -49 13
-59 -10 -14 -14 27 -19 72 -25 238 -5 149 -11 217 -23 249 -20 55 -20 59 2 64
24 6 35 3 40 -13z m155 -38 c-9 -56 -14 -72 -22 -72 -5 0 -7 9 -4 19 3 11 -2
33 -10 50 -17 35 -15 40 17 34 18 -4 22 -10 19 -31z m2207 -16 c14 1 45 2 70
4 74 4 159 -1 165 -10 3 -4 -4 -6 -14 -3 -15 4 -20 0 -18 -16 1 -24 8 -26 25
-9 23 23 23 0 -1 -26 -20 -21 -29 -24 -61 -19 -20 3 -39 9 -41 14 -3 4 -19 2
-35 -4 -28 -12 -178 -7 -237 8 -36 9 -29 41 10 49 25 5 29 9 17 17 -10 6 2 7
40 2 30 -4 66 -7 80 -7z m-2197 -105 c-18 -42 -40 -58 -27 -19 17 53 38 92 41
77 2 -9 -4 -35 -14 -58z m2232 3 c60 -3 112 -8 115 -10 8 -9 -24 -24 -39 -18
-8 2 -60 7 -115 9 -123 6 -166 13 -166 26 0 7 17 9 48 5 26 -3 96 -8 157 -12z
m314 -20 c14 -14 -16 -18 -117 -16 -54 2 -73 5 -70 15 7 18 55 24 123 14 33
-5 62 -11 64 -13z m-1744 7 c3 -5 1 -12 -5 -16 -5 -3 -10 -2 -10 4 0 5 -8 12
-17 14 -14 4 -13 5 4 6 12 0 24 -3 28 -8z m82 -12 c-14 -8 -22 -8 -30 0 -8 8
-3 11 19 11 25 -1 27 -2 11 -11z m383 -29 c0 -5 -2 -10 -4 -10 -3 0 -8 5 -11
10 -3 6 -1 10 4 10 6 0 11 -4 11 -10z m905 -1 c157 -19 174 -37 165 -170 -7
-96 -23 -109 -130 -99 -41 4 -67 7 -57 8 21 2 23 21 2 28 -8 4 -15 14 -15 24
0 19 -27 30 -77 30 l-33 0 0 95 0 95 28 0 c15 0 68 -5 117 -11z m-2440 -9 c3
-5 1 -10 -4 -10 -6 0 -11 5 -11 10 0 6 2 10 4 10 3 0 8 -4 11 -10z m1313 3
c-25 -3 -44 -13 -58 -30 -26 -34 -11 -56 20 -28 25 22 25 15 1 -38 -10 -23
-20 -47 -22 -54 -3 -8 -9 -8 -23 3 -16 11 -17 17 -8 26 17 17 15 28 -7 28 -11
0 -22 -10 -26 -22 -5 -18 -8 -19 -12 -8 -4 8 -13 20 -22 27 -21 15 -112 13
-129 -4 -15 -14 -32 -17 -32 -5 0 4 11 24 25 43 19 30 32 38 67 43 100 15 119
16 113 6 -9 -14 7 -12 46 5 19 8 50 14 69 13 l35 -1 -37 -4z m413 -110 c9 -10
3 -12 -32 -9 -27 3 -37 1 -29 -4 29 -18 0 -21 -77 -10 -43 6 -86 14 -97 17
-17 5 -16 6 4 17 29 14 29 28 -1 43 -24 13 -24 13 -2 13 12 0 27 6 34 13 8 8
34 11 80 9 66 -3 69 -5 75 -30 13 -62 20 -62 18 -1 l-3 64 10 -54 c5 -30 14
-60 20 -68z m1003 111 c-8 -3 -10 -19 -7 -43 3 -23 1 -41 -6 -45 -7 -5 -11 8
-12 41 -2 50 -4 38 -15 -74 -9 -96 -24 -75 -24 32 l0 95 38 -1 c20 0 32 -3 26
-5z m-2684 -24 c0 -11 -7 -20 -15 -20 -17 0 -18 2 -9 24 9 23 24 20 24 -4z
m230 10 c0 -5 -23 -10 -51 -10 -31 0 -48 4 -44 10 3 6 26 10 51 10 24 0 44 -4
44 -10z m1157 4 c-3 -3 -12 -4 -19 -1 -8 3 -5 6 6 6 11 1 17 -2 13 -5z m-699
-17 c7 0 2 -12 -13 -27 -28 -29 -32 -50 -10 -50 8 0 15 9 15 20 0 11 3 20 8
20 4 0 5 -24 3 -52 -3 -29 -6 -45 -8 -36 -4 14 -8 15 -28 6 -53 -24 -70 12
-34 71 19 31 19 33 2 26 -20 -9 -52 -9 -61 -1 -2 3 1 13 9 22 10 12 23 14 58
9 25 -4 52 -8 59 -8z m249 -59 c-17 -41 -27 -54 -37 -48 -17 10 1 64 33 98 30
32 31 17 4 -50z m516 65 c-7 -2 -19 -2 -25 0 -7 3 -2 5 12 5 14 0 19 -2 13 -5z
m-1503 -13 c0 -5 -2 -10 -4 -10 -3 0 -8 5 -11 10 -3 6 -1 10 4 10 6 0 11 -4
11 -10z m283 -10 c20 0 20 -1 3 -13 -19 -14 -156 -11 -156 4 0 16 21 21 74 15
32 -3 68 -6 79 -6z m-517 -9 c-3 -5 -18 -12 -33 -16 -32 -8 -73 -42 -73 -62 0
-18 -19 -16 -27 3 -3 9 2 24 13 35 28 28 134 64 120 40z m57 2 c-7 -2 -19 -2
-25 0 -7 3 -2 5 12 5 14 0 19 -2 13 -5z m2807 -198 c-11 -128 -9 -216 6 -302
5 -25 2 -32 -13 -35 -30 -6 -146 11 -157 23 -8 9 3 10 46 5 31 -3 62 -8 70
-11 26 -10 41 11 33 46 -7 29 -9 31 -15 14 -9 -24 -5 129 4 173 7 29 6 30 -21
27 -35 -4 -165 14 -177 25 -5 5 -15 6 -22 3 -16 -6 -18 5 -5 26 7 11 13 9 30
-8 18 -18 33 -21 95 -21 41 0 81 -3 90 -6 10 -4 15 0 15 13 1 10 5 54 10 97 6
44 7 84 5 88 -3 5 -2 18 3 31 15 41 16 -39 3 -188z m-1716 162 c0 -9 -1 -33
-2 -52 -2 -27 -5 -33 -18 -28 -9 3 -11 9 -6 12 5 3 9 14 9 24 0 12 -8 17 -29
17 -15 0 -28 4 -28 9 0 12 39 21 46 10 12 -19 24 -8 13 12 -9 17 -8 20 3 17 7
-3 13 -12 12 -21z m533 17 c-3 -3 -12 -4 -19 -1 -8 3 -5 6 6 6 11 1 17 -2 13
-5z m-1186 -34 c26 -15 24 -30 -5 -30 -19 0 -24 5 -23 20 1 23 2 23 28 10z
m345 -128 c2 -150 -1 -159 -12 -37 -6 77 -7 79 -20 50 l-12 -30 -10 25 c-6 16
-6 29 1 38 10 13 3 27 -15 27 -6 0 -13 6 -15 13 -5 14 7 15 41 3 22 -9 25 -7
31 20 4 16 7 29 8 29 1 0 3 -62 3 -138z m518 123 c-4 -8 -7 -15 -9 -15 -2 0
-5 7 -9 15 -3 9 0 15 9 15 9 0 12 -6 9 -15z m-1070 -11 c9 -24 7 -27 -9 -10
-17 17 -19 26 -6 26 5 0 12 -7 15 -16z m-316 -22 c2 -14 -2 -22 -11 -22 -17 0
-30 27 -21 41 9 16 29 4 32 -19z m147 18 c3 -5 -1 -10 -10 -10 -9 0 -13 5 -10
10 3 6 8 10 10 10 2 0 7 -4 10 -10z m470 -2 c17 -8 32 -8 48 -1 12 6 37 8 54
6 29 -5 32 -8 26 -31 -4 -17 -2 -23 6 -18 17 11 23 -17 10 -50 -10 -23 -13
-25 -16 -11 -4 15 -14 17 -86 14 -45 -2 -72 -2 -59 1 12 2 22 8 22 13 0 12
-37 12 -45 -1 -3 -6 -18 -7 -31 -4 -14 4 -36 1 -49 -6 -13 -7 -31 -10 -40 -6
-14 5 -14 8 3 27 11 11 28 20 38 19 40 -5 54 1 71 30 9 17 18 30 20 30 1 0 14
-5 28 -12z m1657 0 c-9 -9 -15 -9 -24 0 -9 9 -7 12 12 12 19 0 21 -3 12 -12z
m-1199 -36 c4 -21 3 -31 -3 -27 -6 3 -10 20 -10 37 0 38 5 34 13 -10z m-950
13 c52 -5 67 -4 67 7 0 10 2 10 9 -1 6 -9 18 -12 32 -8 26 7 69 -1 69 -13 0
-4 -56 -7 -124 -6 -68 0 -119 4 -113 8 7 5 0 8 -15 8 -16 0 -28 5 -28 11 0 6
8 8 18 5 9 -2 47 -7 85 -11z m1575 -55 c-23 -62 -48 -80 -48 -34 0 27 14 59
38 86 27 32 31 8 10 -52z m494 -256 c10 -17 60 -71 113 -119 106 -98 127 -125
96 -125 -11 0 -41 27 -75 69 -46 56 -66 72 -112 90 -31 11 -71 21 -89 21 -27
0 -34 4 -37 22 -2 12 -9 23 -16 26 -11 3 -12 0 -2 -18 12 -22 11 -23 -26 -17
-22 4 -51 7 -66 7 -19 0 -26 4 -22 14 3 8 1 17 -5 20 -6 4 -8 13 -5 21 13 33
-48 63 -119 57 -17 -2 -17 -1 0 22 16 21 19 22 26 8 4 -10 5 -7 1 8 -19 80
-25 73 52 70 93 -4 94 -4 94 25 0 14 5 25 10 25 7 0 7 6 0 19 -11 21 -14 71
-4 71 3 0 17 -9 31 -20 39 -30 93 -22 118 19 7 11 12 -28 15 -134 4 -114 10
-158 22 -181z m785 304 c-3 -8 -6 -5 -6 6 -1 11 2 17 5 13 3 -3 4 -12 1 -19z
m-756 2 c27 -15 24 -27 -11 -32 -23 -4 -30 -1 -30 12 0 30 12 35 41 20z m53
-17 c-3 -12 -12 -24 -19 -27 -10 -3 -9 3 2 25 17 34 25 34 17 2z m-650 11 c25
-9 19 -24 -9 -24 -30 0 -35 -29 -5 -37 11 -3 17 -9 14 -14 -3 -5 -14 -5 -25 1
-21 12 -25 50 -7 68 14 14 12 14 32 6z m-632 -70 c-59 -53 -79 -83 -47 -70 8
3 15 2 15 -3 0 -5 -7 -14 -15 -21 -11 -10 -18 -10 -29 -1 -11 9 -15 9 -19 -1
-4 -9 -6 -9 -6 2 -1 17 148 165 157 156 3 -3 -22 -31 -56 -62z m-815 50 c-3
-3 -12 -4 -19 -1 -8 3 -5 6 6 6 11 1 17 -2 13 -5z m733 -35 c0 -39 -15 -30
-18 11 -2 19 1 29 8 25 5 -3 10 -20 10 -36z m223 34 c-7 -2 -19 -2 -25 0 -7 3
-2 5 12 5 14 0 19 -2 13 -5z m835 2 c12 -3 22 -9 22 -15 0 -9 -46 -7 -56 3 -4
3 -16 0 -28 -7 -12 -8 -41 -12 -70 -10 -51 3 -61 7 -53 21 6 9 151 15 185 8z
m993 -38 c-8 -8 -11 -5 -11 9 0 27 14 41 18 19 2 -9 -1 -22 -7 -28z m-2630 15
c4 -4 9 -26 13 -49 l6 -43 -43 0 c-54 0 -73 14 -98 69 l-19 43 67 -7 c38 -4
71 -10 74 -13z m1102 -9 c-7 -2 -21 -2 -30 0 -10 3 -4 5 12 5 17 0 24 -2 18
-5z m-756 -19 c-3 -3 -12 -4 -19 -1 -8 3 -5 6 6 6 11 1 17 -2 13 -5z m423 -13
c-14 -27 -30 -35 -42 -23 -11 11 16 42 38 42 11 0 12 -4 4 -19z m748 13 c63
-8 74 -33 15 -35 -21 -1 -49 -2 -63 -3 -21 -1 -60 24 -60 39 0 7 44 6 108 -1z
m1272 -2 c0 -5 -7 -17 -15 -28 -8 -10 -15 -29 -15 -40 0 -12 -12 -29 -27 -39
-22 -15 -25 -15 -20 -2 3 9 11 34 17 56 6 22 18 45 28 50 21 13 32 14 32 3z
m-2715 -12 c3 -5 1 -10 -4 -10 -6 0 -11 5 -11 10 0 6 2 10 4 10 3 0 8 -4 11
-10z m1871 -11 c3 -5 1 -9 -5 -9 -17 0 -41 12 -41 20 0 10 38 1 46 -11z m721
-1 c-3 -8 -6 -5 -6 6 -1 11 2 17 5 13 3 -3 4 -12 1 -19z m-2932 -45 c8 -27 21
-56 29 -65 15 -20 102 -35 223 -40 70 -3 80 -5 70 -18 -6 -8 -13 -17 -14 -19
-1 -2 -8 1 -15 7 -7 6 -69 16 -138 22 -69 7 -129 16 -134 21 -6 5 -6 9 -2 9 5
0 4 6 -2 13 -10 12 -42 94 -42 110 0 19 10 3 25 -40z m685 37 c0 -6 -11 -8
-27 -4 -40 10 -41 14 -5 14 18 0 32 -5 32 -10z m626 -31 c-14 -20 -16 -21 -22
-5 -4 11 0 22 12 31 24 17 30 2 10 -26z m-359 25 c-3 -3 -12 -4 -19 -1 -8 3
-5 6 6 6 11 1 17 -2 13 -5z m216 -1 c-7 -2 -19 -2 -25 0 -7 3 -2 5 12 5 14 0
19 -2 13 -5z m1105 -17 c26 -1 25 -1 11 -28 -9 -16 -8 -19 3 -16 7 3 13 11 13
19 0 8 10 15 23 17 15 2 22 -2 22 -13 0 -9 -4 -13 -10 -10 -5 3 -10 1 -10 -4
0 -6 11 -11 25 -11 14 0 25 -5 25 -12 0 -6 3 -9 6 -6 3 4 -2 18 -11 32 -20 30
-17 31 32 11 19 -8 52 -15 72 -15 28 0 44 -7 66 -30 25 -26 26 -30 9 -30 -14
0 -16 -2 -6 -9 20 -12 -5 -20 -38 -11 -24 6 -24 6 -5 18 17 11 15 12 -20 7
-107 -16 -125 -17 -125 -6 0 6 -17 11 -37 11 -46 0 -57 7 -61 40 -5 32 -3 31
-37 21 l-30 -7 25 -7 25 -7 -30 -20 c-25 -17 -27 -20 -10 -21 18 0 18 -1 -3
-9 -37 -15 -50 -3 -54 52 -1 27 -1 52 2 55 3 3 28 1 55 -3 28 -4 60 -8 73 -8z
m-1323 -6 c-3 -5 -10 -10 -16 -10 -5 0 -9 5 -9 10 0 6 7 10 16 10 8 0 12 -4 9
-10z m2005 -6 c28 -9 -12 -24 -67 -24 -46 0 -53 3 -53 20 0 17 5 19 53 14 28
-3 59 -8 67 -10z m-3000 -2 c0 -4 -11 -24 -25 -44 -14 -20 -25 -42 -25 -48 0
-6 -4 -8 -10 -5 -19 12 -10 50 18 77 27 27 42 34 42 20z m1650 -25 c16 4 20 0
20 -19 0 -21 -5 -24 -36 -24 -31 0 -35 3 -30 21 3 11 6 27 6 35 1 12 2 12 10
-2 6 -10 18 -14 30 -11z m863 16 c-7 -2 -21 -2 -30 0 -10 3 -4 5 12 5 17 0 24
-2 18 -5z m-1749 -30 c-10 -40 -14 -41 -14 -5 0 18 5 32 10 32 6 0 8 -11 4
-27z m474 5 c3 -18 -5 -18 -85 -2 -41 8 -24 19 29 19 42 0 53 -4 56 -17z m43
-8 c4 -3 4 -12 -1 -20 -8 -13 -10 -13 -10 2 0 9 -5 18 -12 20 -7 3 -8 9 -3 18
7 12 9 12 13 0 3 -8 9 -17 13 -20z m-931 10 c2 0 -1 -5 -6 -10 -7 -7 -35 -8
-77 -4 -93 9 -87 28 6 21 39 -4 74 -7 77 -7z m775 -20 c3 -5 -1 -10 -10 -10
-9 0 -13 5 -10 10 3 6 8 10 10 10 2 0 7 -4 10 -10z m1632 2 c51 -16 -9 -37
-89 -33 -21 1 -24 27 -5 34 17 7 67 6 94 -1z m-2104 -9 c-13 -2 -35 -2 -50 0
-16 2 -5 4 22 4 28 0 40 -2 28 -4z m2337 -23 l25 -11 -25 6 c-14 2 -35 5 -47
5 -13 0 -23 5 -23 11 0 5 4 8 9 4 5 -3 13 0 17 6 4 8 9 8 13 1 4 -6 18 -16 31
-22z m-2728 8 c-8 -8 -20 -8 -44 -1 l-33 11 45 1 c33 1 41 -2 32 -11z m223 0
c-6 -14 -55 -21 -55 -8 0 10 18 18 42 19 10 1 15 -4 13 -11z m555 -13 c0 -16
-6 -25 -15 -25 -21 0 -31 30 -14 41 23 14 29 11 29 -16z m-1010 5 c-20 -13
-47 -13 -55 0 -4 6 9 10 32 10 28 0 34 -3 23 -10z m290 0 c0 -5 -9 -10 -21
-10 -11 0 -17 5 -14 10 3 6 13 10 21 10 8 0 14 -4 14 -10z m1150 0 c-20 -13
-50 -13 -50 0 0 6 15 10 33 10 24 0 28 -3 17 -10z m130 -11 c0 -8 4 -8 13 -1
7 6 18 7 26 3 9 -6 10 -10 2 -15 -6 -4 -9 -11 -6 -16 3 -5 -8 -4 -25 1 -28 10
-43 39 -20 39 6 0 10 -5 10 -11z m-997 -6 c-7 -2 -21 -2 -30 0 -10 3 -4 5 12
5 17 0 24 -2 18 -5z m947 -2 c0 -11 -49 -21 -55 -11 -2 4 -2 10 2 14 10 9 53
7 53 -3z m1210 -7 c0 -13 -6 -15 -27 -9 -46 11 -51 25 -10 25 27 0 37 -4 37
-16z m-1426 -3 c7 -11 -3 -41 -14 -41 -11 0 -21 30 -14 41 3 5 9 9 14 9 5 0
11 -4 14 -9z m102 -5 c18 -14 17 -15 -19 -31 -30 -12 -42 -13 -53 -4 -22 18
-16 37 14 42 15 2 30 5 33 6 3 0 14 -5 25 -13z m441 8 c-3 -3 -12 -4 -19 -1
-8 3 -5 6 6 6 11 1 17 -2 13 -5z m353 -4 c8 -5 11 -10 5 -10 -5 0 -17 5 -25
10 -8 5 -10 10 -5 10 6 0 17 -5 25 -10z m440 1 c0 -5 12 -12 28 -14 15 -3 5
-4 -22 -3 -30 0 -51 6 -54 14 -2 7 6 12 22 12 14 0 26 -4 26 -9z m288 -14 c3
-14 -4 -17 -32 -17 -39 0 -47 13 -18 29 24 15 46 9 50 -12z m28 -23 c-4 -14
-9 -24 -12 -21 -3 2 -2 17 2 31 3 15 9 25 11 22 3 -3 2 -17 -1 -32z m-1136 8
c0 -16 -7 -19 -37 -17 -26 2 -39 8 -41 19 -3 13 5 16 37 16 33 0 41 -4 41 -18z
m-356 -1 c3 -5 -1 -14 -8 -20 -16 -13 -32 2 -21 19 8 12 22 13 29 1z m-876
-12 c11 0 12 -2 5 -6 -7 -2 -13 -9 -13 -15 0 -6 8 -4 18 5 21 19 37 23 27 7
-4 -7 2 -9 18 -5 32 8 44 -11 23 -34 -9 -10 -13 -21 -9 -26 5 -4 -14 -5 -42
-2 -27 4 -79 9 -115 13 -36 4 -72 11 -80 16 -10 6 6 7 45 3 33 -3 87 -8 120
-10 l60 -4 -50 10 c-27 5 -74 14 -103 20 -29 6 -50 14 -47 19 5 9 25 8 89 -5
27 -5 37 -5 32 3 -4 6 -14 8 -23 5 -11 -4 -14 -3 -9 6 5 7 15 10 23 7 8 -3 22
-6 31 -7z m172 7 c0 -3 -4 -8 -10 -11 -5 -3 -10 -1 -10 4 0 6 5 11 10 11 6 0
10 -2 10 -4z m947 -11 c0 -8 -4 -12 -9 -9 -5 3 -6 10 -3 15 9 13 12 11 12 -6z
m1283 -15 c0 -5 -2 -10 -4 -10 -3 0 -8 5 -11 10 -3 6 -1 10 4 10 6 0 11 -4 11
-10z m-2707 -25 c1 -5 -14 -11 -33 -12 -19 -1 -27 1 -17 3 9 3 17 10 17 15 0
13 30 7 33 -6z m2644 0 c6 -4 -29 -45 -39 -45 -6 0 -5 7 3 17 12 15 12 16 -3
11 -11 -5 -18 0 -21 12 -4 17 -1 18 27 13 17 -3 32 -7 33 -8z m-1780 -11 c-3
-3 -12 -4 -19 -1 -8 3 -5 6 6 6 11 1 17 -2 13 -5z m1104 -17 c-13 -13 -26 -3
-16 12 3 6 11 8 17 5 6 -4 6 -10 -1 -17z m-1338 -2 c4 -8 2 -17 -3 -20 -6 -4
-10 -2 -10 4 0 6 -7 8 -15 5 -8 -4 -15 -2 -15 3 0 25 35 31 43 8z m167 -1 c69
-7 104 -20 95 -34 -3 -5 3 -11 12 -13 10 -3 2 -5 -17 -5 -19 0 -29 2 -22 5 20
8 14 26 -8 20 -11 -3 -20 -1 -20 5 0 10 -46 7 -135 -8 -33 -5 -38 -4 -27 7 17
18 15 32 -3 26 -8 -4 -17 -2 -21 4 -4 7 9 8 38 5 23 -2 72 -8 108 -12z m-614
-19 c-10 -22 -12 -22 -38 -9 -38 20 -35 29 11 31 37 2 38 1 27 -22z m376 13
c-9 -9 -15 -9 -24 0 -9 9 -7 12 12 12 19 0 21 -3 12 -12z m524 -5 c-4 -9 -1
-20 6 -25 10 -6 9 -8 -4 -8 -10 0 -22 9 -28 19 -14 27 -13 31 11 31 16 0 19
-4 15 -17z m-710 -19 c6 -8 18 -14 27 -14 9 0 18 -4 22 -9 3 -6 -27 -9 -72 -9
-43 0 -72 3 -65 5 6 3 12 9 12 15 0 6 -6 8 -12 5 -7 -2 -24 -7 -38 -11 -24 -7
-24 -7 5 18 25 21 37 24 70 19 22 -3 45 -12 51 -19z m-119 10 c-3 -3 -12 -4
-19 -1 -8 3 -5 6 6 6 11 1 17 -2 13 -5z m1127 -4 c33 -12 33 -37 1 -52 -13 -6
-22 -14 -20 -19 8 -12 -50 -21 -92 -14 -37 6 -37 6 -18 -11 17 -14 17 -16 3
-11 -10 4 -18 2 -18 -3 0 -20 52 -23 88 -5 24 11 38 13 40 6 2 -6 8 -9 13 -5
5 3 9 0 9 -6 0 -6 -8 -13 -17 -17 -10 -3 -26 -15 -35 -27 l-17 -21 -56 29
c-41 21 -55 34 -55 50 0 20 31 56 48 56 5 0 21 14 37 30 31 32 48 36 89 20z
m271 1 c34 -8 36 -9 10 -9 -16 0 -52 3 -80 8 -49 7 -49 7 -10 8 22 1 58 -3 80
-7z m-692 -8 c-7 -2 -19 -2 -25 0 -7 3 -2 5 12 5 14 0 19 -2 13 -5z m1652 -21
c0 -18 -20 -15 -23 4 -3 10 1 15 10 12 7 -3 13 -10 13 -16z m-2570 -1 c-5 -10
-94 -6 -103 4 -3 3 20 5 52 5 33 0 55 -4 51 -9z m119 3 c17 -6 22 -59 7 -68
-4 -3 -18 5 -31 19 -19 20 -20 26 -9 39 17 18 14 17 33 10z m836 -4 c0 -5 -7
-10 -15 -10 -8 0 -15 5 -15 10 0 6 7 10 15 10 8 0 15 -4 15 -10z m465 -10 c-3
-5 -11 -10 -16 -10 -6 0 -7 5 -4 10 3 6 11 10 16 10 6 0 7 -4 4 -10z m591 -15
c-3 -9 -11 -13 -16 -10 -8 5 -7 11 1 21 14 18 24 11 15 -11z m-1743 -2 c5 -3
7 -21 5 -42 -3 -31 0 -36 21 -39 14 -2 21 0 17 7 -8 12 50 51 75 51 9 0 28 9
43 21 38 30 32 17 -23 -52 -49 -60 -71 -116 -71 -178 0 -17 -5 -31 -10 -31
-14 0 -3 92 16 139 18 42 17 46 -1 31 -11 -9 -34 -10 -102 -1 -153 20 -163 23
-157 32 3 6 13 8 22 5 26 -7 139 -16 122 -10 -57 22 -80 37 -80 54 0 10 6 21
13 23 13 6 96 -2 110 -10z m340 0 c-7 -2 -19 -2 -25 0 -7 3 -2 5 12 5 14 0 19
-2 13 -5z m977 3 c0 -2 -9 -6 -20 -9 -11 -3 -20 -1 -20 4 0 5 9 9 20 9 11 0
20 -2 20 -4z m920 -26 c0 -11 -4 -20 -10 -20 -5 0 -10 9 -10 20 0 11 5 20 10
20 6 0 10 -9 10 -20z m-1100 6 c0 -3 -4 -8 -10 -11 -5 -3 -10 -1 -10 4 0 6 5
11 10 11 6 0 10 -2 10 -4z m370 -23 c59 -31 66 -46 23 -51 -17 -2 -41 -19 -60
-40 l-33 -37 0 33 c0 18 -4 31 -9 28 -5 -3 -11 9 -14 27 -2 17 0 35 6 38 5 4
6 12 3 18 -13 20 29 12 84 -16z m-1690 7 c0 -5 -4 -10 -10 -10 -5 0 -10 5 -10
10 0 6 5 10 10 10 6 0 10 -4 10 -10z m430 6 c0 -3 -4 -8 -10 -11 -5 -3 -10 -1
-10 4 0 6 5 11 10 11 6 0 10 -2 10 -4z m1130 -14 c0 -10 -7 -19 -15 -19 -15 0
-20 18 -8 30 12 13 23 7 23 -11z m-1610 4 c0 -3 -4 -8 -10 -11 -5 -3 -10 -1
-10 4 0 6 5 11 10 11 6 0 10 -2 10 -4z m2259 -18 c14 -5 21 -14 17 -23 -6 -17
12 -31 35 -27 11 2 19 -7 23 -23 4 -14 11 -25 17 -25 6 0 7 5 3 12 -5 8 -2 9
10 5 29 -11 156 -21 156 -12 0 5 -7 17 -17 27 -15 17 -15 18 8 18 14 0 30 5
36 11 7 7 24 8 54 1 l44 -10 -43 -1 -43 -1 34 -30 c19 -16 41 -30 48 -30 10 1
10 4 -3 13 -15 12 -15 14 2 24 15 10 19 8 23 -15 3 -15 3 -30 0 -34 -12 -21
-99 0 -120 29 -12 15 -13 15 -13 1 0 -9 -6 -19 -12 -21 -7 -3 -1 -6 14 -6 32
-1 46 -17 21 -24 -10 -3 3 -5 28 -6 56 -1 81 -18 73 -48 -4 -13 -10 -23 -14
-23 -13 0 -32 29 -25 40 4 6 -8 10 -32 11 -63 2 -88 -2 -95 -16 -5 -8 -17 -11
-30 -7 -21 5 -21 6 -2 12 15 6 13 8 -14 12 -22 3 -32 1 -32 -9 0 -7 -5 -13
-11 -13 -5 0 -8 4 -5 9 4 5 3 17 -1 27 -5 14 -8 15 -17 2 -18 -24 -76 -31 -98
-12 -11 10 -18 12 -18 6 0 -7 -12 -12 -27 -12 l-28 1 28 15 c15 8 27 20 27 25
0 7 12 9 30 7 17 -3 30 -1 30 4 0 7 -80 13 -157 11 -18 0 -33 4 -33 8 0 5 21
10 48 11 43 1 44 2 10 5 -31 3 -38 8 -38 25 0 20 1 20 18 5 25 -22 29 -21 36
8 4 14 12 25 19 25 8 0 7 4 -3 10 -8 5 -32 10 -52 10 -20 0 -40 5 -43 10 -7
12 95 3 134 -12z m-2314 -8 c10 -11 13 -20 7 -20 -7 0 -12 5 -12 11 0 7 -10 5
-25 -5 -33 -22 -55 -20 -55 3 0 14 8 21 28 24 15 2 30 5 33 6 3 0 14 -8 24
-19z m738 13 c-7 -2 -19 -2 -25 0 -7 3 -2 5 12 5 14 0 19 -2 13 -5z m280 2
c20 -4 37 -11 37 -17 0 -5 -12 -7 -27 -4 -16 4 -47 7 -70 8 -24 1 -43 4 -43 8
0 9 60 12 103 5z m1550 -2 c-7 -2 -19 -2 -25 0 -7 3 -2 5 12 5 14 0 19 -2 13
-5z m-1436 -14 c-14 -8 -22 -8 -30 0 -8 8 -3 11 19 11 25 -1 27 -2 11 -11z
m1281 -4 c2 -1 -9 -5 -23 -7 -14 -3 -30 1 -36 8 -9 12 -5 13 22 8 19 -4 35 -8
37 -9z m-1671 -1 c-3 -3 -12 -4 -19 -1 -8 3 -5 6 6 6 11 1 17 -2 13 -5z m682
-6 c-1 -7 1 -25 5 -40 4 -15 5 -36 1 -48 l-7 -22 -21 21 c-17 16 -19 23 -9 33
7 7 12 25 12 40 0 15 5 28 10 28 6 0 10 -6 9 -12z m175 -7 c4 -5 0 -12 -6 -15
-9 -3 -4 -12 15 -26 21 -17 25 -25 17 -35 -8 -10 -8 -20 -1 -33 11 -21 6 -32
-16 -32 -10 0 -11 5 -3 19 7 15 6 23 -6 35 -18 18 -36 75 -28 87 7 12 21 11
28 0z m843 -28 c-17 -18 -22 -8 -11 22 5 12 10 13 17 6 8 -8 6 -16 -6 -28z
m83 30 c-19 -3 -38 -10 -42 -16 -5 -8 -8 -8 -8 -1 0 18 12 24 49 22 l36 -1
-35 -4z m-1537 -10 c-7 -2 -19 -2 -25 0 -7 3 -2 5 12 5 14 0 19 -2 13 -5z
m692 -39 c-15 -28 -16 -28 -11 -4 3 14 6 32 6 40 0 10 3 11 11 3 8 -8 6 -19
-6 -39z m410 36 c3 -5 1 -10 -4 -10 -6 0 -11 5 -11 10 0 6 2 10 4 10 3 0 8 -4
11 -10z m-1877 -16 c70 -8 128 -16 129 -18 2 -1 -3 -10 -10 -20 -10 -14 -18
-15 -37 -8 -14 6 -72 16 -130 22 -121 14 -130 16 -130 30 0 14 30 13 178 -6z
m427 -13 c44 -6 112 -14 152 -17 64 -6 72 -5 76 12 3 14 4 13 2 -3 -2 -20 4
-22 64 -29 75 -7 116 -23 63 -24 -45 0 -436 48 -500 62 -64 14 -50 28 16 17
26 -4 83 -12 127 -18z m122 13 c-3 -3 -12 -4 -19 -1 -8 3 -5 6 6 6 11 1 17 -2
13 -5z m1073 -1 c0 -9 -52 -35 -57 -29 -2 2 3 11 12 20 17 16 45 22 45 9z
m-740 -13 c0 -5 -7 -7 -15 -4 -8 4 -15 8 -15 10 0 2 7 4 15 4 8 0 15 -4 15
-10z m810 -56 c0 -18 7 -39 15 -48 23 -22 3 -27 -54 -14 -32 7 -51 17 -51 26
0 8 6 12 13 9 14 -5 47 54 47 84 1 30 30 -26 30 -57z m160 51 c0 -8 -9 -15
-19 -15 -11 0 -28 -3 -38 -6 -15 -5 -15 -4 -3 5 8 6 11 11 7 11 -5 0 -5 5 -2
10 10 16 55 12 55 -5z m-706 -29 c-3 -15 -8 -25 -11 -23 -2 3 -1 17 3 31 3 15
8 25 11 23 2 -3 1 -17 -3 -31z m-1224 -2 c84 -9 92 -18 20 -24 l-65 -5 118
-14 c89 -11 117 -18 117 -29 0 -10 -7 -13 -27 -9 -16 4 -89 14 -163 23 -80 11
-141 23 -149 31 -10 10 -17 11 -24 4 -16 -16 -27 -13 -21 4 4 8 17 15 29 15
13 0 27 5 31 11 4 7 21 9 43 5 20 -3 61 -9 91 -12z m495 -3 c39 -5 140 -17
225 -27 85 -9 159 -21 163 -25 12 -9 -26 -46 -41 -41 -7 2 -9 8 -6 14 4 6 -10
9 -37 8 -24 -2 -52 1 -61 5 -10 4 -25 5 -33 1 -8 -3 -15 -1 -15 4 0 13 -37 13
-45 -1 -5 -7 -12 -5 -23 5 -20 17 -130 27 -135 11 -2 -6 -10 -4 -21 4 -10 8
-52 20 -94 25 -48 7 -77 16 -80 25 -5 15 37 13 203 -8z m468 12 c-7 -2 -21 -2
-30 0 -10 3 -4 5 12 5 17 0 24 -2 18 -5z m-1183 -20 c0 -10 -3 -28 -6 -41 -7
-23 -7 -23 -21 -2 -16 23 -9 60 13 60 8 0 14 -8 14 -17z m1580 -4 c0 -5 -7 -9
-15 -9 -15 0 -20 12 -9 23 8 8 24 -1 24 -14z m-385 1 c7 -12 -2 -12 -30 0 -19
8 -19 9 2 9 12 1 25 -3 28 -9z m683 -17 c3 -19 -1 -23 -21 -23 -26 0 -38 15
-29 38 8 22 47 10 50 -15z m-1928 8 c0 -6 -4 -13 -10 -16 -5 -3 -10 1 -10 9 0
9 5 16 10 16 6 0 10 -4 10 -9z m420 -5 c0 -11 -19 -15 -25 -6 -3 5 1 10 9 10
9 0 16 -2 16 -4z m1010 -16 c52 -5 165 -19 250 -29 85 -11 157 -18 159 -15 2
2 -1 4 -7 4 -9 0 -9 6 0 25 13 30 24 32 37 6 8 -14 7 -20 -4 -25 -30 -11 -14
-26 28 -25 23 0 36 3 30 6 -17 6 -17 23 0 23 14 0 41 -39 33 -47 -6 -6 -146 8
-321 31 -55 8 -143 19 -195 25 -139 17 -160 21 -160 32 0 6 12 8 28 5 15 -3
70 -10 122 -16z m997 14 c-3 -3 -12 -4 -19 -1 -8 3 -5 6 6 6 11 1 17 -2 13 -5z
m-616 -27 c-10 -9 -11 -8 -5 6 3 10 9 15 12 12 3 -3 0 -11 -7 -18z m559 13 c0
-5 -6 -10 -14 -10 -8 0 -18 5 -21 10 -3 6 3 10 14 10 12 0 21 -4 21 -10z
m-1135 -19 c-3 -6 -11 -11 -17 -11 -6 0 -6 6 2 15 14 17 26 13 15 -4z m965 -1
c0 -5 -2 -10 -4 -10 -3 0 -8 5 -11 10 -3 6 -1 10 4 10 6 0 11 -4 11 -10z
m-1583 -14 c-1 -8 23 -10 77 -7 71 3 78 2 73 -14 -4 -9 -7 -21 -7 -26 0 -13
-57 -11 -82 2 -11 6 -48 11 -82 11 -73 1 -86 5 -86 27 0 13 11 17 55 17 34 1
53 -3 52 -10z m1807 3 c3 -2 7 -22 11 -43 l8 -39 -64 7 c-82 10 -99 19 -99 58
l0 31 70 -5 c39 -3 72 -7 74 -9z m-876 -24 c105 -14 196 -25 202 -25 5 0 10
-7 10 -15 0 -18 2 -18 -123 -1 -163 23 -271 36 -298 36 -14 0 -34 7 -45 15
-18 13 -16 14 22 15 22 0 127 -11 232 -25z m-643 5 c-3 -5 -11 -10 -16 -10 -6
0 -7 5 -4 10 3 6 11 10 16 10 6 0 7 -4 4 -10z m45 6 c0 -3 -4 -8 -10 -11 -5
-3 -10 -1 -10 4 0 6 5 11 10 11 6 0 10 -2 10 -4z m40 -6 c0 -5 -7 -10 -16 -10
-8 0 -12 5 -9 10 3 6 10 10 16 10 5 0 9 -4 9 -10z m1208 -13 c2 -11 -2 -14
-17 -10 -22 5 -26 14 -14 27 10 10 28 1 31 -17z m-1868 5 c0 -5 -9 -17 -20
-27 -11 -10 -20 -13 -20 -7 0 6 5 14 10 17 6 4 8 11 5 16 -4 5 1 9 9 9 9 0 16
-4 16 -8z m465 -46 c0 -58 -9 -65 -19 -15 -5 24 6 69 17 69 1 0 2 -24 2 -54z
m-996 -20 c13 -48 13 -59 2 -65 -18 -12 -109 -23 -121 -16 -23 14 -6 25 40 25
51 0 58 7 40 40 -6 12 -16 17 -25 13 -14 -5 -14 -2 -3 23 27 62 48 56 67 -20z
m361 43 c0 -5 -14 -9 -31 -9 -26 0 -29 3 -20 14 12 14 51 10 51 -5z m220 2 c0
-4 -17 -17 -38 -29 -38 -21 -39 -23 -37 -72 2 -47 0 -50 -23 -50 -21 0 -22 2
-12 15 11 13 5 15 -41 16 -35 1 -46 3 -31 7 13 4 23 12 22 17 -1 6 9 12 21 15
25 6 37 26 17 27 -7 1 -37 6 -65 12 -63 13 -73 10 -141 -42 -29 -22 -55 -38
-58 -35 -2 3 21 25 53 49 l58 44 107 0 c97 0 109 2 129 22 21 20 39 22 39 4z
m637 -5 c102 -12 137 -20 151 -34 18 -18 18 -19 -4 -47 -13 -16 -26 -26 -30
-22 -4 4 1 16 11 27 10 11 15 23 12 26 -3 4 -84 16 -179 27 -95 11 -175 22
-177 23 -1 2 0 8 4 14 5 7 21 10 44 6 20 -3 95 -12 168 -20z m233 20 c0 -3 -4
-8 -10 -11 -5 -3 -10 -1 -10 4 0 6 5 11 10 11 6 0 10 -2 10 -4z m760 -6 c-19
-13 -30 -13 -30 0 0 6 10 10 23 10 18 0 19 -2 7 -10z m59 -46 c-12 -13 -26
-24 -31 -24 -16 0 -8 21 19 48 34 34 46 12 12 -24z m-1398 8 c-18 -6 -141 8
-141 17 0 4 35 2 77 -3 42 -5 71 -12 64 -14z m1479 13 c10 -13 9 -15 -9 -15
-12 0 -21 6 -21 15 0 8 4 15 9 15 5 0 14 -7 21 -15z m-717 -5 c17 0 25 -30 7
-30 -5 0 -7 -7 -3 -17 6 -14 0 -15 -52 -10 -32 3 -63 11 -69 18 -8 9 2 10 47
5 36 -4 57 -2 57 4 0 5 -3 10 -7 11 -5 0 -27 1 -51 3 -23 1 -47 7 -53 13 -9 9
4 10 47 8 33 -3 67 -4 77 -5z m492 -5 c11 -2 28 -4 38 -4 15 -1 15 -4 5 -21
-7 -11 -14 -16 -16 -10 -2 5 -16 10 -31 10 -65 0 -121 13 -121 28 0 14 42 13
125 -3z m275 0 c0 -8 -4 -15 -10 -15 -5 0 -10 7 -10 15 0 8 5 15 10 15 6 0 10
-7 10 -15z m-617 -2 c-7 -2 -19 -2 -25 0 -7 3 -2 5 12 5 14 0 19 -2 13 -5z
m194 -15 c-3 -8 -6 -5 -6 6 -1 11 2 17 5 13 3 -3 4 -12 1 -19z m-1377 7 c0 -3
-9 -14 -20 -25 -19 -19 -20 -19 -20 -2 0 10 3 22 7 25 7 8 33 9 33 2z m210
-11 c36 -2 67 -4 69 -4 3 0 -5 -10 -16 -22 -46 -51 -61 -132 -25 -141 31 -8
-42 -6 -83 2 l-40 9 48 1 c47 1 47 1 47 36 0 27 -3 33 -15 29 -8 -4 -21 -2
-28 4 -6 5 -45 13 -84 17 -53 5 -73 11 -73 21 0 17 37 18 131 2 64 -10 72 -9
87 7 16 17 16 17 -2 11 -10 -3 -48 -1 -85 4 -103 17 -112 20 -105 31 4 8 24 9
58 4 28 -4 80 -9 116 -11z m150 6 c0 -5 -14 -7 -32 -3 -46 8 -48 13 -5 13 21
0 37 -4 37 -10z m913 3 c-7 -2 -21 -2 -30 0 -10 3 -4 5 12 5 17 0 24 -2 18 -5z
m-160 -34 c-6 -20 -38 -26 -48 -9 -13 20 3 38 28 33 18 -4 23 -10 20 -24z
m599 9 c-12 -12 -35 -1 -27 12 3 5 13 6 21 3 10 -4 12 -9 6 -15z m-1232 2 c0
-5 -4 -10 -9 -10 -18 0 -74 -82 -86 -128 -12 -44 -13 -45 -14 -14 -1 39 10 62
56 120 33 41 53 53 53 32z m390 1 c0 -6 -4 -13 -10 -16 -5 -3 -10 1 -10 9 0 9
5 16 10 16 6 0 10 -4 10 -9z m880 -11 c0 -11 -4 -20 -10 -20 -5 0 -10 9 -10
20 0 11 5 20 10 20 6 0 10 -9 10 -20z m-1087 1 c48 -1 63 -15 28 -26 -10 -3
-21 -15 -24 -27 -5 -16 -11 -19 -29 -14 -13 4 -54 9 -91 13 -54 5 -66 8 -55
18 10 9 30 10 85 2 67 -10 96 -6 80 10 -4 3 -20 7 -37 8 -16 1 -45 2 -62 3
-21 2 -28 5 -20 10 7 5 27 7 45 6 17 -1 53 -3 80 -3z m-294 -10 c11 -7 8 -16
-13 -47 -15 -22 -29 -56 -32 -76 -4 -21 -10 -35 -15 -33 -4 3 -2 26 6 51 13
43 12 45 -6 39 -15 -5 -19 -1 -19 15 0 18 5 21 25 18 15 -3 30 1 37 10 11 13
9 15 -14 10 -19 -4 -25 -1 -21 9 6 15 31 17 52 4z m1064 -31 c26 -6 61 -10 77
-10 21 0 30 -5 30 -16 0 -13 -6 -15 -32 -10 -71 15 -344 47 -360 43 -27 -7
-33 12 -7 21 21 8 200 -9 292 -28z m97 20 c0 -5 -5 -10 -11 -10 -5 0 -7 5 -4
10 3 6 8 10 11 10 2 0 4 -4 4 -10z m-697 -20 c-7 -25 -39 -45 -48 -30 -3 6 4
10 17 11 13 0 17 3 11 6 -18 7 -16 21 5 26 9 3 18 5 19 6 0 0 -1 -8 -4 -19z
m107 -1 c0 -15 -19 -49 -29 -49 -4 0 -6 14 -3 30 4 27 32 44 32 19z m1027 -11
c-3 -8 -6 -5 -6 6 -1 11 2 17 5 13 3 -3 4 -12 1 -19z m-990 -18 c-9 -25 -27
-42 -27 -26 0 15 21 56 29 56 5 0 4 -13 -2 -30z m923 15 c0 -17 -27 -32 -37
-21 -4 3 2 13 13 21 24 18 24 18 24 0z m-1800 -16 c87 -12 112 -22 95 -38 -10
-9 -223 19 -258 34 -29 12 1 27 43 21 19 -2 73 -10 120 -17z m1533 -27 c-4
-32 -10 -42 -24 -42 -28 0 -26 53 4 73 12 8 23 14 24 13 1 -1 -1 -20 -4 -44z
m385 36 c14 -14 16 -38 3 -38 -5 0 -11 9 -14 21 -3 12 -10 18 -16 14 -6 -3
-11 -1 -11 4 0 15 23 14 38 -1z m-2383 -28 c77 -11 246 -36 375 -55 130 -20
523 -76 873 -125 570 -80 642 -92 680 -114 110 -65 129 -113 134 -343 3 -98 1
-173 -4 -173 -5 0 -14 80 -19 178 -9 168 -11 180 -39 232 -25 46 -39 59 -85
82 -61 30 -152 49 -172 37 -9 -6 -4 -9 14 -9 15 0 29 -4 32 -8 2 -4 -12 -7
-32 -5 -20 2 -31 0 -24 -3 14 -7 16 -34 2 -34 -5 0 -10 -7 -10 -16 0 -11 -6
-15 -20 -11 -15 4 -20 0 -20 -14 0 -10 -4 -19 -9 -19 -14 0 -23 33 -11 40 6 4
10 11 9 16 -5 27 3 44 21 44 11 0 20 6 20 13 0 16 -80 32 -234 47 -54 6 -103
13 -109 17 -5 3 -60 12 -121 19 -61 7 -142 18 -181 24 -158 25 -484 71 -695
100 -124 17 -268 37 -320 45 -52 9 -111 13 -130 9 -26 -4 -31 -3 -20 5 11 7
-1 11 -45 13 -48 2 -60 6 -63 21 -3 15 1 17 30 13 18 -3 96 -14 173 -26z m125
20 c22 -7 21 -8 -12 -9 -20 -1 -40 4 -43 9 -7 12 19 12 55 0z m1330 -2 c0 -6
-8 -20 -17 -31 -10 -10 -18 -33 -18 -51 0 -30 -1 -31 -45 -30 -47 0 -170 12
-206 19 -18 4 -74 70 -74 87 0 16 48 -7 71 -34 24 -27 34 -30 115 -38 49 -4
92 -6 96 -4 3 2 12 21 19 42 6 20 17 40 23 44 17 12 36 9 36 -4z m600 2 c0 -5
-7 -10 -15 -10 -8 0 -15 5 -15 10 0 6 7 10 15 10 8 0 15 -4 15 -10z m-2380
-20 c0 -13 -7 -20 -18 -20 -24 0 -32 8 -25 26 8 22 43 17 43 -6z m58 3 c-2 -9
-10 -18 -18 -21 -8 -3 -12 -1 -8 3 4 5 3 14 -3 22 -9 10 -7 13 11 13 15 0 20
-5 18 -17z m1250 -2 c10 -5 1 -18 -28 -45 -40 -36 -45 -38 -89 -31 -54 8 -61
12 -61 30 0 11 15 13 73 9 50 -3 66 -1 52 5 -11 5 -41 10 -67 10 -46 1 -61 14
-41 35 9 9 141 -3 161 -13z m697 3 c140 -19 152 -21 139 -34 -8 -8 -106 2
-261 26 -34 5 -46 24 -15 24 9 0 71 -7 137 -16z m417 -9 c-2 -14 -8 -25 -13
-25 -10 0 -12 34 -2 43 13 14 20 6 15 -18z m408 10 c-7 -9 -15 -13 -19 -10 -3
3 1 10 9 15 21 14 24 12 10 -5z m-2210 -16 c16 -10 -15 -6 -100 11 -39 8 -37
8 20 3 36 -3 72 -9 80 -14z m2057 -13 c-3 -22 -1 -37 6 -40 7 -2 2 -5 -10 -5
-14 -1 -23 5 -23 14 0 8 5 15 10 15 6 0 10 11 10 25 0 14 3 25 6 25 4 0 4 -15
1 -34z m240 28 c-3 -3 -12 -4 -19 -1 -8 3 -5 6 6 6 11 1 17 -2 13 -5z m-2157
-34 c40 -8 38 -9 -20 -4 -35 3 -71 10 -80 15 -16 10 15 7 100 -11z m230 11 c0
-9 -24 -21 -41 -21 -5 0 -9 7 -9 15 0 9 9 15 25 15 14 0 25 -4 25 -9z m640 -3
c71 -12 94 -28 41 -28 -74 0 -151 13 -151 26 0 17 20 17 110 2z m-1525 -8 c4
-6 16 -8 27 -4 14 4 18 2 14 -5 -4 -6 -14 -11 -22 -11 -9 0 -14 -11 -14 -33 0
-31 -3 -34 -30 -34 -28 0 -30 3 -30 38 0 26 6 41 18 48 22 13 29 13 37 1z
m1903 -16 c82 -11 131 -22 128 -28 -2 -6 -8 -10 -14 -9 -21 5 -177 24 -244 30
-38 3 -68 9 -68 13 0 15 16 21 40 17 14 -3 85 -13 158 -23z m159 -6 c-3 -7 -5
-2 -5 12 0 14 2 19 5 13 2 -7 2 -19 0 -25z m93 15 c2 -2 -2 -8 -10 -13 -10 -7
-19 -5 -26 5 -6 8 -14 12 -17 8 -4 -3 -7 -1 -7 6 0 10 46 6 60 -6z m120 9 c0
-14 -11 -21 -26 -15 -8 3 -11 9 -8 14 7 11 34 12 34 1z m539 -49 c-18 -26 -33
-50 -35 -52 -1 -1 -8 0 -15 4 -8 6 -7 10 5 17 9 5 16 18 16 28 0 11 7 20 15
20 8 0 20 9 27 20 7 10 14 17 16 15 2 -2 -11 -25 -29 -52z m-2925 2 c11 -85
13 -101 21 -120 6 -15 5 -17 -4 -9 -7 6 -19 45 -27 85 l-14 74 5 -62 c5 -73 0
-93 -25 -93 -24 0 -27 4 -34 74 -8 66 7 95 49 92 21 -1 25 -7 29 -41z m1426
35 c12 -8 11 -10 -7 -10 -12 0 -25 5 -28 10 -8 13 15 13 35 0z m1188 -7 c-4
-22 -22 -20 -26 1 -2 10 3 16 13 16 10 0 15 -7 13 -17z m225 10 c-7 -2 -19 -2
-25 0 -7 3 -2 5 12 5 14 0 19 -2 13 -5z m52 -3 c-3 -5 -13 -10 -21 -10 -8 0
-12 5 -9 10 3 6 13 10 21 10 8 0 12 -4 9 -10z m-2637 -17 c2 -9 -11 -13 -47
-13 -48 0 -61 7 -44 24 12 11 86 2 91 -11z m52 -13 c0 -5 -7 -7 -15 -4 -8 4
-12 10 -9 15 6 11 24 2 24 -11z m1154 -2 c-4 -6 -11 -25 -15 -42 l-7 -31 -1
32 c-1 39 8 65 20 57 5 -3 6 -10 3 -16z m-1017 6 c-3 -3 -12 -4 -19 -1 -8 3
-5 6 6 6 11 1 17 -2 13 -5z m540 0 c-3 -3 -12 -4 -19 -1 -8 3 -5 6 6 6 11 1
17 -2 13 -5z m412 0 c30 -6 45 -34 17 -34 -39 0 -74 13 -69 26 6 16 9 16 52 8z
m988 0 c-3 -3 -12 -4 -19 -1 -8 3 -5 6 6 6 11 1 17 -2 13 -5z m752 -13 c10
-16 81 -27 81 -12 0 16 30 13 36 -4 5 -11 22 -15 66 -15 99 0 148 -42 148
-127 0 -66 -73 -199 -157 -286 -54 -57 -111 -87 -208 -112 -87 -22 -211 -63
-247 -81 -15 -8 -33 -14 -40 -13 -11 0 -11 2 0 6 10 4 10 8 1 19 -8 10 -8 14
0 14 6 0 11 -4 11 -10 0 -5 7 -10 16 -10 8 0 12 5 9 10 -3 6 4 10 18 10 13 0
49 10 81 23 55 23 56 24 32 35 -19 8 -28 8 -43 -3 -10 -8 -22 -14 -28 -15 -5
0 -3 4 5 10 18 11 13 16 -25 22 -16 3 -24 3 -17 1 6 -3 12 -8 12 -13 0 -11
-27 -20 -44 -14 -8 3 -17 1 -21 -5 -3 -6 -1 -11 4 -11 6 0 11 -4 11 -10 0 -13
-50 -13 -70 0 -12 8 -11 10 6 10 22 0 39 24 28 41 -9 15 -34 10 -34 -6 0 -12
-7 -14 -27 -9 -21 6 -25 4 -20 -9 7 -20 -9 -33 -52 -42 -19 -4 -29 -10 -22
-14 7 -5 3 -12 -14 -21 -18 -10 -22 -16 -13 -22 8 -5 2 -8 -17 -9 -16 0 -39
-4 -50 -9 -19 -8 -19 -9 -1 -9 11 -1 16 -4 13 -8 -4 -3 -2 -12 5 -20 6 -7 8
-16 5 -20 -4 -3 -16 6 -28 20 -25 32 -30 33 -60 7 l-24 -20 28 6 c32 7 36 -3
5 -15 -18 -6 -12 -9 30 -15 29 -4 57 -4 63 -1 12 8 41 -14 34 -25 -3 -4 -24
-4 -47 0 -60 11 -148 6 -157 -9 -6 -9 -10 -6 -14 10 -8 29 -6 30 34 31 19 1
28 3 22 5 -7 3 -13 10 -13 16 0 16 41 57 57 57 7 0 13 8 13 18 0 26 30 64 46
58 8 -3 11 0 8 9 -3 8 20 48 53 90 32 42 72 96 88 119 17 24 37 50 45 58 8 8
40 49 70 91 48 66 60 76 93 81 80 13 145 63 131 100 -5 12 -10 10 -29 -12 -24
-28 -92 -59 -103 -47 -4 4 -2 9 3 11 34 13 75 46 69 56 -4 6 -3 8 4 4 6 -3 13
-2 16 3 4 5 -3 12 -14 16 -25 8 -26 22 -2 29 31 9 133 0 141 -13z m127 10 c-5
-8 -56 -3 -56 5 0 2 14 4 31 4 16 0 28 -4 25 -9z m-2856 -11 c0 -11 -40 -34
-47 -26 -3 3 -3 12 0 21 7 16 47 21 47 5z m68 -15 c-3 -3 -9 2 -12 12 -6 14
-5 15 5 6 7 -7 10 -15 7 -18z m1591 -5 c112 -16 206 -32 209 -35 3 -3 1 -10
-5 -16 -9 -9 -74 -3 -245 21 -128 17 -235 33 -237 35 -1 2 0 8 4 14 10 16 51
13 274 -19z m182 20 c11 0 19 -7 19 -16 0 -11 -5 -14 -16 -10 -9 3 -24 6 -35
6 -11 0 -19 7 -19 16 0 11 5 14 16 10 9 -3 24 -6 35 -6z m1072 3 c-7 -2 -19
-2 -25 0 -7 3 -2 5 12 5 14 0 19 -2 13 -5z m-3173 -24 c0 -5 -4 -9 -10 -9 -5
0 -10 7 -10 16 0 8 5 12 10 9 6 -3 10 -10 10 -16z m219 -23 c5 -4 25 3 43 14
45 27 48 26 48 -17 0 -31 -5 -40 -25 -50 -14 -6 -25 -8 -25 -3 0 4 7 10 15 14
8 3 15 15 15 26 0 29 -34 22 -38 -8 -2 -14 -10 -22 -23 -22 -30 0 -48 24 -44
56 5 41 5 41 15 18 5 -12 13 -25 19 -28z m784 37 c-7 -2 -19 -2 -25 0 -7 3 -2
5 12 5 14 0 19 -2 13 -5z m1590 -8 c4 -8 3 -16 -1 -19 -4 -3 -9 4 -9 15 -2 23
3 25 10 4z m630 8 c-7 -2 -19 -2 -25 0 -7 3 -2 5 12 5 14 0 19 -2 13 -5z
m-3170 -23 c4 -16 0 -20 -19 -20 -36 0 -30 35 7 39 4 1 9 -8 12 -19z m1000 13
c-7 -2 -19 -2 -25 0 -7 3 -2 5 12 5 14 0 19 -2 13 -5z m313 -41 c-12 -11 -18
7 -10 30 l8 23 4 -23 c2 -13 1 -26 -2 -30z m124 34 c25 -3 70 -8 100 -11 61
-5 472 -63 507 -70 13 -3 20 -11 17 -18 -6 -16 -7 -15 -324 28 -298 42 -390
57 -390 65 0 13 14 20 29 16 9 -3 36 -7 61 -10z m1077 -8 c-3 -8 -6 -5 -6 6
-1 11 2 17 5 13 3 -3 4 -12 1 -19z m-2459 -6 c2 -7 -3 -12 -12 -12 -9 0 -16 7
-16 16 0 17 22 14 28 -4z m51 -1 c9 -6 6 -8 -13 -8 -14 0 -23 3 -20 8 7 11 15
11 33 0z m311 4 c0 -5 -56 -35 -66 -35 -4 0 1 9 11 20 16 17 55 28 55 15z
m717 -1 c-3 -3 -12 -4 -19 -1 -8 3 -5 6 6 6 11 1 17 -2 13 -5z m64 -12 c-7 -2
-18 1 -23 6 -8 8 -4 9 13 5 13 -4 18 -8 10 -11z m-746 -1 c3 -5 -8 -16 -25
-24 -28 -15 -29 -14 -20 3 5 10 15 21 22 23 7 3 14 6 15 6 1 1 4 -3 8 -8z
m-500 -21 c25 -27 31 -109 11 -135 l-15 -20 -1 20 c0 11 4 26 9 34 5 8 7 20 4
28 -4 11 -8 10 -19 -4 -12 -16 -13 -13 -8 24 4 28 2 48 -6 58 -19 23 4 18 25
-5z m655 5 c0 -8 9 -15 20 -15 14 0 18 5 13 18 -5 13 -3 14 6 6 20 -18 9 -47
-19 -54 -14 -3 -29 -16 -35 -28 -10 -22 -45 -31 -45 -12 0 6 -7 10 -15 10 -8
0 -15 5 -15 11 0 7 14 10 36 7 26 -3 38 0 45 13 6 12 5 20 -3 25 -6 4 -14 2
-16 -4 -5 -17 -22 -15 -22 3 0 8 9 15 21 15 11 0 17 5 14 10 -3 6 -1 10 4 10
6 0 11 -7 11 -15z m-608 -57 c2 -20 1 -35 -3 -33 -10 7 -19 77 -11 89 7 12 8
6 14 -56z m1467 46 c2 -2 -14 -4 -37 -4 -22 0 -44 5 -47 10 -6 10 73 3 84 -6z
m-1124 -13 c3 -5 1 -12 -5 -16 -5 -3 -10 1 -10 9 0 18 6 21 15 7z m1235 0 c33
-6 37 -9 15 -9 -16 0 -50 3 -75 7 -33 6 -37 9 -15 9 17 0 50 -3 75 -7z m897
-13 c-3 -8 -6 -5 -6 6 -1 11 2 17 5 13 3 -3 4 -12 1 -19z m-2083 -3 c4 -11 -1
-15 -19 -15 -24 0 -32 10 -18 23 11 12 31 8 37 -8z m441 -5 c3 0 3 5 0 10 -4
6 5 10 20 10 22 0 24 -3 15 -19 -13 -26 -50 -37 -61 -20 -6 11 -11 11 -20 2
-12 -12 -39 -7 -39 8 0 15 43 27 62 18 9 -5 19 -9 23 -9z m-633 -35 c2 -25 0
-45 -4 -45 -5 0 -8 6 -8 14 0 7 -3 28 -6 45 -4 18 -2 31 4 31 5 0 12 -20 14
-45z m852 30 c3 -8 12 -12 21 -9 29 11 15 -11 -16 -25 -32 -14 -50 -8 -31 11
17 17 15 30 -5 26 -10 -2 -18 -12 -18 -23 0 -14 -6 -19 -20 -17 -11 2 -22 8
-23 13 -8 22 -21 -4 -15 -31 3 -18 1 -30 -5 -30 -6 0 -10 18 -9 43 2 35 5 43
18 40 9 -3 20 0 23 6 11 17 73 14 80 -4z m711 -6 c9 -9 -1 -8 -95 11 -40 8
-38 9 20 4 36 -3 69 -10 75 -15z m-1845 -9 c0 -11 -7 -20 -15 -20 -15 0 -21
21 -8 33 12 13 23 7 23 -13z m190 5 c-7 -8 -22 -15 -34 -15 -20 1 -20 2 4 15
33 19 46 19 30 0z m1988 -26 c-9 -6 -14 -3 -16 8 -2 8 2 19 10 24 9 6 14 3 16
-8 2 -8 -2 -19 -10 -24z m-1448 11 c0 -11 -6 -20 -14 -20 -9 0 -12 7 -9 20 3
11 9 20 14 20 5 0 9 -9 9 -20z m597 14 c-3 -3 -12 -4 -19 -1 -8 3 -5 6 6 6 11
1 17 -2 13 -5z m576 -1 c-7 -2 -21 -2 -30 0 -10 3 -4 5 12 5 17 0 24 -2 18 -5z
m-2093 -13 c0 -12 -17 -12 -45 0 -17 7 -15 9 13 9 17 1 32 -3 32 -9z m590 0
c0 -5 -5 -10 -11 -10 -5 0 -7 5 -4 10 3 6 8 10 11 10 2 0 4 -4 4 -10z m1568 3
c-10 -2 -26 -2 -35 0 -10 3 -2 5 17 5 19 0 27 -2 18 -5z m-1488 -32 c0 -16 3
-38 6 -48 5 -12 4 -15 -3 -8 -15 15 -26 85 -13 85 5 0 10 -13 10 -29z m344 8
c-3 -5 -10 -7 -15 -3 -5 3 -7 10 -3 15 3 5 10 7 15 3 5 -3 7 -10 3 -15z m119
-16 c-3 -7 -11 -13 -19 -13 -17 0 -19 37 -1 43 15 5 27 -12 20 -30z m313 22
c-3 -8 -1 -15 4 -15 6 0 10 5 10 11 0 8 12 10 35 6 19 -3 37 -1 40 4 9 14 25
11 25 -6 0 -22 -47 -42 -62 -27 -8 8 -17 8 -31 1 -13 -8 -22 -8 -29 -1 -11 11
-4 42 8 42 3 0 4 -7 0 -15z m767 8 c-7 -2 -19 -2 -25 0 -7 3 -2 5 12 5 14 0
19 -2 13 -5z m-2268 -13 c3 -5 -3 -10 -14 -10 -12 0 -21 5 -21 10 0 6 6 10 14
10 8 0 18 -4 21 -10z m1125 -16 c0 -8 -8 -14 -18 -14 -23 0 -32 8 -26 25 7 17
44 7 44 -11z m1213 19 c-7 -2 -19 -2 -25 0 -7 3 -2 5 12 5 14 0 19 -2 13 -5z
m-2162 -23 c-24 -20 -51 -27 -51 -12 0 16 25 32 50 32 l25 -1 -24 -19z m1469
10 c0 -5 -4 -10 -10 -10 -5 0 -10 5 -10 10 0 6 5 10 10 10 6 0 10 -4 10 -10z
m171 -7 l34 -17 -30 -12 c-17 -7 -35 -13 -40 -14 -6 0 -19 -11 -29 -25 -19
-25 -56 -34 -56 -14 0 6 -16 -1 -35 -15 -19 -15 -35 -23 -35 -17 0 5 11 18 24
29 14 10 27 32 29 48 7 51 74 69 138 37z m-1861 -8 c0 -8 -4 -15 -10 -15 -5 0
-10 7 -10 15 0 8 5 15 10 15 6 0 10 -7 10 -15z m278 3 c-3 -7 -15 -14 -29 -16
-24 -4 -24 -3 -4 12 24 19 38 20 33 4z m165 5 c-7 -2 -21 -2 -30 0 -10 3 -4 5
12 5 17 0 24 -2 18 -5z m432 -12 c-3 -6 -14 -11 -23 -11 -13 0 -13 2 4 14 21
15 30 14 19 -3z m93 -37 c2 -31 0 -44 -7 -39 -6 3 -11 27 -11 52 0 58 12 48
18 -13z m-920 23 c2 -10 -3 -17 -11 -17 -16 0 -30 24 -19 34 10 10 27 1 30
-17z m47 13 c3 -5 1 -10 -4 -10 -6 0 -11 5 -11 10 0 6 2 10 4 10 3 0 8 -4 11
-10z m1338 -4 c7 -18 -1 -26 -27 -25 -12 0 -15 3 -8 6 6 2 12 11 12 19 0 18
16 18 23 0z m654 -15 c18 -24 10 -36 -23 -33 -36 5 -42 10 -24 23 13 8 13 10
0 19 -11 7 -17 4 -22 -9 -9 -26 -49 -31 -70 -9 -17 17 -17 18 16 18 19 0 38 5
41 11 9 14 67 0 82 -20z m-1664 -7 c-22 -16 -40 -18 -48 -4 -7 12 34 30 53 23
9 -4 8 -9 -5 -19z m652 16 c-3 -5 -16 -15 -28 -21 -22 -12 -22 -12 -3 10 19
21 43 30 31 11z m303 -7 c2 -8 -6 -13 -22 -13 -17 0 -26 5 -26 16 0 19 41 16
48 -3z m-1198 -13 c20 0 36 -17 26 -27 -10 -11 -56 20 -55 36 0 11 2 12 6 4 2
-7 13 -13 23 -13z m1480 0 c0 -21 -15 -27 -25 -10 -7 12 2 30 16 30 5 0 9 -9
9 -20z m-1184 -5 c-11 -8 -27 -15 -35 -15 -13 1 -12 4 3 15 11 8 27 15 35 15
13 -1 12 -4 -3 -15z m212 -4 c3 -10 -2 -12 -22 -7 -27 7 -37 -8 -11 -18 17 -6
21 -50 4 -44 -6 2 -11 8 -12 13 0 6 -7 16 -14 23 -7 8 -10 18 -7 24 4 6 -7 3
-24 -8 -34 -19 -53 -14 -33 10 7 8 29 17 49 19 53 6 65 4 70 -12z m481 -18 c0
-33 -1 -35 -9 -15 -8 20 -4 52 6 52 2 0 4 -17 3 -37z m431 23 c0 -16 -27 -29
-41 -20 -19 11 -9 34 16 34 15 0 25 -6 25 -14z m960 -27 c0 -11 -4 -17 -10
-14 -5 3 -10 15 -10 26 0 11 5 17 10 14 6 -3 10 -15 10 -26z m-2290 11 c0 -5
-4 -10 -10 -10 -5 0 -10 5 -10 10 0 6 5 10 10 10 6 0 10 -4 10 -10z m1570 -15
c0 -14 -4 -25 -10 -25 -5 0 -10 11 -10 25 0 14 5 25 10 25 6 0 10 -11 10 -25z
m490 -1 c0 -8 -7 -17 -16 -21 -11 -4 -14 -13 -10 -29 5 -17 2 -24 -9 -24 -8 0
-15 7 -15 15 0 8 -9 15 -20 15 -14 0 -20 -6 -18 -17 2 -12 -4 -19 -19 -21 -32
-5 -28 15 10 51 57 54 97 67 97 31z m527 20 c-3 -3 -12 -4 -19 -1 -8 3 -5 6 6
6 11 1 17 -2 13 -5z m-2377 -24 c0 -11 -4 -20 -10 -20 -5 0 -10 9 -10 20 0 11
5 20 10 20 6 0 10 -9 10 -20z m383 13 c-7 -2 -19 -2 -25 0 -7 3 -2 5 12 5 14
0 19 -2 13 -5z m-538 -22 c-3 -6 -11 -11 -17 -11 -6 0 -6 6 2 15 14 17 26 13
15 -4z m1617 -13 c-8 -8 -9 -4 -5 13 4 13 8 18 11 10 2 -7 -1 -18 -6 -23z
m122 26 c18 -7 22 -34 5 -34 -7 0 -18 8 -25 18 -13 16 -14 16 -20 -5 -8 -30
-54 -33 -54 -4 0 25 55 40 94 25z m-1914 -20 c0 -10 5 -14 15 -10 10 3 18 -1
22 -11 6 -15 7 -14 14 3 6 17 8 15 14 -10 6 -23 4 -32 -10 -42 -26 -19 -11
-30 20 -16 34 16 40 15 25 -3 -16 -19 -1 -19 27 0 20 14 23 14 33 -5 18 -33
-2 -49 -48 -40 -21 3 -43 5 -50 2 -18 -6 -14 -20 5 -18 10 0 18 -6 18 -16 0
-10 -3 -18 -7 -18 -5 0 -15 0 -23 0 -8 0 -15 8 -15 17 0 12 -3 14 -11 6 -16
-16 -4 -30 31 -38 20 -4 30 -13 30 -25 0 -10 3 -27 6 -37 5 -17 5 -17 -9 0 -8
9 -19 17 -25 17 -5 0 -12 7 -16 15 -8 22 -43 18 -49 -4 -3 -11 2 -29 9 -40 16
-22 88 -46 105 -35 12 7 29 -12 29 -32 0 -18 -59 -25 -101 -13 -40 12 -75 43
-80 69 -3 20 15 63 34 79 13 10 15 28 11 94 -4 50 -11 88 -20 98 -8 9 -11 19
-7 22 11 12 23 7 23 -9z m260 6 c0 -5 -4 -10 -10 -10 -5 0 -10 5 -10 10 0 6 5
10 10 10 6 0 10 -4 10 -10z m410 1 c0 -10 -42 -23 -49 -15 -7 6 20 24 37 24 6
0 12 -4 12 -9z m770 -25 c0 -19 3 -43 6 -53 5 -12 4 -15 -4 -8 -12 12 -21 95
-10 95 5 0 8 -15 8 -34z m822 24 c11 0 37 -18 57 -39 50 -52 59 -102 31 -163
-11 -23 -19 -36 -16 -28 2 8 -1 23 -6 34 -7 13 -6 21 1 26 13 7 4 40 -11 40
-5 0 -8 -8 -7 -17 4 -48 -2 -123 -11 -123 -5 0 -10 7 -10 16 0 8 -5 12 -11 9
-6 -5 -8 -22 -4 -46 7 -40 7 -40 -22 -33 -52 11 -63 15 -63 23 0 14 40 54 47
48 3 -4 12 -2 18 3 17 14 7 63 -11 56 -8 -3 -14 2 -15 12 0 9 -5 2 -10 -15 -5
-18 -16 -33 -23 -33 -20 0 -28 159 -9 181 7 8 13 22 13 31 0 20 11 30 28 23 7
-3 23 -5 34 -5z m-1532 -15 c0 -8 -5 -15 -10 -15 -6 0 -8 -12 -5 -27 l5 -28
-12 25 c-9 18 -20 24 -35 22 -13 -2 -23 1 -23 7 0 11 12 15 43 12 9 -1 17 3
17 8 0 6 5 11 10 11 6 0 10 -7 10 -15z m-281 -9 c7 -9 8 -17 2 -20 -14 -9 -41
4 -41 20 0 18 24 18 39 0z m435 -1 c-7 -17 11 -21 21 -5 10 17 25 11 25 -10 0
-16 -7 -20 -30 -20 -16 0 -30 5 -30 10 0 6 -10 8 -24 4 -32 -8 -44 14 -14 25
36 15 58 13 52 -4z m758 -52 c2 -23 0 -39 -4 -37 -5 3 -7 29 -7 57 1 56 6 48
11 -20z m-1362 8 c0 -31 -4 -41 -20 -46 -11 -3 -20 -11 -20 -17 0 -7 4 -7 13
-1 6 6 27 10 45 10 18 0 28 -4 21 -8 -6 -4 -8 -12 -4 -18 5 -9 10 -9 21 0 7 6
21 8 30 5 16 -6 16 -8 0 -24 -9 -10 -16 -26 -16 -36 0 -24 -30 -33 -42 -13
-12 22 -29 22 -21 1 4 -12 0 -15 -17 -12 -33 4 -36 26 -6 39 26 12 36 39 15
39 -5 0 -7 -4 -4 -10 3 -5 -6 -12 -20 -16 -14 -3 -25 -13 -25 -23 0 -14 -2
-14 -10 -1 -13 20 -13 43 0 35 6 -3 10 0 10 8 0 11 -7 13 -22 10 -22 -6 -22
-5 4 23 15 16 33 44 39 62 15 44 29 40 29 -7z m95 29 c-3 -5 -11 -10 -16 -10
-6 0 -7 5 -4 10 3 6 11 10 16 10 6 0 7 -4 4 -10z m254 -11 c33 -5 40 -29 8
-29 -25 0 -62 32 -50 43 4 4 9 3 12 -2 3 -5 17 -11 30 -12z m459 -1 c-5 -13
-59 -31 -67 -22 -9 9 30 34 52 34 10 0 17 -5 15 -12z m39 -33 c1 -15 4 -34 7
-41 3 -7 -1 -15 -9 -17 -17 -7 -26 28 -11 44 8 9 7 11 -6 6 -19 -7 -22 1 -12
28 10 24 28 12 31 -20z m732 -2 c0 -34 -1 -36 -11 -16 -6 12 -8 29 -5 37 11
27 17 18 16 -21z m836 27 c-3 -5 -21 -9 -38 -9 l-32 1 30 8 c43 11 47 11 40 0z
m-2130 -10 c-3 -5 -11 -10 -16 -10 -6 0 -7 5 -4 10 3 6 11 10 16 10 6 0 7 -4
4 -10z m-93 -67 c2 -15 7 -22 16 -18 8 3 18 5 23 5 6 0 7 5 4 10 -7 12 15 13
30 2 6 -4 16 -15 23 -24 18 -23 -1 -58 -31 -59 l-22 0 22 -9 c26 -11 28 -49 2
-43 -9 3 -20 15 -24 26 l-6 22 -9 -22 c-13 -33 -40 -30 -40 5 0 15 -5 34 -10
42 -7 12 -10 8 -10 -15 -1 -26 -2 -27 -11 -12 -8 14 -6 27 10 57 14 26 19 51
16 72 -5 30 -5 31 5 9 6 -13 11 -35 12 -48z m338 51 c0 -8 -4 -12 -10 -9 -5 3
-10 10 -10 16 0 5 5 9 10 9 6 0 10 -7 10 -16z m61 -6 c-9 -25 -42 -31 -49 -10
-2 6 7 16 20 21 35 14 38 13 29 -11z m59 2 c0 -11 -4 -20 -10 -20 -5 0 -10 9
-10 20 0 11 5 20 10 20 6 0 10 -9 10 -20z m1014 8 c-3 -4 -9 -8 -15 -8 -5 0
-9 4 -9 8 0 5 7 9 15 9 8 0 12 -4 9 -9z m206 -22 c-14 -14 -24 0 -16 21 6 15
8 15 16 3 6 -9 5 -19 0 -24z m-865 14 c3 -5 14 -10 23 -9 14 0 13 2 -3 9 -19
8 -19 9 3 9 13 1 30 -5 38 -13 17 -17 8 -47 -12 -39 -8 3 -11 10 -8 15 5 7 -9
8 -40 4 -37 -6 -46 -4 -46 8 0 21 34 34 45 16z m803 -18 c2 -15 -2 -22 -12
-22 -9 0 -16 7 -16 16 0 8 -4 12 -10 9 -5 -3 -10 -2 -10 4 0 11 20 21 35 17 6
-1 11 -12 13 -24z m-508 -23 c0 -6 -4 -7 -10 -4 -5 3 -10 2 -10 -4 0 -6 -11
-13 -24 -17 -15 -3 -29 -17 -35 -34 -7 -22 -14 -27 -30 -23 -31 8 -28 43 4 43
16 0 25 6 25 15 0 17 -25 20 -35 5 -10 -17 -25 -11 -18 7 5 12 2 15 -10 10
-18 -7 -24 8 -7 18 5 3 29 10 52 14 44 8 98 -8 98 -30z m-1263 25 c-3 -3 -12
-4 -19 -1 -8 3 -5 6 6 6 11 1 17 -2 13 -5z m43 -4 c0 -5 -4 -10 -9 -10 -6 0
-13 5 -16 10 -3 6 1 10 9 10 9 0 16 -4 16 -10z m329 -78 c8 -3 11 0 7 7 -8 12
3 13 56 5 23 -4 35 -11 32 -19 -3 -7 1 -15 10 -18 8 -3 17 1 20 9 6 16 26 19
26 4 0 -5 -20 -19 -45 -31 -43 -20 -53 -38 -46 -81 0 -5 -3 -8 -8 -8 -12 0
-24 37 -16 50 3 5 2 10 -4 10 -14 0 -31 -33 -31 -59 0 -16 7 -21 28 -22 15 0
21 -3 14 -6 -11 -4 -63 3 -176 24 l-30 5 40 14 c36 12 41 12 66 -6 15 -11 29
-16 32 -11 3 5 -6 16 -20 26 -22 14 -25 21 -19 52 3 19 11 47 17 62 6 14 10
40 10 56 -1 24 1 22 11 -14 7 -25 19 -47 26 -49z m318 66 c-3 -8 -6 -5 -6 6
-1 11 2 17 5 13 3 -3 4 -12 1 -19z m61 -6 c3 -16 -2 -22 -17 -22 -24 0 -35 15
-27 36 9 23 40 13 44 -14z m122 8 c0 -5 -2 -10 -4 -10 -3 0 -8 5 -11 10 -3 6
-1 10 4 10 6 0 11 -4 11 -10z m590 -31 c0 -12 -11 -21 -35 -28 -44 -12 -75 -4
-75 19 0 22 31 34 60 25 11 -4 20 -2 20 4 0 6 7 8 15 5 8 -4 15 -14 15 -25z
m-1330 18 c0 -2 -13 -13 -30 -25 -35 -26 -40 -22 -8 8 19 18 38 26 38 17z
m410 -26 c0 -16 3 -36 6 -45 6 -17 34 -22 34 -7 0 5 15 11 34 13 34 4 76 -19
76 -41 0 -16 16 -13 31 5 8 9 12 28 11 42 -2 14 0 22 6 18 5 -3 12 -22 14 -42
4 -30 2 -35 -14 -31 -10 3 -18 2 -18 -2 0 -4 -15 -11 -32 -16 -29 -9 -33 -14
-33 -45 0 -27 -4 -35 -20 -37 l-20 -3 20 9 c19 9 19 10 -2 10 -13 1 -22 6 -20
12 1 6 -4 14 -10 16 -8 3 -13 -4 -13 -15 0 -18 -4 -20 -32 -11 -17 5 -35 14
-40 21 -13 21 -9 60 7 78 11 13 13 24 5 51 -12 43 -12 49 0 49 6 0 10 -13 10
-29z m370 14 c0 -8 -4 -15 -10 -15 -5 0 -10 7 -10 15 0 8 5 15 10 15 6 0 10
-7 10 -15z m60 -15 c0 -13 -7 -20 -19 -20 -22 0 -35 15 -26 30 12 19 45 11 45
-10z m60 -5 c0 -8 -4 -15 -10 -15 -5 0 -10 7 -10 15 0 8 5 15 10 15 6 0 10 -7
10 -15z m673 -2 c7 -4 19 -6 28 -5 10 2 19 -6 22 -18 4 -17 2 -20 -11 -15 -9
4 -22 8 -29 8 -7 0 -14 6 -17 14 -3 7 -11 13 -17 13 -9 0 -9 -4 0 -14 10 -11
7 -17 -11 -30 -27 -19 -39 -20 -32 -3 3 9 -7 12 -35 12 -46 0 -59 9 -42 29 8
9 26 13 54 10 38 -3 39 -2 12 6 -25 8 -22 9 18 5 27 -3 54 -8 60 -12z m-1883
-13 c0 -11 -7 -20 -15 -20 -8 0 -15 9 -15 20 0 11 7 20 15 20 8 0 15 -9 15
-20z m1298 1 c3 -8 -1 -12 -9 -9 -7 2 -15 10 -17 17 -3 8 1 12 9 9 7 -2 15
-10 17 -17z m213 -12 c16 -16 29 -20 50 -15 24 5 29 2 29 -14 0 -37 -83 -16
-94 23 -5 20 -6 20 -26 2 -11 -10 -23 -15 -28 -11 -7 8 24 36 40 36 4 0 17 -9
29 -21z m-93 -1 c-6 -18 -28 -21 -28 -4 0 9 7 16 16 16 9 0 14 -5 12 -12z
m232 -19 c0 -10 -7 -19 -15 -19 -15 0 -21 31 -9 43 11 10 24 -3 24 -24z m50
-4 c-13 -14 -26 -23 -28 -20 -7 7 29 45 41 45 6 0 0 -11 -13 -25z m-1220 5 c0
-5 -7 -10 -16 -10 -8 0 -12 5 -9 10 3 6 10 10 16 10 5 0 9 -4 9 -10z m672 -30
c3 -16 1 -30 -4 -30 -4 0 -8 6 -8 13 0 6 -3 23 -7 36 -4 16 -2 22 4 18 6 -4
13 -20 15 -37z m138 -7 c-2 -68 -2 -68 20 -48 11 10 19 25 18 33 -2 8 3 17 10
19 8 3 12 -6 12 -26 0 -35 -1 -35 36 -21 22 9 29 7 41 -10 18 -26 37 -26 30 0
-3 13 0 20 8 20 7 0 16 6 18 13 3 7 6 5 6 -6 1 -13 7 -16 25 -11 20 5 24 1 30
-27 4 -24 2 -37 -10 -48 -15 -15 -15 -13 -9 17 5 25 3 32 -8 32 -10 0 -13 -7
-10 -19 3 -11 -2 -21 -11 -24 -10 -4 -16 -18 -16 -37 0 -23 -4 -30 -20 -30
-13 0 -18 5 -14 15 4 9 0 15 -10 15 -9 0 -16 -7 -16 -16 0 -13 -7 -15 -35 -11
-26 4 -35 2 -35 -9 0 -8 7 -14 16 -14 9 0 23 -8 31 -17 14 -17 14 -17 9 -1 -4
13 2 20 19 24 13 3 30 4 37 1 7 -3 2 -6 -10 -6 -15 -1 -26 -9 -29 -22 -5 -18
-11 -20 -42 -14 -20 4 -62 10 -93 14 -64 8 -93 23 -37 20 62 -5 98 37 89 101
-3 22 -9 25 -21 13 -6 -6 -17 -9 -24 -7 -15 6 -32 -15 -37 -46 -2 -14 -11 -26
-21 -28 -13 -3 -17 2 -15 14 2 9 -3 19 -9 21 -7 3 -13 -2 -13 -11 0 -9 -7 -16
-16 -16 -18 0 -56 19 -65 32 -7 11 1 58 10 58 3 0 19 11 35 25 29 25 66 34 66
16 0 -5 -9 -7 -20 -4 -12 3 -20 0 -20 -6 0 -8 14 -11 38 -9 35 3 38 6 46 46 6
23 12 42 14 42 2 0 3 -21 2 -47z m733 -15 c4 -35 5 -83 4 -108 -2 -39 -5 -45
-22 -42 -11 2 -21 5 -22 6 -7 6 -15 176 -10 190 4 9 15 16 26 16 16 0 20 -10
24 -62z m-899 20 c8 -5 6 -12 -5 -23 -15 -15 -17 -15 -23 10 -7 28 4 60 12 35
3 -8 10 -18 16 -22z m616 16 c0 -8 -5 -12 -10 -9 -6 4 -8 11 -5 16 9 14 15 11
15 -7z m587 -36 c-2 -13 -4 -5 -4 17 -1 22 1 32 4 23 2 -10 2 -28 0 -40z
m-1260 12 c-2 -17 -9 -36 -15 -42 -7 -7 -12 -25 -12 -40 0 -30 -26 -40 -36
-13 -4 8 -10 15 -15 15 -5 0 -9 -7 -9 -15 0 -8 -9 -15 -20 -15 -25 0 -60 29
-60 50 1 12 4 11 15 -4 21 -27 31 -12 11 16 -20 28 -20 39 -1 32 9 -4 18 1 21
11 5 12 14 15 30 11 13 -4 24 -2 24 3 0 10 21 18 52 20 14 1 17 -6 15 -29z
m-980 14 c-3 -3 -12 -4 -19 -1 -8 3 -5 6 6 6 11 1 17 -2 13 -5z m1711 -18 c3
-13 -1 -17 -14 -14 -11 2 -20 11 -22 22 -3 13 1 17 14 14 11 -2 20 -11 22 -22z
m70 3 c-2 -6 -8 -10 -13 -10 -5 0 -11 4 -13 10 -2 6 4 11 13 11 9 0 15 -5 13
-11z m-1818 -9 c0 -5 -5 -10 -11 -10 -5 0 -7 5 -4 10 3 6 8 10 11 10 2 0 4 -4
4 -10z m110 -18 c-17 -6 -42 7 -35 18 4 6 13 5 26 -3 10 -6 15 -13 9 -15z
m2060 7 c0 -6 -4 -7 -10 -4 -5 3 -10 11 -10 16 0 6 5 7 10 4 6 -3 10 -11 10
-16z m-1884 -16 c13 -8 24 -21 24 -28 0 -8 8 -16 18 -18 10 -3 8 -5 -8 -5 -14
1 -34 -3 -45 -7 -16 -5 -17 -5 -5 4 13 9 13 11 0 12 -10 0 -8 3 5 8 16 7 7 11
-39 21 -53 12 -56 15 -40 27 21 15 53 10 90 -14z m1231 -5 c-3 -7 -5 -2 -5 12
0 14 2 19 5 13 2 -7 2 -19 0 -25z m637 -11 c7 -6 6 -7 -4 -4 -8 2 -16 14 -17
28 -1 19 -1 20 4 4 3 -11 10 -24 17 -28z m-2041 4 c11 -11 2 -16 -36 -23 -31
-5 -24 -23 11 -26 27 -3 34 1 42 24 9 23 14 26 41 20 18 -3 40 -6 50 -6 11 0
19 -5 19 -11 0 -5 -4 -8 -9 -5 -5 4 -11 0 -14 -6 -3 -10 -8 -9 -22 2 -11 9
-16 10 -11 3 4 -7 2 -13 -3 -13 -6 0 -11 7 -11 16 0 14 -3 14 -15 4 -8 -7 -15
-21 -15 -31 0 -22 -19 -23 -100 -6 -69 15 -80 22 -80 51 0 22 3 23 71 20 40
-1 76 -7 82 -13z m50 12 c-7 -2 -19 -2 -25 0 -7 3 -2 5 12 5 14 0 19 -2 13 -5z
m-236 -9 c-3 -3 -12 -4 -19 -1 -8 3 -5 6 6 6 11 1 17 -2 13 -5z m2227 -44 c41
-13 48 -30 13 -30 -30 0 -67 35 -66 63 l0 22 9 -21 c5 -12 24 -27 44 -34z
m-254 -15 c0 -30 -4 -55 -9 -55 -5 0 -7 18 -4 40 4 26 2 40 -6 40 -6 0 -11 -8
-12 -17 0 -10 -3 -13 -5 -6 -6 15 13 53 26 53 6 0 10 -25 10 -55z m-1250 25
c0 -5 9 -10 19 -10 11 0 23 -5 26 -11 4 -6 12 -8 19 -6 6 3 20 -1 31 -9 22
-16 71 -19 80 -4 9 15 51 12 65 -5 7 -8 16 -13 20 -10 4 3 13 -2 20 -10 17
-20 61 -19 100 3 29 16 31 16 41 0 5 -10 20 -18 33 -18 12 0 31 -7 42 -15 18
-14 18 -14 -6 -15 -14 0 -63 5 -108 12 -63 8 -86 8 -91 0 -5 -8 -12 -5 -24 8
-9 11 -29 20 -44 21 -31 1 -62 5 -138 18 -27 5 -59 9 -70 10 -11 0 -38 3 -60
6 -24 4 -35 3 -28 -2 8 -6 -1 -9 -24 -9 l-37 0 38 17 c20 9 42 21 49 28 14 14
47 15 47 1z m1930 -8 c0 -5 -11 -14 -25 -20 -26 -12 -33 -4 -13 16 14 14 38
16 38 4z m-2150 -12 c0 -5 -7 -10 -15 -10 -8 0 -15 5 -15 10 0 6 7 10 15 10 8
0 15 -4 15 -10z m1620 1 c0 -5 -7 -11 -15 -15 -9 -3 -15 0 -15 9 0 8 7 15 15
15 8 0 15 -4 15 -9z m-2435 -21 c-3 -5 -11 -10 -16 -10 -6 0 -7 5 -4 10 3 6
11 10 16 10 6 0 7 -4 4 -10z m2450 -36 c37 6 45 4 45 -8 0 -19 20 -22 21 -3 0
10 2 10 6 0 2 -7 18 -13 34 -13 16 0 29 -4 29 -10 0 -5 -3 -10 -7 -11 -79 -6
-124 -7 -109 0 18 7 18 8 2 14 -10 4 -31 7 -47 7 -16 0 -29 3 -29 8 0 4 -3 18
-5 32 l-6 25 11 -24 c9 -21 14 -23 55 -17z m460 26 c18 -8 17 -9 -7 -9 -16 -1
-28 4 -28 9 0 12 8 12 35 0z m-2288 -6 c-3 -3 -12 -4 -19 -1 -8 3 -5 6 6 6 11
1 17 -2 13 -5z m1593 1 c0 -6 -57 -35 -70 -35 -22 0 -8 16 23 27 40 13 47 14
47 8z m-1390 -35 c0 -4 -25 -2 -55 3 -30 6 -52 13 -50 17 5 8 105 -11 105 -20z
m2169 14 c-13 -7 -26 -9 -29 -5 -3 5 -12 10 -20 13 -8 3 5 5 29 5 41 0 43 0
20 -13z m-2406 -21 c-7 -2 -21 -2 -30 0 -10 3 -4 5 12 5 17 0 24 -2 18 -5z
m297 -3 c0 -5 -7 -7 -15 -4 -8 4 -15 8 -15 10 0 2 7 4 15 4 8 0 15 -4 15 -10z
m80 -4 c0 -3 -4 -8 -10 -11 -5 -3 -10 -1 -10 4 0 6 5 11 10 11 6 0 10 -2 10
-4z m1420 -1 c0 -2 -16 -12 -35 -21 -34 -16 -48 -43 -22 -45 9 0 9 -2 -1 -6
-20 -8 29 -30 81 -38 58 -9 119 9 163 47 33 29 34 30 23 6 -16 -36 -99 -78
-153 -78 -59 0 -114 25 -134 60 -12 21 -25 30 -42 30 -14 0 -32 5 -40 10 -13
9 -13 11 0 19 16 11 33 4 25 -10 -4 -5 3 -9 14 -9 11 0 24 6 28 14 10 18 93
37 93 21z m-1383 -11 c-3 -3 -12 -4 -19 -1 -8 3 -5 6 6 6 11 1 17 -2 13 -5z
m1823 -4 c0 -5 -2 -10 -4 -10 -3 0 -8 5 -11 10 -3 6 -1 10 4 10 6 0 11 -4 11
-10z m-1645 -21 c39 -7 66 -14 60 -15 -5 -2 -59 5 -120 16 -60 10 -87 18 -60
15 28 -2 82 -9 120 -16z m1707 1 c-14 -12 -29 -16 -40 -12 -13 5 -11 8 11 10
15 2 25 8 22 13 -4 5 2 9 12 9 16 -1 15 -3 -5 -20z m-1579 3 c-7 -2 -19 -2
-25 0 -7 3 -2 5 12 5 14 0 19 -2 13 -5z m181 -38 c-5 -11 1 -15 20 -15 14 0
26 -4 26 -9 0 -9 -54 -6 -87 4 -12 4 -12 22 0 43 11 17 48 -3 41 -23z m949 -1
c-8 -23 -30 -16 -27 9 1 12 3 24 3 26 1 2 7 -2 15 -9 8 -6 12 -18 9 -26z
m-453 4 c0 -19 -2 -20 -10 -8 -13 19 -13 30 0 30 6 0 10 -10 10 -22z m-682 5
c-10 -2 -26 -2 -35 0 -10 3 -2 5 17 5 19 0 27 -2 18 -5z m112 -3 c24 -15 4
-22 -42 -15 -35 6 -39 9 -23 16 27 11 47 10 65 -1z m316 -5 c-3 -8 -1 -15 5
-15 6 0 7 -5 4 -11 -13 -20 -57 -29 -113 -22 l-57 8 75 5 c71 5 75 6 72 28 -2
12 2 22 8 22 7 0 10 -7 6 -15z m-59 -21 c-3 -3 -12 -4 -19 -1 -8 3 -5 6 6 6
11 1 17 -2 13 -5z m722 -53 c9 -6 10 -14 5 -24 -8 -13 -11 -12 -21 9 -12 25
-7 30 16 15z m-756 -18 c-7 -2 -21 -2 -30 0 -10 3 -4 5 12 5 17 0 24 -2 18 -5z
m897 -43 c-8 -5 -19 -10 -25 -10 -5 0 -3 5 5 10 8 5 20 10 25 10 6 0 3 -5 -5
-10z m-153 -16 c-3 -3 -12 -4 -19 -1 -8 3 -5 6 6 6 11 1 17 -2 13 -5z m-1564
-350 c39 -3 44 -11 8 -12 -16 0 -48 6 -72 14 l-44 14 40 -6 c22 -4 53 -8 68
-10z m-68 -63 c10 -17 -11 -21 -31 -6 -18 14 -18 14 3 15 12 0 24 -4 28 -9z
m22 -33 c-3 -8 -6 -5 -6 6 -1 11 2 17 5 13 3 -3 4 -12 1 -19z m133 -18 c0 -5
-12 -10 -26 -10 -14 0 -23 4 -19 10 3 6 15 10 26 10 10 0 19 -4 19 -10z m707
-52 c-3 -8 -6 -5 -6 6 -1 11 2 17 5 13 3 -3 4 -12 1 -19z m9 -44 c-5 -14 -9
-15 -19 -5 -9 9 -9 14 3 21 18 11 24 6 16 -16z"/>
<path d="M3798 3703 c7 -3 16 -2 19 1 4 3 -2 6 -13 5 -11 0 -14 -3 -6 -6z"/>
<path d="M3860 3700 c0 -5 7 -10 16 -10 8 0 12 5 9 10 -3 6 -10 10 -16 10 -5
0 -9 -4 -9 -10z"/>
<path d="M2320 3490 c0 -6 7 -10 15 -10 8 0 15 2 15 4 0 2 -7 6 -15 10 -8 3
-15 1 -15 -4z"/>
<path d="M1687 3414 c-8 -8 1 -24 14 -24 5 0 9 7 9 15 0 15 -12 20 -23 9z"/>
<path d="M3065 3110 c3 -5 8 -10 11 -10 2 0 4 5 4 10 0 6 -5 10 -11 10 -5 0
-7 -4 -4 -10z"/>
<path d="M3210 3251 c0 -6 5 -13 10 -16 6 -3 10 1 10 9 0 9 -4 16 -10 16 -5 0
-10 -4 -10 -9z"/>
<path d="M3470 3190 c0 -5 4 -10 9 -10 6 0 13 5 16 10 3 6 -1 10 -9 10 -9 0
-16 -4 -16 -10z"/>
<path d="M2393 3123 c9 -2 23 -2 30 0 6 3 -1 5 -18 5 -16 0 -22 -2 -12 -5z"/>
<path d="M1535 2930 c3 -5 8 -10 11 -10 2 0 4 5 4 10 0 6 -5 10 -11 10 -5 0
-7 -4 -4 -10z"/>
<path d="M3630 2850 c0 -18 6 -33 15 -37 21 -7 33 6 16 17 -8 4 -12 17 -8 29
3 14 0 21 -9 21 -9 0 -14 -11 -14 -30z"/>
<path d="M3648 2793 c6 -2 18 -2 25 0 6 3 1 5 -13 5 -14 0 -19 -2 -12 -5z"/>
<path d="M3828 2753 c6 -2 18 -2 25 0 6 3 1 5 -13 5 -14 0 -19 -2 -12 -5z"/>
<path d="M3885 2750 c4 -6 11 -8 16 -5 14 9 11 15 -7 15 -8 0 -12 -5 -9 -10z"/>
<path d="M3200 2730 c0 -5 5 -10 10 -10 6 0 10 5 10 10 0 6 -4 10 -10 10 -5 0
-10 -4 -10 -10z"/>
<path d="M1383 2763 c9 -2 23 -2 30 0 6 3 -1 5 -18 5 -16 0 -22 -2 -12 -5z"/>
<path d="M3496 2685 c4 -8 8 -15 11 -15 2 0 11 7 19 15 14 13 13 15 -10 15
-18 0 -24 -4 -20 -15z"/>
<path d="M3570 2670 c0 -5 5 -10 10 -10 6 0 10 5 10 10 0 6 -4 10 -10 10 -5 0
-10 -4 -10 -10z"/>
<path d="M960 2660 c0 -5 5 -10 10 -10 6 0 10 5 10 10 0 6 -4 10 -10 10 -5 0
-10 -4 -10 -10z"/>
<path d="M4055 1920 c-13 -6 -15 -9 -5 -9 8 0 22 4 30 9 18 12 2 12 -25 0z"/>
<path d="M3960 1874 l-25 -15 25 5 c14 3 28 6 33 6 4 0 7 5 7 10 0 14 -10 12
-40 -6z"/>
<path d="M3544 1851 c-2 -2 -4 -8 -4 -13 0 -13 24 -9 46 7 18 14 18 14 -9 13
-15 -2 -30 -4 -33 -7z"/>
<path d="M3435 1780 c-3 -5 3 -10 14 -10 10 0 28 -3 38 -6 10 -3 7 2 -7 10
-30 18 -37 19 -45 6z"/>
<path d="M2525 2240 c-3 -5 3 -10 14 -10 12 0 21 5 21 10 0 6 -6 10 -14 10 -8
0 -18 -4 -21 -10z"/>
<path d="M2473 2225 c2 -20 37 -35 37 -16 0 6 -6 11 -14 11 -8 0 -17 6 -20 13
-3 6 -5 3 -3 -8z"/>
<path d="M870 1840 c0 -5 7 -10 16 -10 8 0 12 5 9 10 -3 6 -10 10 -16 10 -5 0
-9 -4 -9 -10z"/>
<path d="M930 1816 c0 -2 7 -6 15 -10 8 -3 15 -1 15 4 0 6 -7 10 -15 10 -8 0
-15 -2 -15 -4z"/>
<path d="M3190 2064 c0 -8 5 -12 10 -9 6 4 8 11 5 16 -9 14 -15 11 -15 -7z"/>
<path d="M3210 2040 c0 -5 5 -10 11 -10 5 0 7 5 4 10 -3 6 -8 10 -11 10 -2 0
-4 -4 -4 -10z"/>
<path d="M3160 2011 c-12 -24 -13 -31 -1 -31 5 0 11 11 13 25 6 30 2 32 -12 6z"/>
<path d="M3150 1960 c0 -5 5 -10 10 -10 6 0 10 5 10 10 0 6 -4 10 -10 10 -5 0
-10 -4 -10 -10z"/>
<path d="M1390 1980 c0 -5 7 -10 16 -10 8 0 12 5 9 10 -3 6 -10 10 -16 10 -5
0 -9 -4 -9 -10z"/>
<path d="M1356 1937 c3 -10 9 -15 12 -12 3 3 0 11 -7 18 -10 9 -11 8 -5 -6z"/>
<path d="M1520 1879 c0 -5 5 -7 10 -4 6 3 10 8 10 11 0 2 -4 4 -10 4 -5 0 -10
-5 -10 -11z"/>
<path d="M2580 1980 c0 -5 5 -10 10 -10 6 0 10 5 10 10 0 6 -4 10 -10 10 -5 0
-10 -4 -10 -10z"/>
<path d="M1816 1924 c-4 -9 -3 -20 0 -23 4 -3 9 0 11 7 3 6 11 12 19 12 9 0
12 5 9 10 -10 16 -32 12 -39 -6z"/>
<path d="M2263 1813 c-16 -10 -23 -12 -23 -4 0 7 -4 9 -10 6 -16 -10 -11 -25
8 -25 11 0 27 9 37 20 21 24 18 25 -12 3z"/>
<path d="M2427 1789 c7 -7 15 -10 18 -7 3 3 -2 9 -12 12 -14 6 -15 5 -6 -5z"/>
<path d="M2380 1769 c0 -5 5 -7 10 -4 6 3 10 8 10 11 0 2 -4 4 -10 4 -5 0 -10
-5 -10 -11z"/>
<path d="M1990 1851 c0 -6 5 -13 10 -16 6 -3 10 1 10 9 0 9 -4 16 -10 16 -5 0
-10 -4 -10 -9z"/>
<path d="M1040 1832 c0 -5 17 -9 38 -9 32 -1 34 0 12 7 -35 11 -50 11 -50 2z"/>
<path d="M1542 4005 c0 -16 2 -22 5 -12 2 9 2 23 0 30 -3 6 -5 -1 -5 -18z"/>
<path d="M1532 3919 c-7 -11 -11 -24 -8 -27 10 -9 28 15 24 32 -2 14 -5 13
-16 -5z"/>
<path d="M1198 3853 c7 -3 16 -2 19 1 4 3 -2 6 -13 5 -11 0 -14 -3 -6 -6z"/>
<path d="M1078 3473 c7 -3 16 -2 19 1 4 3 -2 6 -13 5 -11 0 -14 -3 -6 -6z"/>
<path d="M4448 2253 c7 -3 16 -2 19 1 4 3 -2 6 -13 5 -11 0 -14 -3 -6 -6z"/>
<path d="M790 2100 c0 -5 9 -10 21 -10 11 0 17 5 14 10 -3 6 -13 10 -21 10 -8
0 -14 -4 -14 -10z"/>
<path d="M720 2035 c0 -8 5 -17 10 -20 6 -3 10 -1 10 5 0 6 6 10 13 8 7 -2 15
1 17 6 3 5 -7 10 -22 12 -19 2 -28 -2 -28 -11z"/>
<path d="M762 1940 c0 -14 2 -19 5 -12 2 6 2 18 0 25 -3 6 -5 1 -5 -13z"/>
<path d="M2673 1785 c-6 -14 -7 -25 -2 -25 5 0 9 3 9 8 0 4 4 13 9 21 8 12 12
12 25 2 9 -8 16 -9 16 -3 0 9 -23 22 -38 22 -4 0 -12 -11 -19 -25z"/>
<path d="M3988 1803 c7 -3 16 -2 19 1 4 3 -2 6 -13 5 -11 0 -14 -3 -6 -6z"/>
<path d="M3825 1760 c-13 -6 -15 -9 -5 -9 8 0 22 4 30 9 18 12 2 12 -25 0z"/>
<path d="M2625 1750 c-3 -5 1 -10 10 -10 9 0 13 5 10 10 -3 6 -8 10 -10 10 -2
0 -7 -4 -10 -10z"/>
<path d="M3920 1750 c-13 -8 -12 -10 3 -10 9 0 17 5 17 10 0 12 -1 12 -20 0z"/>
<path d="M4030 1744 c0 -8 5 -12 10 -9 6 4 8 11 5 16 -9 14 -15 11 -15 -7z"/>
<path d="M3977 1744 c-4 -4 -7 -19 -7 -33 l-1 -26 -14 25 c-12 22 -14 23 -20
7 -6 -13 -11 -15 -20 -7 -9 7 -21 7 -41 -1 -67 -27 -81 -33 -114 -48 -103 -47
-270 -193 -411 -360 -110 -129 -279 -250 -404 -287 -33 -10 -67 -24 -77 -32
-11 -9 -18 -10 -23 -3 -7 13 -25 14 -42 3 -17 -11 -4 -55 14 -48 8 4 18 -5 25
-22 16 -37 18 -38 28 -22 8 12 10 10 10 -9 0 -19 4 -22 23 -17 12 3 26 6 30 6
5 0 6 4 3 9 -6 10 49 27 71 23 7 -2 47 14 90 35 73 35 95 55 343 305 249 251
270 269 343 304 52 25 76 42 73 51 -6 16 6 17 21 2 7 -7 20 -6 44 5 38 16 25
22 -15 6 -21 -8 -26 -6 -26 6 0 16 43 37 48 23 6 -14 22 -10 22 5 0 9 7 12 20
9 21 -6 28 -23 8 -23 -6 0 -9 -3 -5 -6 3 -3 15 -3 27 1 20 6 21 7 3 20 -14 11
-16 16 -5 26 6 7 12 20 12 29 0 21 -24 53 -33 44z m23 -38 c0 -3 -4 -8 -10
-11 -5 -3 -10 -1 -10 4 0 6 5 11 10 11 6 0 10 -2 10 -4z"/>
<path d="M3790 1727 c-25 -12 -39 -37 -20 -37 13 0 55 38 49 44 -2 2 -15 -1
-29 -7z"/>
<path d="M1145 1720 c3 -5 8 -10 11 -10 2 0 4 5 4 10 0 6 -5 10 -11 10 -5 0
-7 -4 -4 -10z"/>
<path d="M3702 1695 c-7 -8 -9 -15 -4 -15 5 0 15 7 22 15 16 19 -1 19 -18 0z"/>
<path d="M4026 1695 c-3 -8 -3 -22 0 -30 7 -17 24 -20 24 -5 0 6 -5 10 -10 10
-7 0 -7 6 0 20 6 11 7 20 1 20 -5 0 -11 -7 -15 -15z"/>
<path d="M590 1684 c0 -8 5 -12 10 -9 6 3 10 10 10 16 0 5 -4 9 -10 9 -5 0
-10 -7 -10 -16z"/>
<path d="M2810 1681 c-16 -4 -21 -9 -13 -14 15 -9 63 2 63 14 0 10 -14 10 -50
0z"/>
<path d="M3678 1653 c7 -3 16 -2 19 1 4 3 -2 6 -13 5 -11 0 -14 -3 -6 -6z"/>
<path d="M4075 1650 c-16 -7 -17 -9 -3 -9 9 -1 20 4 23 9 7 11 7 11 -20 0z"/>
<path d="M1520 1629 c0 -5 5 -7 10 -4 6 3 10 8 10 11 0 2 -4 4 -10 4 -5 0 -10
-5 -10 -11z"/>
<path d="M2828 1603 c7 -3 16 -2 19 1 4 3 -2 6 -13 5 -11 0 -14 -3 -6 -6z"/>
<path d="M3405 1580 c-3 -5 -2 -10 4 -10 5 0 13 5 16 10 3 6 2 10 -4 10 -5 0
-13 -4 -16 -10z"/>
<path d="M2220 1541 c0 -11 4 -22 9 -25 4 -3 6 6 3 19 -5 30 -12 33 -12 6z"/>
<path d="M2840 1539 c0 -5 5 -7 10 -4 6 3 10 8 10 11 0 2 -4 4 -10 4 -5 0 -10
-5 -10 -11z"/>
<path d="M2850 1462 c0 -4 11 -9 26 -10 14 -1 23 2 19 8 -7 12 -45 14 -45 2z"/>
<path d="M2746 1391 c-4 -5 3 -7 14 -4 23 6 26 13 6 13 -8 0 -17 -4 -20 -9z"/>
<path d="M2818 1363 c7 -3 16 -2 19 1 4 3 -2 6 -13 5 -11 0 -14 -3 -6 -6z"/>
<path d="M2928 1343 c7 -3 16 -2 19 1 4 3 -2 6 -13 5 -11 0 -14 -3 -6 -6z"/>
<path d="M3315 1330 c-4 -6 5 -10 19 -10 14 0 26 5 26 10 0 6 -9 10 -19 10
-11 0 -23 -4 -26 -10z"/>
<path d="M3265 1299 c-11 -16 0 -21 31 -13 25 6 26 8 9 15 -28 11 -33 10 -40
-2z"/>
<path d="M698 1256 c-2 -19 -2 -39 0 -45 6 -18 19 -13 25 9 3 11 1 20 -4 20
-5 0 -7 11 -3 25 3 14 2 25 -4 25 -5 0 -12 -15 -14 -34z"/>
<path d="M752 1265 c0 -16 2 -22 5 -12 2 9 2 23 0 30 -3 6 -5 -1 -5 -18z"/>
<path d="M940 1246 c0 -8 7 -16 15 -20 13 -4 14 -2 5 14 -13 23 -20 26 -20 6z"/>
<path d="M990 1239 c0 -5 5 -7 10 -4 6 3 10 8 10 11 0 2 -4 4 -10 4 -5 0 -10
-5 -10 -11z"/>
<path d="M3225 1230 c-3 -5 -1 -10 4 -10 6 0 11 5 11 10 0 6 -2 10 -4 10 -3 0
-8 -4 -11 -10z"/>
<path d="M1095 1220 c-8 -13 3 -50 15 -50 4 0 6 9 3 20 -3 12 0 20 6 20 19 0
9 -65 -9 -66 -41 -3 -44 -4 -33 -15 6 -6 26 -14 46 -19 29 -6 36 -5 40 10 2
10 1 24 -4 31 -13 22 -11 61 4 56 6 -2 11 -16 10 -31 -1 -16 3 -26 12 -26 7 0
16 -6 18 -12 4 -10 8 -9 17 2 10 13 11 11 7 -6 -6 -29 7 -48 27 -41 10 4 16
18 16 36 0 22 8 35 26 47 19 13 22 19 12 25 -24 16 -48 10 -48 -12 0 -13 -4
-18 -12 -13 -8 5 -9 1 -5 -12 7 -18 6 -18 -6 -2 -11 14 -16 15 -27 5 -10 -10
-12 -8 -6 6 3 10 6 20 6 22 0 2 9 1 20 -2 11 -3 20 -1 20 5 0 20 -143 41 -155
22z"/>
<path d="M3185 1210 c-3 -5 -1 -10 4 -10 6 0 11 5 11 10 0 6 -2 10 -4 10 -3 0
-8 -4 -11 -10z"/>
<path d="M1026 1168 c10 -35 27 -59 19 -28 -4 14 -7 31 -7 38 -1 6 -5 12 -10
12 -5 0 -6 -10 -2 -22z"/>
<path d="M961 1154 c0 -11 3 -14 6 -6 3 7 2 16 -1 19 -3 4 -6 -2 -5 -13z"/>
<path d="M1708 1123 c7 -3 16 -2 19 1 4 3 -2 6 -13 5 -11 0 -14 -3 -6 -6z"/>
<path d="M1843 1088 c2 -7 1 -22 -3 -33 -4 -11 -4 -29 1 -40 7 -18 8 -17 8 6
1 14 6 30 12 36 7 7 9 19 6 27 -7 19 -31 22 -24 4z"/>
<path d="M1891 1064 c-1 -30 27 -94 42 -95 6 -1 25 -3 41 -5 24 -2 27 0 23 17
-5 17 -3 18 9 8 8 -7 13 -18 10 -26 -3 -7 1 -13 9 -13 20 0 19 36 -1 44 -12 5
-14 10 -5 20 12 14 5 26 -16 26 -7 0 -13 -7 -13 -15 0 -8 -4 -15 -9 -15 -5 0
-11 -9 -14 -21 -3 -12 -10 -18 -17 -14 -6 4 -8 15 -5 25 5 14 2 17 -14 13 -16
-4 -19 -1 -14 16 3 12 1 21 -5 21 -6 0 -13 8 -15 18 -4 13 -5 13 -6 -4z"/>
<path d="M2046 1053 c-10 -10 -7 -53 4 -53 6 0 10 7 10 15 0 8 5 15 10 15 6 0
10 4 10 9 0 11 -26 22 -34 14z"/>
<path d="M2100 1051 c0 -6 5 -13 10 -16 6 -3 10 1 10 9 0 9 -4 16 -10 16 -5 0
-10 -4 -10 -9z"/>
<path d="M1870 1016 c0 -13 -6 -27 -12 -29 -8 -3 -6 -6 5 -6 12 -1 17 7 17 29
0 17 -2 30 -5 30 -3 0 -5 -11 -5 -24z"/>
<path d="M2800 1020 c0 -5 15 -10 33 -9 27 0 29 2 12 9 -28 12 -45 12 -45 0z"/>
<path d="M2448 1013 c7 -3 16 -2 19 1 4 3 -2 6 -13 5 -11 0 -14 -3 -6 -6z"/>
<path d="M2180 981 c0 -17 4 -32 8 -35 4 -2 6 11 4 30 -5 42 -12 45 -12 5z"/>
<path d="M2376 976 c4 -10 1 -16 -7 -16 -10 0 -10 -3 -1 -12 7 -7 12 -23 12
-37 1 -23 3 -21 20 14 13 28 15 41 7 44 -7 2 -18 8 -25 14 -9 7 -11 6 -6 -7z"/>
<path d="M2472 950 c0 -19 2 -27 5 -17 2 9 2 25 0 35 -3 9 -5 1 -5 -18z"/>
<path d="M2535 970 c3 -5 10 -10 16 -10 5 0 9 5 9 10 0 6 -7 10 -16 10 -8 0
-12 -4 -9 -10z"/>
<path d="M2738 973 c6 -2 18 -2 25 0 6 3 1 5 -13 5 -14 0 -19 -2 -12 -5z"/>
<path d="M2610 956 c0 -8 5 -18 10 -21 6 -3 10 1 10 9 0 8 -4 18 -10 21 -5 3
-10 -1 -10 -9z"/>
<path d="M2140 939 c0 -5 5 -7 10 -4 6 3 10 8 10 11 0 2 -4 4 -10 4 -5 0 -10
-5 -10 -11z"/>
<path d="M2780 898 c-21 -19 -22 -23 -8 -26 26 -5 58 16 52 33 -8 20 -16 19
-44 -7z"/>
<path d="M2492 894 c-7 -8 -8 -14 -3 -14 10 0 25 19 20 25 -2 1 -10 -3 -17
-11z"/>
<path d="M2838 853 c6 -2 18 -2 25 0 6 3 1 5 -13 5 -14 0 -19 -2 -12 -5z"/>
<path d="M2728 843 c7 -3 16 -2 19 1 4 3 -2 6 -13 5 -11 0 -14 -3 -6 -6z"/>
</g>
</svg>
